<?xml version="1.0" encoding="UTF-8"?>
<svg width="191px" height="240px" viewBox="0 0 191 240" version="1.1" xmlns="http://www.w3.org/2000/svg" xmlns:xlink="http://www.w3.org/1999/xlink">
    <title>icn/a-aessia-240px@3x</title>
    <g id="icn/a-aessia-240px" stroke="none" stroke-width="1" fill="none" fill-rule="evenodd" opacity="0.37">
        <path d="M177.591404,167.959005 C177.591404,170.198725 177.72639,173.478315 178.01136,177.797775 C178.291331,182.132233 178.846273,186.531684 179.686185,190.991126 C180.521097,195.465567 181.845959,199.515061 183.665768,203.144607 C185.480578,206.774153 187.920322,209.148856 191,210.263717 L177.591404,238.325209 C173.956785,238.325209 170.122186,237.485314 166.067611,235.810524 C162.023034,234.135733 158.113444,231.766029 154.348838,228.691414 C150.579233,225.621797 147.35957,222.202225 144.714847,218.432696 C142.055125,214.663167 140.035337,210.548681 138.640483,206.074241 C135.845775,213.058368 130.331353,219.267592 122.092215,224.71691 C113.848079,230.16123 104.709036,234.135733 94.6600879,236.645419 L94.6600879,204.814398 C101.359386,203.419573 107.43875,200.704912 112.88318,196.645419 C118.32761,192.605924 122.997121,187.786527 126.911711,182.207224 L126.911711,93.8232721 C126.911711,80.1449819 126.211784,69.256343 124.81693,61.1573553 C123.417077,53.0583677 121.042325,47.1241095 117.697676,43.3545807 C114.343027,39.5800525 110.218459,37.2153481 105.33397,36.2254718 C100.449482,35.2605924 94.6600879,34.7656543 87.9507905,34.7656543 C81.8114334,34.7656543 76.0220396,35.5355581 70.5726102,37.0653668 C65.1281803,38.6051744 60.1037064,40.4149481 55.4941891,42.5146857 C50.8896712,44.6094238 46.8350958,46.9091364 43.3504607,49.423822 C39.8508271,51.9335083 37.2760967,53.8982627 35.6012721,55.2830896 L16.7482463,26.391701 C19.5429536,23.3170854 23.7325149,20.1824772 29.3219296,16.9628796 C34.9013454,13.7632796 41.3256727,10.8936383 48.5799131,8.37895263 C55.839153,5.86426697 63.7333264,3.84451944 72.2524343,2.29971254 C80.7615433,0.774903137 89.6356141,0 98.8496493,0 C107.223772,0 115.392917,0.839895013 123.347084,2.51468566 C131.306251,4.18947632 138.560491,6.98912636 145.134803,10.8936383 C151.684117,14.8031496 157.418516,20.0374953 162.298005,26.6066742 C167.187493,33.1558555 170.612135,41.3248344 172.561931,51.0986127 C174.511727,60.8823897 175.841587,70.7211599 176.546513,80.6299213 C177.241441,90.5486814 177.591404,100.382452 177.591404,110.15623 L177.591404,164.609424 L177.591404,167.959005 Z M47.3250445,166.704162 C47.3250445,179.267592 49.9047744,188.626422 55.0742331,194.765654 C60.2386923,200.909886 67.7079102,204.539433 77.4868862,205.654293 L77.4868862,239.580052 C76.3670035,239.860017 74.557193,240 72.0424563,240 C62.5384515,240 53.3994084,238.745157 44.6053293,236.230471 C35.8062507,233.715786 28.0620616,229.67629 21.3627631,224.08199 C14.6534656,218.492688 9.42401319,211.098613 5.65440792,201.884764 C1.87980316,192.665917 0,181.367329 0,167.959005 C0,155.12061 2.71471574,144.016998 8.16414512,134.658168 C13.6135745,125.314336 20.5878442,117.630296 29.1069522,111.626047 C37.6210606,105.621797 47.3250445,101.157355 58.2189038,98.2177228 C69.1077636,95.2930884 80.1366087,93.8232721 91.3104387,93.8232721 L109.738509,93.8232721 L109.738509,123.564554 L100.524474,123.564554 C94.9350592,123.564554 89.0706732,124.119485 82.9263166,125.239345 C76.7869595,126.354206 71.0525599,128.448944 65.7581143,131.51856 C60.4436708,134.598175 56.049131,138.992626 52.5644959,144.706912 C49.0698618,150.436195 47.3250445,157.770279 47.3250445,166.704162 L47.3250445,166.704162 Z" id="Fill-11-Copy-2" fill="#FFFFFF"></path>
    </g>
</svg>