<?xml version="1.0" encoding="UTF-8"?>
<svg width="112px" height="78px" viewBox="0 0 112 78" version="1.1" xmlns="http://www.w3.org/2000/svg" xmlns:xlink="http://www.w3.org/1999/xlink">
    <title>icn/play-video-icn@3x</title>
    <g id="icn/play-video-icn" stroke="none" stroke-width="1" fill="none" fill-rule="evenodd">
        <path d="M109.660156,12.1789297 C108.371305,7.38550547 104.576664,3.60928515 99.7568424,2.32792013 C91.0234515,0 55.999539,0 55.999539,0 C55.999539,0 20.9765485,0 12.2431576,2.32792013 C7.42333621,3.60928515 3.6286949,7.38550547 2.33984443,12.1789297 C0,20.869648 0,38.9995414 0,38.9995414 C0,38.9995414 0,57.130352 2.33984443,65.8201531 C3.6286949,70.6135773 7.42333621,74.3897976 12.2431576,75.6711626 C20.9765485,78 55.999539,78 55.999539,78 C55.999539,78 91.0234515,78 99.7568424,75.6711626 C104.576664,74.3897976 108.371305,70.6135773 109.660156,65.8201531 C112,57.130352 112,38.9995414 112,38.9995414 C112,38.9995414 112,20.869648 109.660156,12.1789297 L109.660156,12.1789297 Z" id="Path" fill="#9BC01C"></path>
        <polygon id="Fill-24" fill="#FFFFFF" points="42 21 42 38.5608671 42 56.1188927 77.1308601 38.5608671"></polygon>
    </g>
</svg>