<?xml version="1.0" encoding="UTF-8"?>
<svg width="16px" height="16px" viewBox="0 0 16 16" version="1.1" xmlns="http://www.w3.org/2000/svg" xmlns:xlink="http://www.w3.org/1999/xlink">
    <title>icn/geoloc-16-icn copy@3x</title>
    <defs>
        <filter color-interpolation-filters="auto" id="filter-1">
            <feColorMatrix in="SourceGraphic" type="matrix" values="0 0 0 0 0.607843 0 0 0 0 0.752941 0 0 0 0 0.109804 0 0 0 1.000000 0"></feColorMatrix>
        </filter>
    </defs>
    <g id="Symbols" stroke="none" stroke-width="1" fill="none" fill-rule="evenodd" stroke-linecap="round" stroke-linejoin="round">
        <g id="cards/d-card-prestador" transform="translate(-50.000000, -145.000000)">
            <g id="icn/geoloc-16-icn-copy" transform="translate(48.000000, 143.000000)" filter="url(#filter-1)">
                <g>
                    <path d="M5.97954452,6.3791398 L4.08930802,4.48917119 L5.19270115,3.38593444 C5.70603034,2.87135519 6.54085176,2.87135519 7.05682697,3.38593444 L8.70927065,5.03814392 C9.22392285,5.55272317 9.22392285,6.38610345 8.70927065,6.90200553 L7.60587752,8.00524229" id="Path" stroke="#044274"></path>
                    <path d="M4.08904341,4.48890663 C4.08904341,4.48890663 0.461340791,7.56447671 6.44797623,13.5529093" id="Stroke-3" stroke="#044274"></path>
                    <path d="M7.60587752,8.00524229 C7.60587752,8.00524229 5.77615004,9.23414749 8.27267625,11.7276742" id="Stroke-5" stroke="#044274"></path>
                    <path d="M11.9960327,12.3947753 L15.5126022,15.9108464 L16.6120263,14.8129009 C17.1293246,14.295676 17.1293246,13.4570044 16.6120263,12.9397795 L14.9675207,11.2968298 C14.4502225,10.7782821 13.6127551,10.7782821 13.0954568,11.2968298" id="Path" stroke="#044274"></path>
                    <path d="M15.5128668,15.9111109 C15.5128668,15.9111109 12.4368608,19.5382994 6.44757932,13.5525125" id="Stroke-9" stroke="#044274"></path>
                    <path d="M11.9960327,12.3947753 C11.9960327,12.3947753 10.7669533,14.2242434 8.27307315,11.7280711" id="Stroke-11" stroke="#044274"></path>
                </g>
            </g>
        </g>
    </g>
</svg>