<?xml version="1.0" standalone="no"?>
<!DOCTYPE svg PUBLIC "-//W3C//DTD SVG 1.1//EN" "http://www.w3.org/Graphics/SVG/1.1/DTD/svg11.dtd">
<svg xmlns="http://www.w3.org/2000/svg">
<defs >
<font id="BigShouldersText" horiz-adv-x="549" ><font-face
    font-family="Big Shoulders Text Thin"
    units-per-em="2000"
    panose-1="0 0 0 0 0 0 0 0 0 0"
    ascent="1968"
    descent="-426"
    alphabetic="0" />
<glyph unicode=" " horiz-adv-x="427" />
<glyph unicode="!" horiz-adv-x="504" d="M145 378L114 935V1600H346V935L316 378H145ZM64 0V236H395V0H64Z" />
<glyph unicode="&quot;" horiz-adv-x="735" d="M130 1099L86 1354V1600H288V1354L245 1099H130ZM489 1099L446 1354V1600H648V1354L605 1099H489Z" />
<glyph unicode="#" horiz-adv-x="1361" d="M150 0L258 431H60L106 620H300L393 972H196L243 1161H436L547 1600H779L667 1161H876L988 1600H1217L1106 1161H1301L1258 972H1063L970 620H1163L1116 431H927L820 0H591L698 431H487L380 0H150ZM531 620H740L833 972H622L531
620Z" />
<glyph unicode="$" horiz-adv-x="909" d="M352 -202V-10Q215 9 153 88T83 322Q82 367 82 411T83 499T89 589H306Q302 509 301 433T306 284Q310 226 346 200T456 173Q525 173 560 199T600 284Q604 323 605 365T605 449T600 529Q597 591 566 628T477 679L329 714Q236
736 182 780T105 895T78 1066Q77 1120 77 1173T79 1280Q85 1434 148 1513T352 1611V1819H554V1611Q691 1593 754 1514T823 1279Q825 1226 824 1158T820 1023H599Q602 1103 603 1175T601 1317Q599 1375 564 1401T455 1427Q384 1427 349 1401T308 1317Q303 1253 303
1192T308 1066Q312 1003 334 966T409 917L543 888Q646 865 708 820T798 702T831 529Q832 497 832 461T831 390T829 322Q823 165 759 87T554 -11V-202H352Z" />
<glyph unicode="%" horiz-adv-x="1246" d="M124 0L954 1600H1115L283 0H124ZM918 -10Q810 -10 748 42T680 199Q678 262 678 311T678 409T680 524Q684 624 746 677T918 730Q1029 730 1090 676T1157 524Q1159 489 1159 446T1160 357T1160 270T1157 200Q1152 99 1091
45T918 -10ZM918 123Q950 123 966 137T985 172Q988 202 990 250T992 353T991 460T985 549Q984 570 968 583T918 597Q886 597 870 584T851 550Q847 497 846 423T846 280T851 171Q854 153 871 138T918 123ZM315 868Q207 868 145 920T77 1077Q75 1140 75 1189T75 1287T77
1402Q81 1502 143 1555T315 1608Q426 1608 487 1554T554 1402Q556 1367 556 1324T557 1235T557 1148T554 1078Q549 977 488 923T315 868ZM315 1001Q347 1001 363 1015T382 1050Q385 1080 387 1128T389 1231T388 1338T382 1427Q381 1448 365 1461T315 1475Q284 1475
268 1462T249 1428Q244 1375 243 1301T243 1158T249 1049Q251 1031 268 1016T315 1001Z" />
<glyph unicode="&amp;" horiz-adv-x="1151" d="M476 -17Q277 -17 190 63T95 324Q93 382 93 421T95 496T103 579Q110 688 155 756T262 876Q216 977 186 1075T148 1264Q132 1427 212 1522T472 1617Q652 1617 730 1529T793 1275Q784 1162 732 1063T591 876Q579 865
565 852T534 823Q569 762 608 701T687 580Q686 632 681 689T667 809L855 810Q862 751 867 671T874 506T872 351Q926 286 974 231T1058 136L908 -5Q880 26 852 58T793 124Q765 75 722 44T618 -2T476 -17ZM481 165Q535 165 566 178T615 221T643 299Q571 389 503 485T375
678Q357 657 344 630T326 569Q322 533 320 501T317 426T319 319Q323 246 361 206T481 165ZM435 1000Q472 1033 506 1071T563 1159T591 1273Q604 1362 579 1413T472 1464Q407 1464 380 1417T354 1298Q356 1232 378 1156T435 1000Z" />
<glyph unicode="&apos;" horiz-adv-x="386" d="M133 1099L86 1354V1600H300V1354L253 1099H133Z" />
<glyph unicode="(" horiz-adv-x="574" d="M343 -400Q256 -281 192 -121T94 225T60 607Q60 785 90 967T184 1313T343 1600H514Q408 1373 353 1115T298 600Q298 430 322 256T395 -85T514 -400H343Z" />
<glyph unicode=")" horiz-adv-x="547" d="M203 -400H33Q103 -252 151 -85T224 256T249 600Q249 857 194 1115T33 1600H203Q299 1478 362 1314T456 967T487 607Q487 411 453 225T355 -121T203 -400Z" />
<glyph unicode="*" horiz-adv-x="542" d="M44 1327L191 1392L44 1457L95 1543L230 1459L220 1608H322L311 1460L447 1543L497 1457L351 1392L497 1327L447 1241L311 1326L322 1176H220L230 1324L95 1241L44 1327Z" />
<glyph unicode="+" horiz-adv-x="1021" d="M421 336V652H106V829H421V1144H601V829H915V652H601V336H421Z" />
<glyph unicode="," horiz-adv-x="484" d="M122 -250L240 0H76V240H408V22L259 -250H122Z" />
<glyph unicode="-" horiz-adv-x="823" d="M60 631V835H763V631H60Z" />
<glyph unicode="." horiz-adv-x="460" d="M64 0V236H395V0H64Z" />
<glyph unicode="/" horiz-adv-x="789" d="M60 -400L497 1600H729L292 -400H60Z" />
<glyph unicode="0" horiz-adv-x="936" d="M469 -17Q292 -17 195 70T94 324Q90 502 89 663T89 977T94 1277Q97 1442 194 1529T469 1617Q644 1617 741 1530T842 1277Q845 1158 847 1038T849 797T847 558T842 324Q837 155 739 69T469 -17ZM469 171Q603 171 608 280Q615
465 617 637T617 977T608 1319Q605 1429 469 1429Q330 1429 327 1318Q323 1166 321 1038T319 791T321 549T327 283Q330 171 469 171Z" />
<glyph unicode="1" horiz-adv-x="522" d="M174 0V1386H67L59 1470L220 1600H412V0H174Z" />
<glyph unicode="2" horiz-adv-x="905" d="M84 0Q83 37 83 64T82 113T81 162T80 225T82 316Q85 433 118 521T212 675T363 789L489 860Q560 901 579 956T602 1062Q605 1121 606 1187T603 1315Q599 1372 562 1400T453 1429Q380 1429 348 1400T314 1321Q311 1245 311
1173T314 1019H84Q82 1070 81 1114T80 1197T80 1275Q88 1459 176 1538T453 1617Q587 1617 669 1583T791 1473T835 1275Q836 1251 836 1223T837 1165T837 1108T835 1060Q831 958 799 884T709 755T575 657L434 578Q391 554 366 511T329 416T318 316V203H822V0H84Z"
/>
<glyph unicode="3" horiz-adv-x="907" d="M459 -17Q257 -17 164 62T64 326Q63 366 63 396T62 460T64 540H298V297Q298 237 337 204T453 171Q527 171 563 202T600 296Q603 382 603 453T600 593Q597 655 563 695T434 734L264 733L257 926L563 1397H76V1600H830L828
1406L512 933Q673 924 749 845T834 587Q835 553 835 518T836 449T836 384T834 327Q825 142 738 63T459 -17Z" />
<glyph unicode="4" horiz-adv-x="934" d="M498 0V439H44V629L399 1600H717V641H886V439H717V0H498ZM267 641H498L528 1036L555 1397H503L396 1036L267 641Z" />
<glyph unicode="5" horiz-adv-x="930" d="M478 -17Q273 -17 182 63T86 326Q84 397 84 445T87 540H320Q317 507 316 460T314 369T317 299Q322 233 361 202T471 171Q545 171 582 202T623 298Q631 410 632 508T626 693Q621 755 587 784T486 813Q440 813 405 797T350
755T329 697H109V1600H838V1397H341V902H381Q405 945 461 974T590 1004Q721 1004 786 924T858 703Q862 643 862 578T862 448T856 328Q846 204 806 128T686 18T478 -17Z" />
<glyph unicode="6" horiz-adv-x="928" d="M467 -18Q268 -18 182 62T92 325Q91 481 90 620T89 881T90 1101T92 1275Q100 1450 195 1533T465 1617Q645 1617 740 1530T840 1286Q842 1256 842 1228T842 1168T840 1098H609Q611 1136 611 1168T612 1236T609 1316Q607
1371 572 1399T466 1428Q398 1428 363 1401T326 1317Q323 1224 321 1115T318 885H364Q391 930 450 958T581 987Q728 987 788 919T851 687Q853 610 854 557T855 451T850 325Q840 141 753 62T467 -18ZM468 171Q540 171 578 199T617 285Q619 346 620 395T621 489T622
580T620 681Q619 740 581 768T480 796Q412 796 367 767T318 684Q318 590 319 491T324 290Q326 228 363 200T468 171Z" />
<glyph unicode="7" horiz-adv-x="829" d="M127 0L561 1397H25V1600H794V1394L369 0H127Z" />
<glyph unicode="8" horiz-adv-x="922" d="M461 -17Q262 -17 178 65T85 326Q84 361 84 393T84 464T88 555Q97 654 135 711T251 801V837Q193 858 154 903T103 1019Q98 1065 95 1109T92 1195T93 1274Q103 1457 185 1537T461 1617Q648 1617 734 1538T829 1273Q831
1239 830 1194T826 1103T819 1022Q807 949 768 903T670 837V800Q741 768 781 711T833 558Q839 484 839 429T835 326Q827 143 742 63T461 -17ZM461 171Q534 171 568 202T603 297Q603 348 603 393T604 484T603 580Q602 644 568 676T461 708Q388 708 354 677T319 580Q318
507 318 438T319 298Q320 236 353 204T461 171ZM461 927Q532 927 567 959T603 1055Q603 1118 603 1180T603 1303Q602 1366 568 1397T461 1429Q390 1429 355 1398T319 1304Q318 1267 318 1237T317 1178T318 1120T319 1054Q320 989 355 958T461 927Z" />
<glyph unicode="9" horiz-adv-x="927" d="M470 -18Q276 -18 188 61T98 324Q98 345 98 376T98 441T100 500H332Q331 447 330 394T332 285Q334 229 365 200T467 171Q530 171 564 198T602 286Q606 373 607 480T610 709H571Q548 665 495 636T366 606Q288 606 222 638T115
739T74 920Q74 976 74 1029T74 1128T74 1212T76 1273Q83 1458 173 1537T459 1617Q658 1617 743 1537T833 1273Q837 1085 838 933T838 635T833 324Q830 141 743 62T470 -18ZM455 797Q525 797 564 823T609 897Q608 1003 607 1110T600 1318Q599 1374 562 1401T458
1428Q386 1428 348 1401T309 1315Q309 1298 309 1244T308 1124T307 998T307 912Q309 854 349 826T455 797Z" />
<glyph unicode=":" horiz-adv-x="482" d="M76 600V836H407V600H76ZM76 0V236H407V0H76Z" />
<glyph unicode=";" horiz-adv-x="495" d="M134 -250L251 0H87V240H420V22L270 -250H134ZM76 602V838H407V602H76Z" />
<glyph unicode="&lt;" horiz-adv-x="1112" d="M992 475L120 604V887L992 1021V832L564 783L294 771V722L564 710L992 663V475Z" />
<glyph unicode="=" horiz-adv-x="994" d="M93 815V991H901V815H93ZM93 492V668H901V492H93Z" />
<glyph unicode="&gt;" horiz-adv-x="1058" d="M93 475V663L521 710L791 722V771L521 783L93 832V1021L965 887V604L93 475Z" />
<glyph unicode="?" horiz-adv-x="893" d="M327 407L322 551Q318 622 327 675T371 774T479 862L520 884Q547 899 560 925T577 986T581 1062V1304Q581 1358 547 1386T443 1414Q379 1414 346 1387T309 1304Q305 1241 305 1172T308 1041H60Q58 1093 57 1127T56 1191T58
1260Q69 1453 156 1536T441 1620Q652 1620 744 1536T836 1260Q836 1214 836 1179T836 1116T837 1061Q836 957 819 894T773 795T712 741T645 706L596 683Q552 662 543 626T528 550L520 407H327ZM259 0V236H590V0H259Z" />
<glyph unicode="@" horiz-adv-x="1293" d="M646 -286Q455 -286 335 -247T158 -122T98 103Q95 225 94 336T92 561T93 800T98 1076Q100 1220 156 1309T333 1441T646 1483Q835 1483 954 1442T1133 1311T1196 1075Q1198 971 1198 880T1199 705T1198 541T1195 378Q1192
286 1129 241T954 195Q839 195 789 223T722 290H686Q662 246 633 220T547 194Q472 194 433 241T386 400Q382 461 381 534T381 681T386 812Q392 926 432 975T550 1024Q603 1024 631 1000T685 927H710V1011H891L892 382Q892 348 908 331T954 313Q981 313 995 330T1012
383Q1015 450 1016 529T1018 698T1019 884T1014 1085Q1009 1214 925 1271T646 1329Q457 1329 372 1274T282 1085Q278 943 276 818T274 576T276 340T282 93Q286 -29 370 -80T646 -132Q834 -132 919 -85T1005 85Q1006 102 1006 112T1005 137H1185Q1186 126 1186 115T1185
87Q1184 -50 1129 -132T955 -250T646 -286ZM622 323Q645 323 671 340T710 382V831Q699 860 671 876T622 893Q593 893 582 877T568 829Q564 746 563 676T562 538T568 390Q570 352 583 338T622 323Z" />
<glyph unicode="A" horiz-adv-x="902" d="M45 0L242 1600H661L857 0H623L585 393H317L280 0H45ZM338 597H564L531 943L497 1397H406L371 943L338 597Z" />
<glyph unicode="B" horiz-adv-x="915" d="M111 0V1600H465Q657 1600 744 1524T832 1273Q832 1209 832 1160T830 1063Q824 966 787 909T669 828V789Q753 764 791 707T834 550Q837 489 837 439T834 328Q827 153 743 77T468 0H111ZM340 205H468Q539 205 571 235T605
330Q606 387 606 435T605 540Q604 633 574 670T470 707H340V205ZM340 912H473Q540 912 571 950T603 1068Q604 1126 604 1176T603 1284Q602 1342 570 1369T465 1397H340V912Z" />
<glyph unicode="C" horiz-adv-x="934" d="M473 -17Q277 -17 189 61T97 321Q95 451 94 568T93 800T94 1032T97 1280Q99 1456 190 1536T473 1616Q663 1616 752 1535T848 1279Q850 1236 850 1193T849 1108T846 1022H617Q619 1068 619 1112T620 1200T619 1290Q617
1365 584 1395T473 1426Q396 1426 362 1396T326 1290Q323 1156 322 1036T320 800T321 565T326 311Q328 235 362 204T473 172Q555 172 589 203T627 311Q629 355 629 395T629 481T626 588H855Q858 516 858 449T856 321Q850 139 761 61T473 -17Z" />
<glyph unicode="D" horiz-adv-x="937" d="M111 0V1600H474Q667 1600 752 1522T840 1262Q843 1097 844 949T844 653T840 339Q837 158 753 79T480 0H111ZM340 203H480Q548 203 579 230T611 315Q615 446 616 565T618 801T617 1037T611 1287Q610 1343 578 1370T474
1397H340V203Z" />
<glyph unicode="E" horiz-adv-x="798" d="M111 0V1600H742V1397H340V911H722V708H340V203H742V0H111Z" />
<glyph unicode="F" horiz-adv-x="786" d="M111 0V1600H748V1397H340V911H728V708H340V0H111Z" />
<glyph unicode="G" horiz-adv-x="938" d="M476 -17Q344 -17 262 17T141 126T98 322Q95 432 94 552T93 797T94 1040T98 1267Q103 1392 142 1469T262 1581T476 1617Q668 1617 754 1539T849 1279Q852 1218 852 1152T849 1023H620Q623 1098 623 1163T620 1304Q617
1373 586 1400T476 1427Q395 1427 363 1400T328 1304Q322 1176 320 1051T318 801T320 551T328 298Q331 228 363 201T476 173Q561 173 594 200T632 298Q634 334 634 373T635 451T632 526H498V728H856Q860 620 859 517T854 322Q847 140 760 62T476 -17Z" />
<glyph unicode="H" horiz-adv-x="952" d="M111 0V1600H340V911H613V1600H842V0H613V708H340V0H111Z" />
<glyph unicode="I" horiz-adv-x="451" d="M111 0V1600H340V0H111Z" />
<glyph unicode="J" horiz-adv-x="860" d="M402 -17Q279 -17 203 17T90 126T49 322Q47 389 47 456T49 589H266Q264 544 264 494T263 393T266 298Q268 229 298 201T402 173Q478 173 508 201T539 298V1600H768V322Q768 140 683 62T402 -17Z" />
<glyph unicode="K" horiz-adv-x="917" d="M111 0V1600H353L351 1218L328 804H389L509 1235L637 1600H886L635 913L905 0H671L480 665L344 360V0H111Z" />
<glyph unicode="L" horiz-adv-x="741" d="M111 0V1600H340V203H722V0H111Z" />
<glyph unicode="M" horiz-adv-x="1493" d="M111 0V1600H553L666 969L711 207H784L827 969L942 1600H1383V0H1147V496L1186 1397H1097L1003 466L897 3H589L492 466L397 1397H309L347 496V0H111Z" />
<glyph unicode="N" horiz-adv-x="1122" d="M111 0V1600H520L624 1092L746 204H835L797 974L781 1600H1011V0H585L476 549L379 1398H287L322 606L340 0H111Z" />
<glyph unicode="O" horiz-adv-x="947" d="M472 -17Q275 -17 188 62T97 327Q95 459 94 575T93 803T94 1029T97 1274Q101 1458 188 1537T472 1617Q667 1617 754 1538T846 1274Q851 1144 852 1029T854 802T853 574T846 327Q841 142 754 63T472 -17ZM472 173Q551 173
583 205T617 316Q622 448 624 567T627 800T625 1034T617 1285Q616 1363 584 1395T472 1427Q394 1427 361 1395T326 1285Q321 1155 319 1037T317 804T319 570T326 316Q328 237 361 205T472 173Z" />
<glyph unicode="P" horiz-adv-x="894" d="M111 0V1600H472Q659 1600 742 1525T831 1276Q835 1167 835 1078T831 891Q825 718 742 643T471 567H340V0H111ZM340 770H471Q539 770 569 797T602 880Q606 943 607 1010T607 1146T602 1287Q600 1344 570 1370T472 1397H340V770Z" />
<glyph unicode="Q" horiz-adv-x="947" d="M769 -279Q612 -290 534 -229T440 -17Q260 -10 181 70T97 327Q95 459 94 575T93 803T94 1029T97 1274Q101 1458 188 1537T472 1617Q667 1617 754 1538T846 1274Q851 1144 852 1029T854 802T853 574T846 327Q843 196 799
120T660 12Q657 -49 684 -74T769 -93V-279ZM472 173Q551 173 583 205T617 316Q622 448 624 567T627 800T625 1034T617 1285Q616 1363 584 1395T472 1427Q394 1427 361 1395T326 1285Q321 1155 319 1037T317 804T319 570T326 316Q328 237 361 205T472 173Z" />
<glyph unicode="R" horiz-adv-x="911" d="M111 0V1600H464Q651 1600 734 1525T824 1276Q827 1200 827 1141T828 1024T824 900Q820 788 785 719T675 614L850 0H608L458 576H340V0H111ZM340 779H463Q531 779 561 806T595 889Q598 959 599 1023T600 1152T595 1287Q592
1344 562 1370T464 1397H340V779Z" />
<glyph unicode="S" horiz-adv-x="909" d="M456 -17Q263 -17 177 61T83 322Q82 367 82 411T83 499T89 589H306Q302 509 301 433T306 284Q310 226 346 200T456 173Q525 173 560 199T600 284Q604 323 605 365T605 449T600 529Q597 591 566 628T477 679L329 714Q236
736 182 780T105 895T78 1066Q77 1120 77 1173T79 1280Q83 1401 122 1475T243 1583T456 1617Q646 1617 731 1539T823 1279Q825 1226 824 1158T820 1023H599Q602 1103 603 1175T601 1317Q599 1375 564 1401T455 1427Q384 1427 349 1401T308 1317Q303 1253 303 1192T308
1066Q312 1003 334 966T409 917L543 888Q646 865 708 820T798 702T831 529Q832 497 832 461T831 390T829 322Q822 140 736 62T456 -17Z" />
<glyph unicode="T" horiz-adv-x="773" d="M272 0V1397H12V1600H761V1397H501V0H272Z" />
<glyph unicode="U" horiz-adv-x="940" d="M471 -17Q272 -17 186 61T97 320Q93 640 93 960T97 1600H326Q323 1387 322 1168T322 729T325 296Q325 234 360 205T471 175Q546 175 580 204T615 296Q616 509 617 728T619 1167T615 1600H844Q848 1281 848 961T844 320Q842
140 756 62T471 -17Z" />
<glyph unicode="V" horiz-adv-x="919" d="M247 0L43 1600H280L387 753L415 204H503L532 753L638 1600H876L671 0H247Z" />
<glyph unicode="W" horiz-adv-x="1514" d="M186 0L55 1600H286L329 933L365 204H451L471 933L578 1590H935L1041 933L1061 204H1148L1184 933L1229 1600H1459L1327 0H900L837 486L799 1394H715L676 486L612 0H186Z" />
<glyph unicode="X" horiz-adv-x="851" d="M27 0L246 824L35 1600H259L351 1224L391 917H463L503 1224L592 1600H817L613 817L824 0H600L504 395L463 713H391L350 395L252 0H27Z" />
<glyph unicode="Y" horiz-adv-x="828" d="M299 0V532H257L27 1600H261L339 1180L385 716H443L488 1180L566 1600H801L569 532H528V0H299Z" />
<glyph unicode="Z" horiz-adv-x="753" d="M33 0V191L475 1397H57V1600H720V1404L266 203H687V0H33Z" />
<glyph unicode="[" horiz-adv-x="663" d="M93 -400V1600H603V1487H328V-287H603V-400H93Z" />
<glyph unicode="\" horiz-adv-x="736" d="M676 -400H444L7 1600H239L676 -400Z" />
<glyph unicode="]" horiz-adv-x="663" d="M570 -400H60V-287H335V1487H60V1600H570V-400Z" />
<glyph unicode="^" horiz-adv-x="846" d="M93 892L342 1379H503L753 892H594L422 1229L251 892H93Z" />
<glyph unicode="_" horiz-adv-x="1352" d="M60 -120V-80H1292V-120H60Z" />
<glyph unicode="`" horiz-adv-x="541" d="M262 1280L87 1536H256L422 1280H262Z" />
<glyph unicode="a" horiz-adv-x="891" d="M331 -14Q205 -14 141 47T65 248Q64 269 64 295T64 341Q70 418 97 475T185 577T346 663Q400 684 453 702T568 737V930Q568 990 539 1017T444 1044Q387 1044 356 1021T321 942Q320 922 320 884T319 809T321 760H98Q97 788
96 831T96 915Q101 1020 135 1086T246 1185T452 1217Q583 1217 657 1183T762 1074T793 880L792 0H564V121H530Q498 54 457 20T331 -14ZM415 152Q466 152 505 178T565 250L567 575Q527 564 485 550T400 512Q336 481 317 438T295 341Q294 315 294 300T296 264Q301
211 331 182T415 152Z" />
<glyph unicode="b" horiz-adv-x="934" d="M588 -17Q497 -17 451 18T364 121H336V0H103V1600H336V1080H379Q418 1148 465 1182T603 1217Q722 1217 783 1150T850 922Q852 859 853 775T855 601T854 427T850 278Q844 120 777 52T588 -17ZM508 152Q566 152 590 178T617
259Q620 336 622 419T624 590T624 765T618 938Q616 993 592 1020T508 1048Q452 1048 405 1022T336 947V254Q358 203 407 178T508 152Z" />
<glyph unicode="c" horiz-adv-x="870" d="M567 761Q568 787 568 819T569 884T567 940Q565 995 539 1019T443 1044Q375 1044 348 1020T318 939Q315 847 314 764T312 600T313 438T318 266Q320 206 349 181T446 156Q514 156 539 182T567 267Q569 303 569 343T567
443H794Q797 419 797 372T796 291Q789 127 708 55T446 -17Q256 -17 175 55T84 291Q82 350 81 432T79 602T80 771T84 906Q95 1074 178 1145T443 1217Q626 1217 708 1147T796 915Q798 878 798 831T794 761H567Z" />
<glyph unicode="d" horiz-adv-x="935" d="M336 -17Q215 -17 154 51T84 278Q81 344 80 429T79 605T81 777T84 922Q91 1082 156 1149T340 1217Q430 1217 477 1183T563 1080H599V1600H832V0H599V121H561Q523 53 474 18T336 -17ZM427 152Q480 152 529 178T599 254V947Q578
997 529 1022T428 1048Q372 1048 347 1023T318 947Q313 834 312 714T311 477T317 262Q320 203 345 178T427 152Z" />
<glyph unicode="e" horiz-adv-x="868" d="M447 -17Q257 -17 176 56T84 291Q82 351 81 432T79 602T80 770T84 906Q95 1074 179 1145T444 1217Q627 1217 708 1146T797 915Q798 891 798 832T799 698T795 559H312Q312 489 313 417T317 266Q319 206 349 182T446 157Q511
157 537 181T567 267Q569 297 569 341T567 443H795Q797 420 798 372T797 291Q789 126 709 55T447 -17ZM313 723H569Q570 768 570 812T570 891T567 939Q564 997 536 1020T444 1044Q375 1044 347 1019T317 939Q316 884 315 830T313 723Z" />
<glyph unicode="f" horiz-adv-x="642" d="M155 0V1025H29V1200H155V1311Q154 1476 241 1547T514 1619Q547 1619 587 1616T662 1606V1437Q628 1438 591 1439T515 1440Q451 1440 419 1414T388 1329V1200H618V1025H388V0H155Z" />
<glyph unicode="g" horiz-adv-x="936" d="M433 -370Q278 -370 188 -325T82 -193Q80 -179 79 -162T79 -132Q84 -78 121 -45T213 -3V31Q156 43 128 71T95 142Q93 156 93 168T94 194Q99 236 135 263T227 299V334Q153 367 117 434T75 611Q73 644 72 683T71 763T72
841T75 905Q83 1018 121 1086T237 1186T437 1217Q560 1217 636 1187T750 1089H784Q792 1145 828 1172T934 1200V1025H907Q857 1025 828 998T799 904V852Q799 840 799 811T799 746T800 674T797 610Q790 498 752 430T638 330T437 299Q349 299 308 284T267 234V225Q267
203 281 190T333 170T439 163Q629 158 721 104T830 -64Q832 -79 832 -99T830 -141Q819 -226 772 -276T639 -348T433 -370ZM444 -211Q502 -211 544 -203T612 -176T644 -126Q649 -111 649 -99T643 -72Q636 -44 613 -28T549 -3T444 5Q365 6 318 -10T261 -74Q259 -91
259 -102T261 -127Q268 -158 291 -176T353 -203T444 -211ZM437 471Q504 471 536 498T572 581Q574 612 575 658T577 756T576 855T572 935Q569 990 537 1017T438 1044Q369 1044 336 1017T299 930Q298 899 297 853T295 758T296 663T299 586Q303 528 336 500T437 471Z"
/>
<glyph unicode="h" horiz-adv-x="951" d="M103 0V1600H336V1080H379Q418 1148 465 1182T603 1217Q726 1217 788 1148T850 922L853 0H620L618 941Q618 997 593 1022T509 1048Q452 1048 405 1022T336 947V0H103Z" />
<glyph unicode="i" horiz-adv-x="434" d="M90 1407V1600H345V1407H90ZM103 0V1200H332V0H103Z" />
<glyph unicode="j" horiz-adv-x="436" d="M94 1407V1600H348V1407H94ZM-28 -419Q-61 -419 -103 -416T-179 -406V-235Q-151 -236 -108 -237T-29 -239Q39 -239 71 -213T103 -132V1200H333V-111Q333 -275 247 -347T-28 -419Z" />
<glyph unicode="k" horiz-adv-x="843" d="M103 0V1600H320V1293L295 708H336L444 985L555 1200H796L548 731L845 0H605L403 501L326 376V0H103Z" />
<glyph unicode="l" horiz-adv-x="434" d="M103 0V1600H332V0H103Z" />
<glyph unicode="m" horiz-adv-x="1424" d="M103 0V1200H333V1080H376Q414 1146 458 1181T591 1217Q676 1217 733 1182T815 1065H853Q891 1132 943 1174T1084 1217Q1201 1217 1263 1149T1326 922V0H1095V941Q1095 998 1067 1023T988 1048Q939 1048 899 1020T835
945V0H603V941Q603 997 577 1022T497 1048Q445 1048 399 1021T333 947V0H103Z" />
<glyph unicode="n" horiz-adv-x="951" d="M103 0V1200H333V1080H379Q418 1147 467 1182T603 1217Q726 1217 789 1148T853 922V0H624V941Q623 997 595 1022T509 1048Q457 1048 405 1021T333 947V0H103Z" />
<glyph unicode="o" horiz-adv-x="902" d="M452 -17Q322 -17 244 17T128 126T84 324Q82 374 81 444T79 594T80 747T84 877Q92 1001 129 1076T244 1184T452 1217Q585 1217 662 1183T775 1073T818 877Q820 824 821 753T823 604T822 453T818 324Q811 201 775 126T662
17T452 -17ZM452 156Q526 156 556 184T588 269Q591 359 592 441T594 603T593 764T588 932Q586 990 556 1017T452 1044Q380 1044 348 1015T313 930Q311 860 310 780T308 615T309 444T315 271Q317 212 348 184T452 156Z" />
<glyph unicode="p" horiz-adv-x="934" d="M103 -400V1200H336V1080H371Q411 1148 457 1182T596 1217Q716 1217 780 1149T850 922Q852 866 853 780T855 599T854 419T850 278Q844 120 774 52T584 -17Q513 -17 464 14T371 121H336V-400H103ZM495 152Q552 152 583
178T617 259Q622 355 623 444T625 617T623 783T617 947Q615 998 589 1023T508 1048Q452 1048 405 1022T336 947V254Q360 198 398 175T495 152Z" />
<glyph unicode="q" horiz-adv-x="934" d="M598 -400V121H566Q523 46 474 15T353 -17Q232 -17 162 51T84 278Q81 340 80 426T79 604T80 780T84 922Q91 1081 154 1149T339 1217Q430 1217 477 1183T561 1080H598V1200H832V-400H598ZM440 152Q499 152 537 175T598
254V947Q578 997 529 1022T427 1048Q374 1048 346 1024T316 939Q312 837 311 716T311 475T317 259Q320 204 352 178T440 152Z" />
<glyph unicode="r" horiz-adv-x="659" d="M103 0V1200H338V1065H382Q397 1144 442 1175T563 1206Q586 1206 608 1205T647 1202V1025H566Q468 1025 412 996T338 894V0H103Z" />
<glyph unicode="s" horiz-adv-x="825" d="M407 -17Q229 -17 155 55T73 291Q72 332 72 368T75 431H281Q278 372 279 334T280 266Q283 205 313 181T407 156Q479 156 511 181T545 267Q545 295 545 307T545 330T545 367Q544 417 527 445T461 486L330 521Q242 545 185
582T98 677T68 823Q68 848 68 866T68 905Q70 1072 148 1144T418 1217Q595 1217 670 1147T752 913Q753 892 753 844T749 772H536Q538 798 538 830T538 891T537 940Q534 997 509 1020T418 1044Q351 1044 325 1021T296 939Q296 928 295 906T294 843Q295 787 312 754T385
706L502 677Q633 647 697 579T761 377Q761 353 761 332T760 285Q758 124 678 54T407 -17Z" />
<glyph unicode="t" horiz-adv-x="640" d="M510 -17Q309 -17 225 54T140 294L138 1025H31V1200H144V1540H376V1200H593V1025H370L372 267Q372 201 402 178T511 155Q540 155 563 156T616 159V-7Q592 -11 567 -14T510 -17Z" />
<glyph unicode="u" horiz-adv-x="945" d="M351 -17Q230 -17 163 52T95 279V1200H326L328 259Q328 204 353 178T436 152Q490 152 539 179T609 254V1200H842V0H609V121H575Q533 47 479 15T351 -17Z" />
<glyph unicode="v" horiz-adv-x="818" d="M208 0L29 1200H267L338 596L372 171H444L479 596L552 1200H789L607 0H208Z" />
<glyph unicode="w" horiz-adv-x="1371" d="M177 0L29 1200H263L312 596L341 171H414L431 596L488 1197H885L937 596L958 171H1028L1056 596L1110 1200H1343L1191 0H789L752 465L725 1026H646L619 465L583 0H177Z" />
<glyph unicode="x" horiz-adv-x="773" d="M21 0L225 627L25 1200H252L326 947L363 720H410L448 947L521 1200H748L549 623L752 0H525L445 307L409 552H365L329 307L248 0H21Z" />
<glyph unicode="y" horiz-adv-x="835" d="M211 -416Q179 -416 138 -412T61 -403V-231Q88 -233 133 -234T209 -236Q294 -236 325 -212T367 -125L388 0H245L42 1200H280L340 640L394 171H461L509 640L566 1200H804L600 -108Q584 -209 546 -277T430 -381T211 -416Z" />
<glyph unicode="z" horiz-adv-x="743" d="M43 0V146L457 1029L52 1028V1199L707 1200V1049L286 171H698V0H43Z" />
<glyph unicode="{" horiz-adv-x="732" d="M672 -403Q549 -403 450 -369T292 -258T233 -55Q233 -32 234 12T237 111T242 218T246 311T248 369Q248 450 217 471T131 493H60V701H131Q186 701 217 723T248 826Q248 843 247 884T243 977T239 1084T236 1184T234 1253Q234
1379 292 1455T450 1566T672 1600V1484Q615 1484 567 1453T491 1370T462 1253Q462 1233 463 1198T466 1121T470 1035T473 955T475 895Q475 784 430 709T293 617V581Q385 565 430 489T475 303Q475 280 474 243T470 163T466 77T463 -1T462 -55Q462 -119 490 -171T567
-255T672 -287V-403Z" />
<glyph unicode="|" horiz-adv-x="416" d="M93 1834H323V-240H93V1834Z" />
<glyph unicode="}" horiz-adv-x="732" d="M60 -403V-287Q118 -287 165 -256T242 -172T271 -55Q271 -36 270 -1T266 76T262 162T259 243T258 303Q258 412 303 488T439 581V617Q348 633 303 708T258 895Q258 918 259 955T262 1035T266 1120T269 1198T271 1253Q271
1317 242 1369T166 1453T60 1484V1600Q183 1600 282 1566T440 1456T499 1253Q499 1229 498 1184T494 1085T490 978T487 884T485 826Q485 745 516 723T601 701H672V493H601Q547 493 516 472T485 369Q485 351 486 311T490 219T494 112T498 13T500 -55Q500 -181 442
-257T283 -368T60 -403Z" />
<glyph unicode="~" horiz-adv-x="1033" d="M676 603Q617 605 574 624T497 669T429 714T355 737Q300 742 267 710T229 619H93Q103 776 178 844T365 907Q429 905 472 886T548 841T611 797T682 776Q737 773 770 801T805 881H940Q934 734 862 667T676 603Z" />
<glyph unicode="&#xa0;" horiz-adv-x="427" />
<glyph unicode="&#xa1;" horiz-adv-x="504" d="M145 822H316L346 265V-400H114V265L145 822ZM64 1200H395V964H64V1200Z" />
<glyph unicode="&#xa2;" horiz-adv-x="870" d="M337 0V190Q211 208 152 280T84 491Q81 547 80 633T79 812T81 984T84 1106Q93 1247 152 1319T337 1410V1600H541V1412Q671 1395 731 1324T796 1115Q798 1081 797 1033T794 961H567Q568 987 568 1020T569 1086T567
1140Q565 1195 539 1219T443 1244Q375 1244 347 1220T317 1139Q315 1047 314 964T312 800T313 638T317 466Q319 406 348 381T446 356Q513 356 539 382T567 467Q569 500 569 541T567 643H794Q796 619 797 572T796 491Q790 350 731 278T541 189V0H337Z" />
<glyph unicode="&#xa3;" horiz-adv-x="975" d="M132 0V197Q168 219 192 272T228 407T240 593Q240 640 236 681T225 757H93V878H195Q179 936 163 994T136 1121T126 1277Q127 1437 214 1527T496 1617Q689 1617 774 1538T864 1275Q866 1233 866 1198T866 1122T863
1019H632Q633 1048 633 1089T634 1175T634 1257T633 1316Q632 1373 598 1400T496 1428Q428 1428 393 1401T358 1316Q358 1238 371 1168T404 1027T439 878H635V757H456Q460 727 462 695T465 626Q465 490 434 392T351 237V203H882V0H132Z" />
<glyph unicode="&#xa4;" horiz-adv-x="1121" d="M199 49L98 132L241 306Q220 344 209 395T194 510Q191 560 190 631T189 781T190 934T194 1063Q197 1128 209 1179T243 1269L93 1446L189 1528L332 1360Q412 1404 561 1404Q706 1404 786 1362L929 1526L1025 1441L878
1272Q900 1233 912 1182T927 1063Q930 1010 931 939T933 790T932 640T927 510Q924 442 912 390T877 297L1010 134L912 49L780 208Q703 169 561 169Q413 169 332 213L199 49ZM561 343Q636 343 665 371T697 456Q700 546 702 628T704 789T702 950T697 1119Q695 1176
665 1203T561 1230Q489 1230 457 1201T423 1117Q420 1046 419 967T417 802T419 630T424 457Q426 399 457 371T561 343Z" />
<glyph unicode="&#xa5;" horiz-adv-x="828" d="M300 0V171H126V291H300V360H126V481H300V532H258L27 1600H262L344 1180L385 716H443L485 1180L566 1600H801L569 532H528V481H705V360H528V291H705V171H528V0H300Z" />
<glyph unicode="&#xa6;" horiz-adv-x="416" d="M93 1834H323V1016H93V1834ZM93 536H323V-240H93V536Z" />
<glyph unicode="&#xa7;" horiz-adv-x="885" d="M435 -417Q316 -417 245 -392T140 -305T101 -133Q100 -108 100 -74T101 -8T103 43H309Q307 0 307 -27T306 -79T308 -137Q311 -196 341 -220T435 -244Q508 -244 539 -220T572 -133Q573 -94 573 -58T573 17Q572 67
558 95T489 137L371 167Q251 198 176 259T96 442Q94 503 94 564T96 694Q98 783 137 837T233 917V955Q174 975 137 1017T95 1148Q93 1188 93 1236T96 1324Q107 1435 139 1495T243 1579T446 1603Q624 1603 698 1533T779 1300Q780 1270 780 1223T777 1132H563Q566
1163 566 1200T567 1271T565 1323Q562 1383 536 1399T446 1415Q378 1415 354 1399T324 1326Q321 1294 320 1241T321 1146Q324 1093 338 1062T412 1018L529 992Q652 965 717 888T789 687Q793 612 793 562T788 445Q783 369 747 319T654 245V216Q717 192 753 139T791
10Q792 -22 792 -62T788 -131Q781 -239 747 -301T637 -390T435 -417ZM450 337Q521 337 547 368T578 448Q582 483 583 527T584 616T579 695Q574 741 548 772T450 804Q380 804 351 774T316 696Q311 634 312 569T317 448Q323 398 351 368T450 337Z" />
<glyph unicode="&#xa8;" horiz-adv-x="681" d="M394 1310V1476H559V1310H394ZM124 1310V1476H289V1310H124Z" />
<glyph unicode="&#xa9;" horiz-adv-x="1326" d="M664 -10Q476 -10 349 58T157 262T93 600Q93 802 157 937T348 1141T664 1210Q946 1210 1089 1057T1233 600Q1233 398 1169 263T979 59T664 -10ZM664 103Q882 103 992 227T1103 600Q1103 848 993 972T664 1097Q444
1097 333 973T222 600Q222 352 333 228T664 103ZM667 211Q549 211 495 258T432 421Q431 453 430 499T429 597T430 694T432 771Q438 887 492 935T665 984Q786 984 837 936T895 778Q897 760 896 742T893 711H752Q754 730 753 753T752 793Q752 838 732 855T665 872Q620
872 600 855T578 792Q576 732 576 664T577 529T578 404Q579 357 600 340T667 322Q712 322 731 340T752 404Q754 423 754 440T752 490H893Q896 472 896 456T895 419Q888 308 837 260T667 211Z" />
<glyph unicode="&#xaa;" horiz-adv-x="775" d="M304 754Q201 754 155 798T95 945Q94 957 94 975T94 1009Q102 1092 151 1143T322 1235Q362 1248 406 1259T500 1283Q500 1314 499 1345T496 1409Q495 1443 477 1462T397 1482Q352 1482 329 1468T300 1413Q299 1405
299 1379T300 1326T302 1291H122Q121 1299 120 1319T119 1362T120 1403Q125 1510 187 1563T404 1617Q510 1617 569 1592T652 1511T680 1366Q681 1326 681 1269T682 1145T682 1010T681 878T680 765H495Q495 789 495 810T497 851H468Q444 805 408 780T304 754ZM375
885Q415 885 449 902T500 950Q501 1006 501 1058T502 1160Q465 1153 430 1143T364 1121Q313 1102 297 1073T277 1010Q276 1000 276 984T278 959Q279 921 307 903T375 885Z" />
<glyph unicode="&#xab;" horiz-adv-x="785" d="M620 842L289 518V735L620 1058V842ZM620 195L289 518V735L620 410V195ZM692 842L361 518V735L692 1058V842ZM692 195L361 518V735L692 410V195Z" />
<glyph unicode="&#xac;" horiz-adv-x="994" d="M722 466V814H93V990H901V466H722Z" />
<glyph unicode="&#xad;" horiz-adv-x="823" d="M60 631V835H763V631H60Z" />
<glyph unicode="&#xae;" horiz-adv-x="920" d="M462 995Q281 995 187 1091T93 1374Q93 1563 187 1659T462 1756Q642 1756 734 1660T827 1374Q827 1188 735 1092T462 995ZM462 1067Q611 1067 682 1142T753 1374Q753 1534 682 1608T462 1683Q312 1683 240 1609T167
1374Q167 1217 239 1142T462 1067ZM353 1176V1600H467Q528 1600 558 1577T591 1495Q592 1489 592 1477T591 1454Q591 1425 576 1405T528 1378V1365Q561 1358 575 1340T590 1288Q591 1274 592 1255T593 1215T591 1176H508Q509 1206 508 1240T506 1300Q505 1340 467
1340H436V1176H353ZM436 1411H469Q487 1411 497 1419T508 1446Q508 1460 508 1472T508 1501Q507 1529 467 1529H436V1411Z" />
<glyph unicode="&#xaf;" horiz-adv-x="889" d="M91 1400H695V1292H91V1400Z" />
<glyph unicode="&#xb0;" horiz-adv-x="664" d="M333 1182Q268 1182 214 1212T126 1291T93 1400Q93 1460 126 1510T213 1590T333 1620Q397 1620 451 1590T538 1510T571 1400Q571 1341 538 1292T451 1212T333 1182ZM333 1279Q390 1279 430 1314T471 1400Q471 1452
431 1488T333 1524Q276 1524 235 1488T193 1400Q193 1350 234 1315T333 1279Z" />
<glyph unicode="&#xb1;" horiz-adv-x="1034" d="M429 500V654H93V827H429V1024H605V827H941V654H605V500H429ZM93 268V410H941V268H93Z" />
<glyph unicode="&#xb2;" horiz-adv-x="608" d="M76 879Q75 946 75 977T76 1034Q78 1108 125 1158T246 1242L322 1277Q353 1291 363 1308T376 1352Q379 1375 379 1393T376 1434Q375 1451 360 1463T310 1476Q249 1476 246 1434Q244 1406 245 1372T248 1320H79Q78
1346 77 1364T77 1413Q82 1512 142 1560T310 1609Q428 1609 488 1559T548 1413Q549 1401 549 1394T549 1377T549 1353Q549 1279 507 1233T388 1155L300 1118Q281 1109 268 1091T254 1052V1024H533V879H76Z" />
<glyph unicode="&#xb3;" horiz-adv-x="614" d="M309 870Q190 870 126 917T61 1055Q61 1066 61 1073T60 1090T62 1114H233Q231 1100 231 1084T232 1056Q233 1033 250 1018T304 1003Q341 1003 358 1016T375 1051Q376 1076 376 1093T375 1132Q374 1161 356 1174T300
1187H190L184 1309L326 1455H75V1600H539L537 1459L378 1313Q458 1304 503 1261T549 1135Q549 1124 549 1108T549 1078T549 1054Q548 966 488 918T309 870Z" />
<glyph unicode="&#xb4;" horiz-adv-x="537" d="M95 1280L275 1536H445L256 1280H95Z" />
<glyph unicode="&#xb5;" horiz-adv-x="964" d="M96 -400L93 1200H325L327 259Q328 204 355 178T437 152Q488 152 537 179T605 254V1200H839V225Q839 152 847 93T871 0H639Q629 22 622 52T611 121H570Q540 66 503 34T416 -8Q372 -16 328 -10V-400H96Z" />
<glyph unicode="&#xb6;" horiz-adv-x="1089" d="M529 -200V735H456Q338 735 261 764T144 868T95 1077Q93 1106 93 1145T93 1216T95 1261Q101 1386 138 1460T253 1567T456 1600H996V1473H902V-200H752V1473H680V-200H529Z" />
<glyph unicode="&#xb7;" horiz-adv-x="352" d="M86 743V923H266V743H86Z" />
<glyph unicode="&#xb8;" horiz-adv-x="488" d="M79 -321V-203H135Q191 -203 212 -180T224 -101L205 0H334L353 -101Q371 -215 318 -268T136 -321H79Z" />
<glyph unicode="&#xb9;" horiz-adv-x="402" d="M138 882V1462H32L28 1519L176 1602H317V882H138Z" />
<glyph unicode="&#xba;" horiz-adv-x="783" d="M391 753Q237 753 172 809T98 1008Q96 1029 95 1064T94 1142T93 1226T94 1305T98 1364Q106 1455 134 1510T222 1591T388 1617Q552 1617 616 1557T687 1364Q689 1340 690 1303T691 1223T692 1138T690 1062T687 1008Q680
920 653 864T565 780T391 753ZM393 887Q453 887 477 906T502 964Q505 1033 506 1088T508 1194T507 1296T502 1409Q501 1446 476 1464T393 1482Q337 1482 311 1464T283 1408Q279 1322 278 1257T277 1124T283 963Q285 924 311 906T393 887Z" />
<glyph unicode="&#xbb;" horiz-adv-x="744" d="M381 842V1058L712 735V518L381 842ZM381 195V410L712 735V518L381 195ZM52 842V1058L383 735V518L52 842ZM52 195V410L383 735V518L52 195Z" />
<glyph unicode="&#xbc;" horiz-adv-x="1100" d="M138 881V1461H32L28 1518L176 1601H317V881H138ZM-109 0L841 1600H1013L61 0H-109ZM968 720V310H1060V166H968V0H807V166H536V304L746 720H968ZM807 310L829 463L848 575H817L768 463L706 310H807Z" />
<glyph unicode="&#xbd;" horiz-adv-x="1128" d="M138 881V1461H32L28 1518L176 1601H317V881H138ZM-109 0L841 1600H1013L61 0H-109ZM596 0Q595 67 595 98T596 155Q598 229 645 279T766 363L842 398Q873 412 883 429T896 473Q899 496 899 514T896 555Q895 572
880 584T830 597Q769 597 766 555Q764 527 765 493T768 441H599Q598 467 597 485T597 534Q602 633 662 681T830 730Q948 730 1008 680T1068 534Q1069 522 1069 515T1069 498T1069 474Q1069 400 1027 354T908 276L820 239Q801 230 788 212T774 173V145H1053V0H596Z"
/>
<glyph unicode="&#xbe;" horiz-adv-x="1366" d="M309 870Q190 870 126 917T61 1055Q61 1066 61 1073T60 1090T62 1114H233Q231 1100 231 1084T232 1056Q233 1033 250 1018T304 1003Q341 1003 358 1016T375 1051Q376 1076 376 1093T375 1132Q374 1161 356 1174T300
1187H190L184 1309L326 1455H75V1600H539L537 1459L378 1313Q458 1304 503 1261T549 1135Q549 1124 549 1108T549 1078T549 1054Q548 966 488 918T309 870ZM157 0L1107 1600H1279L327 0H157ZM1235 720V310H1327V166H1235V0H1074V166H803V304L1013 720H1235ZM1074
310L1096 463L1115 575H1084L1035 463L973 310H1074Z" />
<glyph unicode="&#xbf;" horiz-adv-x="893" d="M452 -420Q242 -420 150 -336T57 -60Q57 -14 57 21T57 84T56 139Q57 244 75 307T120 405T181 460T248 494L297 517Q343 538 352 574T365 650L373 793H567L571 649Q575 579 566 525T522 427T414 338L374 316Q346 301
333 275T316 214T312 138V-104Q312 -157 346 -185T450 -214Q515 -214 548 -186T585 -104Q589 -41 589 28T586 159H834Q836 107 836 73T837 9T835 -60Q825 -253 738 -336T452 -420ZM303 964V1200H634V964H303Z" />
<glyph unicode="&#xc0;" horiz-adv-x="902" d="M45 0L242 1600H661L857 0H623L585 393H317L280 0H45ZM338 597H564L531 943L497 1397H406L371 943L338 597ZM349 1680L174 1936H343L509 1680H349Z" />
<glyph unicode="&#xc1;" horiz-adv-x="902" d="M45 0L242 1600H661L857 0H623L585 393H317L280 0H45ZM338 597H564L531 943L497 1397H406L371 943L338 597ZM380 1680L560 1936H730L541 1680H380Z" />
<glyph unicode="&#xc2;" horiz-adv-x="902" d="M45 0L242 1600H661L857 0H623L585 393H317L280 0H45ZM338 597H564L531 943L497 1397H406L371 943L338 597ZM211 1682L377 1938H520L686 1682H528L449 1815L369 1682H211Z" />
<glyph unicode="&#xc3;" horiz-adv-x="902" d="M45 0L242 1600H661L857 0H623L585 393H317L280 0H45ZM338 597H564L531 943L497 1397H406L371 943L338 597ZM605 1876H702Q698 1776 659 1731T550 1685Q506 1685 480 1698T436 1730T400 1761T356 1775Q329 1775 316
1757T297 1697H200Q208 1804 248 1850T359 1896Q404 1896 429 1883T471 1852T505 1821T550 1807Q580 1807 592 1825T605 1876Z" />
<glyph unicode="&#xc4;" horiz-adv-x="902" d="M45 0L242 1600H661L857 0H623L585 393H317L280 0H45ZM338 597H564L531 943L497 1397H406L371 943L338 597ZM503 1710V1876H668V1710H503ZM233 1710V1876H398V1710H233Z" />
<glyph unicode="&#xc5;" horiz-adv-x="902" d="M45 0L242 1600H661L857 0H623L585 393H317L280 0H45ZM338 597H564L531 943L497 1397H406L371 943L338 597ZM451 1670Q373 1670 317 1726T261 1860Q261 1939 317 1994T451 2050Q530 2050 585 1995T641 1860Q641 1782
585 1726T451 1670ZM451 1795Q479 1795 498 1814T517 1860Q517 1888 498 1907T451 1926Q425 1926 406 1907T386 1860Q386 1834 405 1815T451 1795Z" />
<glyph unicode="&#xc6;" horiz-adv-x="1305" d="M45 0L356 1600H1249V1397H848V911H1229V708H848V203H1249V0H619V389H370L294 0H45ZM412 592H619V1397H532L471 886L412 592Z" />
<glyph unicode="&#xc7;" horiz-adv-x="934" d="M473 -17Q277 -17 189 61T97 321Q95 451 94 568T93 800T94 1032T97 1280Q99 1456 190 1536T473 1616Q663 1616 752 1535T848 1279Q850 1236 850 1193T849 1108T846 1022H617Q619 1068 619 1112T620 1200T619 1290Q617
1365 584 1395T473 1426Q396 1426 362 1396T326 1290Q323 1156 322 1036T320 800T321 565T326 311Q328 235 362 204T473 172Q555 172 589 203T627 311Q629 355 629 395T629 481T626 588H855Q858 516 858 449T856 321Q850 139 761 61T473 -17ZM278 -307V-189H334Q390
-189 411 -166T423 -87L404 14H533L552 -87Q570 -201 517 -254T335 -307H278Z" />
<glyph unicode="&#xc8;" horiz-adv-x="798" d="M111 0V1600H742V1397H340V911H722V708H340V203H742V0H111ZM323 1679L148 1935H317L483 1679H323Z" />
<glyph unicode="&#xc9;" horiz-adv-x="798" d="M111 0V1600H742V1397H340V911H722V708H340V203H742V0H111ZM354 1679L534 1935H704L515 1679H354Z" />
<glyph unicode="&#xca;" horiz-adv-x="798" d="M111 0V1600H742V1397H340V911H722V708H340V203H742V0H111ZM185 1681L351 1937H494L660 1681H502L423 1814L343 1681H185Z" />
<glyph unicode="&#xcb;" horiz-adv-x="798" d="M111 0V1600H742V1397H340V911H722V708H340V203H742V0H111ZM478 1709V1875H643V1709H478ZM208 1709V1875H373V1709H208Z" />
<glyph unicode="&#xcc;" horiz-adv-x="451" d="M111 0V1600H340V0H111ZM123 1680L-52 1936H117L283 1680H123Z" />
<glyph unicode="&#xcd;" horiz-adv-x="451" d="M111 0V1600H340V0H111ZM154 1680L334 1936H504L315 1680H154Z" />
<glyph unicode="&#xce;" horiz-adv-x="451" d="M111 0V1600H340V0H111ZM-15 1682L151 1938H294L460 1682H302L223 1815L143 1682H-15Z" />
<glyph unicode="&#xcf;" horiz-adv-x="451" d="M111 0V1600H340V0H111ZM278 1710V1876H443V1710H278ZM8 1710V1876H173V1710H8Z" />
<glyph unicode="&#xd0;" horiz-adv-x="1009" d="M81 946H527V829H81V946ZM183 0V1600H547Q739 1600 824 1522T913 1262Q916 1097 917 949T917 653T913 339Q909 158 825 79T552 0H183ZM412 203H552Q620 203 651 230T683 315Q687 446 688 565T690 801T689 1037T683
1287Q682 1343 650 1370T547 1397H412V203Z" />
<glyph unicode="&#xd1;" horiz-adv-x="1122" d="M111 0V1600H520L624 1092L746 204H835L797 974L781 1600H1011V0H585L476 549L379 1398H287L322 606L340 0H111ZM721 1876H818Q814 1776 775 1731T666 1685Q622 1685 596 1698T552 1730T516 1761T472 1775Q445 1775
432 1757T413 1697H316Q324 1804 364 1850T475 1896Q520 1896 545 1883T587 1852T621 1821T666 1807Q696 1807 708 1825T721 1876Z" />
<glyph unicode="&#xd2;" horiz-adv-x="947" d="M472 -17Q275 -17 188 62T97 327Q95 459 94 575T93 803T94 1029T97 1274Q101 1458 188 1537T472 1617Q667 1617 754 1538T846 1274Q851 1144 852 1029T854 802T853 574T846 327Q841 142 754 63T472 -17ZM472 173Q551
173 583 205T617 316Q622 448 624 567T627 800T625 1034T617 1285Q616 1363 584 1395T472 1427Q394 1427 361 1395T326 1285Q321 1155 319 1037T317 804T319 570T326 316Q328 237 361 205T472 173ZM372 1680L197 1936H366L532 1680H372Z" />
<glyph unicode="&#xd3;" horiz-adv-x="947" d="M472 -17Q275 -17 188 62T97 327Q95 459 94 575T93 803T94 1029T97 1274Q101 1458 188 1537T472 1617Q667 1617 754 1538T846 1274Q851 1144 852 1029T854 802T853 574T846 327Q841 142 754 63T472 -17ZM472 173Q551
173 583 205T617 316Q622 448 624 567T627 800T625 1034T617 1285Q616 1363 584 1395T472 1427Q394 1427 361 1395T326 1285Q321 1155 319 1037T317 804T319 570T326 316Q328 237 361 205T472 173ZM402 1680L582 1936H752L563 1680H402Z" />
<glyph unicode="&#xd4;" horiz-adv-x="947" d="M472 -17Q275 -17 188 62T97 327Q95 459 94 575T93 803T94 1029T97 1274Q101 1458 188 1537T472 1617Q667 1617 754 1538T846 1274Q851 1144 852 1029T854 802T853 574T846 327Q841 142 754 63T472 -17ZM472 173Q551
173 583 205T617 316Q622 448 624 567T627 800T625 1034T617 1285Q616 1363 584 1395T472 1427Q394 1427 361 1395T326 1285Q321 1155 319 1037T317 804T319 570T326 316Q328 237 361 205T472 173ZM233 1682L399 1938H542L708 1682H550L471 1815L391 1682H233Z"
/>
<glyph unicode="&#xd5;" horiz-adv-x="947" d="M472 -17Q275 -17 188 62T97 327Q95 459 94 575T93 803T94 1029T97 1274Q101 1458 188 1537T472 1617Q667 1617 754 1538T846 1274Q851 1144 852 1029T854 802T853 574T846 327Q841 142 754 63T472 -17ZM472 173Q551
173 583 205T617 316Q622 448 624 567T627 800T625 1034T617 1285Q616 1363 584 1395T472 1427Q394 1427 361 1395T326 1285Q321 1155 319 1037T317 804T319 570T326 316Q328 237 361 205T472 173ZM628 1876H725Q721 1776 682 1731T573 1685Q529 1685 503 1698T459
1730T423 1761T379 1775Q352 1775 339 1757T320 1697H223Q231 1804 271 1850T382 1896Q427 1896 452 1883T494 1852T528 1821T573 1807Q603 1807 615 1825T628 1876Z" />
<glyph unicode="&#xd6;" horiz-adv-x="947" d="M472 -17Q275 -17 188 62T97 327Q95 459 94 575T93 803T94 1029T97 1274Q101 1458 188 1537T472 1617Q667 1617 754 1538T846 1274Q851 1144 852 1029T854 802T853 574T846 327Q841 142 754 63T472 -17ZM472 173Q551
173 583 205T617 316Q622 448 624 567T627 800T625 1034T617 1285Q616 1363 584 1395T472 1427Q394 1427 361 1395T326 1285Q321 1155 319 1037T317 804T319 570T326 316Q328 237 361 205T472 173ZM526 1710V1876H691V1710H526ZM256 1710V1876H421V1710H256Z" />
<glyph unicode="&#xd7;" horiz-adv-x="921" d="M219 393L93 515L333 741L93 965L219 1088L461 861L702 1088L828 965L588 741L828 515L702 393L461 619L219 393Z" />
<glyph unicode="&#xd8;" horiz-adv-x="947" d="M472 -17Q275 -17 188 62T97 327Q95 459 94 575T93 803T94 1029T97 1274Q101 1458 188 1537T472 1617Q667 1617 754 1538T846 1274Q851 1144 852 1029T854 802T853 574T846 327Q841 142 754 63T472 -17ZM472 173Q551
173 583 205T617 316Q620 423 622 516T626 699T626 884L322 410Q324 386 324 363T326 316Q328 237 361 205T472 173ZM318 691L621 1167Q621 1196 620 1225T617 1285Q616 1363 584 1395T472 1427Q394 1427 361 1395T326 1285Q322 1176 320 1078T318 886T318 691Z"
/>
<glyph unicode="&#xd9;" horiz-adv-x="940" d="M471 -17Q272 -17 186 61T97 320Q93 640 93 960T97 1600H326Q323 1387 322 1168T322 729T325 296Q325 234 360 205T471 175Q546 175 580 204T615 296Q616 509 617 728T619 1167T615 1600H844Q848 1281 848 961T844
320Q842 140 756 62T471 -17ZM369 1680L194 1936H363L529 1680H369Z" />
<glyph unicode="&#xda;" horiz-adv-x="940" d="M471 -17Q272 -17 186 61T97 320Q93 640 93 960T97 1600H326Q323 1387 322 1168T322 729T325 296Q325 234 360 205T471 175Q546 175 580 204T615 296Q616 509 617 728T619 1167T615 1600H844Q848 1281 848 961T844
320Q842 140 756 62T471 -17ZM399 1680L579 1936H749L560 1680H399Z" />
<glyph unicode="&#xdb;" horiz-adv-x="940" d="M471 -17Q272 -17 186 61T97 320Q93 640 93 960T97 1600H326Q323 1387 322 1168T322 729T325 296Q325 234 360 205T471 175Q546 175 580 204T615 296Q616 509 617 728T619 1167T615 1600H844Q848 1281 848 961T844
320Q842 140 756 62T471 -17ZM230 1682L396 1938H539L705 1682H547L468 1815L388 1682H230Z" />
<glyph unicode="&#xdc;" horiz-adv-x="940" d="M471 -17Q272 -17 186 61T97 320Q93 640 93 960T97 1600H326Q323 1387 322 1168T322 729T325 296Q325 234 360 205T471 175Q546 175 580 204T615 296Q616 509 617 728T619 1167T615 1600H844Q848 1281 848 961T844
320Q842 140 756 62T471 -17ZM523 1710V1876H688V1710H523ZM253 1710V1876H418V1710H253Z" />
<glyph unicode="&#xdd;" horiz-adv-x="828" d="M299 0V532H257L27 1600H261L339 1180L385 716H443L488 1180L566 1600H801L569 532H528V0H299ZM343 1680L523 1936H693L504 1680H343Z" />
<glyph unicode="&#xde;" horiz-adv-x="858" d="M93 0V1600H322V1334H448Q635 1334 718 1259T807 1010Q811 901 811 812T807 625Q801 452 718 377T447 301H322V0H93ZM322 504H447Q514 504 545 531T578 614Q581 682 582 750T583 886T578 1021Q575 1077 545 1104T448
1131H322V504Z" />
<glyph unicode="&#xdf;" horiz-adv-x="908" d="M93 0V1259Q93 1365 124 1441T237 1559T467 1600Q663 1600 748 1523T834 1266Q835 1211 835 1169T832 1069Q826 968 786 912T668 830V792Q755 767 798 709T846 544Q847 507 847 476T848 412T846 335Q840 206 796
133T669 30T466 0H422V203H466Q535 203 572 235T612 337Q614 391 614 437T612 534Q610 640 570 674T461 709H430V912H453Q524 912 562 952T601 1073Q602 1121 602 1151T602 1212T600 1292Q599 1354 566 1382T462 1411Q388 1411 358 1379T328 1293V0H93Z" />
<glyph unicode="&#xe0;" horiz-adv-x="891" d="M331 -14Q205 -14 141 47T65 248Q64 269 64 295T64 341Q70 418 97 475T185 577T346 663Q400 684 453 702T568 737V930Q568 990 539 1017T444 1044Q387 1044 356 1021T321 942Q320 922 320 884T319 809T321 760H98Q97
788 96 831T96 915Q101 1020 135 1086T246 1185T452 1217Q583 1217 657 1183T762 1074T793 880L792 0H564V121H530Q498 54 457 20T331 -14ZM415 152Q466 152 505 178T565 250L567 575Q527 564 485 550T400 512Q336 481 317 438T295 341Q294 315 294 300T296 264Q301
211 331 182T415 152ZM338 1280L163 1536H332L498 1280H338Z" />
<glyph unicode="&#xe1;" horiz-adv-x="891" d="M331 -14Q205 -14 141 47T65 248Q64 269 64 295T64 341Q70 418 97 475T185 577T346 663Q400 684 453 702T568 737V930Q568 990 539 1017T444 1044Q387 1044 356 1021T321 942Q320 922 320 884T319 809T321 760H98Q97
788 96 831T96 915Q101 1020 135 1086T246 1185T452 1217Q583 1217 657 1183T762 1074T793 880L792 0H564V121H530Q498 54 457 20T331 -14ZM415 152Q466 152 505 178T565 250L567 575Q527 564 485 550T400 512Q336 481 317 438T295 341Q294 315 294 300T296 264Q301
211 331 182T415 152ZM369 1280L549 1536H719L530 1280H369Z" />
<glyph unicode="&#xe2;" horiz-adv-x="891" d="M331 -14Q205 -14 141 47T65 248Q64 269 64 295T64 341Q70 418 97 475T185 577T346 663Q400 684 453 702T568 737V930Q568 990 539 1017T444 1044Q387 1044 356 1021T321 942Q320 922 320 884T319 809T321 760H98Q97
788 96 831T96 915Q101 1020 135 1086T246 1185T452 1217Q583 1217 657 1183T762 1074T793 880L792 0H564V121H530Q498 54 457 20T331 -14ZM415 152Q466 152 505 178T565 250L567 575Q527 564 485 550T400 512Q336 481 317 438T295 341Q294 315 294 300T296 264Q301
211 331 182T415 152ZM200 1282L366 1538H509L675 1282H517L438 1415L358 1282H200Z" />
<glyph unicode="&#xe3;" horiz-adv-x="891" d="M331 -14Q205 -14 141 47T65 248Q64 269 64 295T64 341Q70 418 97 475T185 577T346 663Q400 684 453 702T568 737V930Q568 990 539 1017T444 1044Q387 1044 356 1021T321 942Q320 922 320 884T319 809T321 760H98Q97
788 96 831T96 915Q101 1020 135 1086T246 1185T452 1217Q583 1217 657 1183T762 1074T793 880L792 0H564V121H530Q498 54 457 20T331 -14ZM415 152Q466 152 505 178T565 250L567 575Q527 564 485 550T400 512Q336 481 317 438T295 341Q294 315 294 300T296 264Q301
211 331 182T415 152ZM594 1476H691Q687 1376 648 1331T539 1285Q495 1285 469 1298T425 1330T389 1361T345 1375Q318 1375 305 1357T286 1297H189Q197 1404 237 1450T348 1496Q393 1496 418 1483T460 1452T494 1421T539 1407Q569 1407 581 1425T594 1476Z" />
<glyph unicode="&#xe4;" horiz-adv-x="891" d="M331 -14Q205 -14 141 47T65 248Q64 269 64 295T64 341Q70 418 97 475T185 577T346 663Q400 684 453 702T568 737V930Q568 990 539 1017T444 1044Q387 1044 356 1021T321 942Q320 922 320 884T319 809T321 760H98Q97
788 96 831T96 915Q101 1020 135 1086T246 1185T452 1217Q583 1217 657 1183T762 1074T793 880L792 0H564V121H530Q498 54 457 20T331 -14ZM415 152Q466 152 505 178T565 250L567 575Q527 564 485 550T400 512Q336 481 317 438T295 341Q294 315 294 300T296 264Q301
211 331 182T415 152ZM493 1310V1476H658V1310H493ZM223 1310V1476H388V1310H223Z" />
<glyph unicode="&#xe5;" horiz-adv-x="891" d="M331 -14Q205 -14 141 47T65 248Q64 269 64 295T64 341Q70 418 97 475T185 577T346 663Q400 684 453 702T568 737V930Q568 990 539 1017T444 1044Q387 1044 356 1021T321 942Q320 922 320 884T319 809T321 760H98Q97
788 96 831T96 915Q101 1020 135 1086T246 1185T452 1217Q583 1217 657 1183T762 1074T793 880L792 0H564V121H530Q498 54 457 20T331 -14ZM415 152Q466 152 505 178T565 250L567 575Q527 564 485 550T400 512Q336 481 317 438T295 341Q294 315 294 300T296 264Q301
211 331 182T415 152ZM441 1270Q363 1270 307 1326T251 1460Q251 1539 307 1594T441 1650Q520 1650 575 1595T631 1460Q631 1382 575 1326T441 1270ZM441 1395Q469 1395 488 1414T507 1460Q507 1488 488 1507T441 1526Q415 1526 396 1507T376 1460Q376 1434 395
1415T441 1395Z" />
<glyph unicode="&#xe6;" horiz-adv-x="1311" d="M316 -14Q205 -14 141 46T65 246Q63 274 63 295T64 341Q73 458 142 527T336 646Q388 668 439 685T543 718Q543 754 543 789T543 860T543 932Q543 957 538 983T509 1026T431 1044Q372 1044 349 1020T323 940Q322
919 321 885T320 817T323 760H96Q95 775 95 805T94 866T95 918Q99 1022 134 1088T242 1185T436 1217Q516 1217 572 1204T664 1167Q707 1192 764 1204T895 1217Q1070 1217 1151 1147T1240 915Q1240 898 1241 856T1242 761T1241 655T1238 566H774Q774 492 774 417T774
267Q774 205 805 181T899 157Q965 157 987 184T1012 266Q1014 312 1015 346T1013 443H1238Q1240 422 1241 373T1240 291Q1232 126 1154 55T900 -17Q776 -17 698 16T582 121H562Q531 51 465 19T316 -14ZM407 152Q438 152 469 166T521 224T545 354Q545 392 544 447T543
561Q508 552 468 537T393 501Q339 472 318 433T292 341Q291 317 291 301T294 263Q302 213 326 183T407 152ZM774 730H1013Q1014 786 1014 846T1012 941Q1011 995 984 1019T895 1044Q834 1044 804 1020T774 940Q774 887 774 835T774 730Z" />
<glyph unicode="&#xe7;" horiz-adv-x="870" d="M567 761Q568 787 568 819T569 884T567 940Q565 995 539 1019T443 1044Q375 1044 348 1020T318 939Q315 847 314 764T312 600T313 438T318 266Q320 206 349 181T446 156Q514 156 539 182T567 267Q569 303 569 343T567
443H794Q797 419 797 372T796 291Q789 127 708 55T446 -17Q256 -17 175 55T84 291Q82 350 81 432T79 602T80 771T84 906Q95 1074 178 1145T443 1217Q626 1217 708 1147T796 915Q798 878 798 831T794 761H567ZM242 -307V-189H298Q354 -189 375 -166T387 -87L368
14H497L516 -87Q534 -201 481 -254T299 -307H242Z" />
<glyph unicode="&#xe8;" horiz-adv-x="868" d="M447 -17Q257 -17 176 56T84 291Q82 351 81 432T79 602T80 770T84 906Q95 1074 179 1145T444 1217Q627 1217 708 1146T797 915Q798 891 798 832T799 698T795 559H312Q312 489 313 417T317 266Q319 206 349 182T446
157Q511 157 537 181T567 267Q569 297 569 341T567 443H795Q797 420 798 372T797 291Q789 126 709 55T447 -17ZM313 723H569Q570 768 570 812T570 891T567 939Q564 997 536 1020T444 1044Q375 1044 347 1019T317 939Q316 884 315 830T313 723ZM338 1280L163 1536H332L498
1280H338Z" />
<glyph unicode="&#xe9;" horiz-adv-x="868" d="M447 -17Q257 -17 176 56T84 291Q82 351 81 432T79 602T80 770T84 906Q95 1074 179 1145T444 1217Q627 1217 708 1146T797 915Q798 891 798 832T799 698T795 559H312Q312 489 313 417T317 266Q319 206 349 182T446
157Q511 157 537 181T567 267Q569 297 569 341T567 443H795Q797 420 798 372T797 291Q789 126 709 55T447 -17ZM313 723H569Q570 768 570 812T570 891T567 939Q564 997 536 1020T444 1044Q375 1044 347 1019T317 939Q316 884 315 830T313 723ZM369 1280L549 1536H719L530
1280H369Z" />
<glyph unicode="&#xea;" horiz-adv-x="868" d="M447 -17Q257 -17 176 56T84 291Q82 351 81 432T79 602T80 770T84 906Q95 1074 179 1145T444 1217Q627 1217 708 1146T797 915Q798 891 798 832T799 698T795 559H312Q312 489 313 417T317 266Q319 206 349 182T446
157Q511 157 537 181T567 267Q569 297 569 341T567 443H795Q797 420 798 372T797 291Q789 126 709 55T447 -17ZM313 723H569Q570 768 570 812T570 891T567 939Q564 997 536 1020T444 1044Q375 1044 347 1019T317 939Q316 884 315 830T313 723ZM200 1282L366 1538H509L675
1282H517L438 1415L358 1282H200Z" />
<glyph unicode="&#xeb;" horiz-adv-x="868" d="M447 -17Q257 -17 176 56T84 291Q82 351 81 432T79 602T80 770T84 906Q95 1074 179 1145T444 1217Q627 1217 708 1146T797 915Q798 891 798 832T799 698T795 559H312Q312 489 313 417T317 266Q319 206 349 182T446
157Q511 157 537 181T567 267Q569 297 569 341T567 443H795Q797 420 798 372T797 291Q789 126 709 55T447 -17ZM313 723H569Q570 768 570 812T570 891T567 939Q564 997 536 1020T444 1044Q375 1044 347 1019T317 939Q316 884 315 830T313 723ZM492 1310V1476H657V1310H492ZM222
1310V1476H387V1310H222Z" />
<glyph unicode="&#xec;" horiz-adv-x="434" d="M103 0V1200H332V0H103ZM115 1280L-60 1536H109L275 1280H115Z" />
<glyph unicode="&#xed;" horiz-adv-x="434" d="M103 0V1200H332V0H103ZM146 1280L326 1536H496L307 1280H146Z" />
<glyph unicode="&#xee;" horiz-adv-x="434" d="M103 0V1200H332V0H103ZM233 1282L399 1538H542L708 1282H550L471 1415L391 1282H233Z" />
<glyph unicode="&#xef;" horiz-adv-x="434" d="M103 0V1200H332V0H103ZM526 1310V1476H691V1310H526ZM256 1310V1476H421V1310H256Z" />
<glyph unicode="&#xf0;" horiz-adv-x="919" d="M469 -18Q275 -18 187 61T90 325Q87 389 87 462T87 615T89 779Q92 918 166 997T356 1076Q429 1076 482 1049T559 978H583Q567 1037 544 1090T488 1191L350 1128L296 1234L408 1284Q371 1325 328 1359T233 1422L358
1617Q437 1569 502 1516T619 1400L773 1469L827 1363L692 1303Q764 1188 799 1047T841 733Q843 676 843 604T843 458T841 326Q837 203 799 127T680 17T469 -18ZM468 171Q536 171 571 199T608 283Q611 366 612 448T612 614T607 789Q605 838 564 863T456 889Q388
889 356 858T321 771Q320 699 320 613T321 440T324 285Q326 225 362 198T468 171Z" />
<glyph unicode="&#xf1;" horiz-adv-x="951" d="M103 0V1200H333V1080H379Q418 1147 467 1182T603 1217Q726 1217 789 1148T853 922V0H624V941Q623 997 595 1022T509 1048Q457 1048 405 1021T333 947V0H103ZM633 1476H730Q726 1376 687 1331T578 1285Q534 1285
508 1298T464 1330T428 1361T384 1375Q357 1375 344 1357T325 1297H228Q236 1404 276 1450T387 1496Q432 1496 457 1483T499 1452T533 1421T578 1407Q608 1407 620 1425T633 1476Z" />
<glyph unicode="&#xf2;" horiz-adv-x="902" d="M452 -17Q322 -17 244 17T128 126T84 324Q82 374 81 444T79 594T80 747T84 877Q92 1001 129 1076T244 1184T452 1217Q585 1217 662 1183T775 1073T818 877Q820 824 821 753T823 604T822 453T818 324Q811 201 775
126T662 17T452 -17ZM452 156Q526 156 556 184T588 269Q591 359 592 441T594 603T593 764T588 932Q586 990 556 1017T452 1044Q380 1044 348 1015T313 930Q311 860 310 780T308 615T309 444T315 271Q317 212 348 184T452 156ZM350 1280L175 1536H344L510 1280H350Z"
/>
<glyph unicode="&#xf3;" horiz-adv-x="902" d="M452 -17Q322 -17 244 17T128 126T84 324Q82 374 81 444T79 594T80 747T84 877Q92 1001 129 1076T244 1184T452 1217Q585 1217 662 1183T775 1073T818 877Q820 824 821 753T823 604T822 453T818 324Q811 201 775
126T662 17T452 -17ZM452 156Q526 156 556 184T588 269Q591 359 592 441T594 603T593 764T588 932Q586 990 556 1017T452 1044Q380 1044 348 1015T313 930Q311 860 310 780T308 615T309 444T315 271Q317 212 348 184T452 156ZM380 1280L560 1536H730L541 1280H380Z"
/>
<glyph unicode="&#xf4;" horiz-adv-x="902" d="M452 -17Q322 -17 244 17T128 126T84 324Q82 374 81 444T79 594T80 747T84 877Q92 1001 129 1076T244 1184T452 1217Q585 1217 662 1183T775 1073T818 877Q820 824 821 753T823 604T822 453T818 324Q811 201 775
126T662 17T452 -17ZM452 156Q526 156 556 184T588 269Q591 359 592 441T594 603T593 764T588 932Q586 990 556 1017T452 1044Q380 1044 348 1015T313 930Q311 860 310 780T308 615T309 444T315 271Q317 212 348 184T452 156ZM211 1282L377 1538H520L686 1282H528L449
1415L369 1282H211Z" />
<glyph unicode="&#xf5;" horiz-adv-x="902" d="M452 -17Q322 -17 244 17T128 126T84 324Q82 374 81 444T79 594T80 747T84 877Q92 1001 129 1076T244 1184T452 1217Q585 1217 662 1183T775 1073T818 877Q820 824 821 753T823 604T822 453T818 324Q811 201 775
126T662 17T452 -17ZM452 156Q526 156 556 184T588 269Q591 359 592 441T594 603T593 764T588 932Q586 990 556 1017T452 1044Q380 1044 348 1015T313 930Q311 860 310 780T308 615T309 444T315 271Q317 212 348 184T452 156ZM606 1476H703Q699 1376 660 1331T551
1285Q507 1285 481 1298T437 1330T401 1361T357 1375Q330 1375 317 1357T298 1297H201Q209 1404 249 1450T360 1496Q405 1496 430 1483T472 1452T506 1421T551 1407Q581 1407 593 1425T606 1476Z" />
<glyph unicode="&#xf6;" horiz-adv-x="902" d="M452 -17Q322 -17 244 17T128 126T84 324Q82 374 81 444T79 594T80 747T84 877Q92 1001 129 1076T244 1184T452 1217Q585 1217 662 1183T775 1073T818 877Q820 824 821 753T823 604T822 453T818 324Q811 201 775
126T662 17T452 -17ZM452 156Q526 156 556 184T588 269Q591 359 592 441T594 603T593 764T588 932Q586 990 556 1017T452 1044Q380 1044 348 1015T313 930Q311 860 310 780T308 615T309 444T315 271Q317 212 348 184T452 156ZM504 1310V1476H669V1310H504ZM234
1310V1476H399V1310H234Z" />
<glyph unicode="&#xf7;" horiz-adv-x="1045" d="M93 652V829H952V652H93ZM427 942V1127H620V942H427ZM427 353V539H620V353H427Z" />
<glyph unicode="&#xf8;" horiz-adv-x="902" d="M150 319L723 984L806 889L166 159L150 319ZM452 -17Q322 -17 244 17T128 126T84 324Q82 374 81 444T79 594T80 747T84 877Q92 1001 129 1076T244 1184T452 1217Q585 1217 662 1183T775 1073T818 877Q820 824 821
753T823 604T822 453T818 324Q811 201 775 126T662 17T452 -17ZM452 156Q526 156 556 184T588 269Q591 359 592 441T594 603T593 764T588 932Q586 990 556 1017T452 1044Q380 1044 348 1015T313 930Q311 860 310 780T308 615T309 444T315 271Q317 212 348 184T452
156Z" />
<glyph unicode="&#xf9;" horiz-adv-x="945" d="M351 -17Q230 -17 163 52T95 279V1200H326L328 259Q328 204 353 178T436 152Q490 152 539 179T609 254V1200H842V0H609V121H575Q533 47 479 15T351 -17ZM364 1280L189 1536H358L524 1280H364Z" />
<glyph unicode="&#xfa;" horiz-adv-x="945" d="M351 -17Q230 -17 163 52T95 279V1200H326L328 259Q328 204 353 178T436 152Q490 152 539 179T609 254V1200H842V0H609V121H575Q533 47 479 15T351 -17ZM395 1280L575 1536H745L556 1280H395Z" />
<glyph unicode="&#xfb;" horiz-adv-x="945" d="M351 -17Q230 -17 163 52T95 279V1200H326L328 259Q328 204 353 178T436 152Q490 152 539 179T609 254V1200H842V0H609V121H575Q533 47 479 15T351 -17ZM226 1282L392 1538H535L701 1282H543L464 1415L384 1282H226Z" />
<glyph unicode="&#xfc;" horiz-adv-x="945" d="M351 -17Q230 -17 163 52T95 279V1200H326L328 259Q328 204 353 178T436 152Q490 152 539 179T609 254V1200H842V0H609V121H575Q533 47 479 15T351 -17ZM518 1310V1476H683V1310H518ZM248 1310V1476H413V1310H248Z" />
<glyph unicode="&#xfd;" horiz-adv-x="835" d="M211 -416Q179 -416 138 -412T61 -403V-231Q88 -233 133 -234T209 -236Q294 -236 325 -212T367 -125L388 0H245L42 1200H280L340 640L394 171H461L509 640L566 1200H804L600 -108Q584 -209 546 -277T430 -381T211
-416ZM349 1280L529 1536H699L510 1280H349Z" />
<glyph unicode="&#xfe;" horiz-adv-x="937" d="M93 -400V1600H327V1080H362Q401 1148 447 1182T586 1217Q706 1217 770 1149T841 922Q843 866 844 780T845 599T844 419T841 278Q834 120 764 52T574 -17Q504 -17 455 14T362 121H327V-400H93ZM485 152Q542 152 573
178T607 259Q612 333 614 422T616 605T614 787T607 947Q604 998 579 1023T498 1048Q443 1048 396 1022T327 947V254Q350 198 388 175T485 152Z" />
<glyph unicode="&#xff;" horiz-adv-x="835" d="M211 -416Q179 -416 138 -412T61 -403V-231Q88 -233 133 -234T209 -236Q294 -236 325 -212T367 -125L388 0H245L42 1200H280L340 640L394 171H461L509 640L566 1200H804L600 -108Q584 -209 546 -277T430 -381T211
-416ZM473 1310V1476H638V1310H473ZM203 1310V1476H368V1310H203Z" />
<glyph unicode="&#x2013;" horiz-adv-x="1012" d="M60 631V835H952V631H60Z" />
<glyph unicode="&#x2014;" horiz-adv-x="1662" d="M60 631V835H1602V631H60Z" />
<glyph unicode="&#x2018;" horiz-adv-x="505" d="M86 1109V1327L236 1600H372L255 1350H419V1109H86Z" />
<glyph unicode="&#x2019;" horiz-adv-x="505" d="M133 1109L250 1360H86V1600H419V1382L270 1109H133Z" />
<glyph unicode="&#x201a;" horiz-adv-x="505" d="M122 -250L240 0H76V240H408V22L259 -250H122Z" />
<glyph unicode="&#x201c;" horiz-adv-x="840" d="M459 1109V1327L602 1600H730L622 1350H770V1109H459ZM70 1109V1327L211 1600H341L231 1350H379V1109H70Z" />
<glyph unicode="&#x201d;" horiz-adv-x="840" d="M109 1109L217 1360H70V1600H379V1382L237 1109H109ZM499 1109L608 1360H459V1600H770V1382L629 1109H499Z" />
<glyph unicode="&#x201e;" horiz-adv-x="968" d="M122 -250L240 0H76V240H408V22L259 -250H122ZM579 -250L697 0H533V240H865V22L716 -250H579Z" />
<glyph unicode="&#x2022;" horiz-adv-x="555" d="M86 639V981H469V639H86Z" />
<glyph unicode="&#x2039;" horiz-adv-x="477" d="M391 842L60 518V735L391 1058V842ZM391 195L60 518V735L391 410V195Z" />
<glyph unicode="&#x203a;" horiz-adv-x="477" d="M86 842V1058L417 735V518L86 842ZM86 195V410L417 735V518L86 195Z" />
</font>
</defs>
</svg>
