<?xml version="1.0" encoding="UTF-8"?>
<svg width="351px" height="440px" viewBox="0 0 351 440" version="1.1" xmlns="http://www.w3.org/2000/svg" xmlns:xlink="http://www.w3.org/1999/xlink">
    <title>Fill 11@3x</title>
    <g id="🖥-Desktop" stroke="none" stroke-width="1" fill="none" fill-rule="evenodd">
        <g id="aessia-home" transform="translate(-540.000000, -313.000000)" fill="#FFFFFF">
            <path d="M866.359072,620.924843 C866.359072,625.030996 866.607135,631.043578 867.130824,638.962588 C867.645325,646.909095 868.66514,654.974753 870.208643,663.150398 C871.742959,671.353539 874.177652,678.777611 877.521909,685.431779 C880.856978,692.085948 885.340488,696.43957 891,698.483481 L866.359072,749.92955 C859.679746,749.92955 852.632918,748.389743 845.18184,745.319293 C837.749136,742.248844 830.564496,737.904387 823.646294,732.267592 C816.718904,726.639962 810.802141,720.370745 805.941943,713.459943 C801.054183,706.54914 797.342425,699.005916 794.779107,690.802775 C789.643283,703.607007 779.509449,714.990585 764.368417,724.981002 C749.218197,734.962255 732.423411,742.248844 713.956497,746.849935 L713.956497,688.493063 C726.267773,685.935883 737.439797,680.959005 747.445006,673.516602 C757.450215,666.110861 766.031358,657.275299 773.225186,647.046578 L773.225186,485.009332 C773.225186,459.932467 771.938933,439.969962 769.375615,425.121818 C766.80311,410.273674 762.439038,399.394201 756.292587,392.483398 C750.127761,385.56343 742.548058,381.228138 733.571851,379.413365 C724.595644,377.644419 713.956497,376.737033 701.626845,376.737033 C690.344571,376.737033 679.705424,378.148523 669.691027,380.953173 C659.685818,383.776153 650.452361,387.094072 641.981468,390.94359 C633.519762,394.783944 626.068684,399.000083 619.664983,403.61034 C613.233719,408.211432 608.502146,411.813482 605.424327,414.352331 L570.778191,361.384785 C575.914014,355.74799 583.613156,350.001208 593.884803,344.098613 C604.138075,338.232679 615.944037,332.97167 629.275128,328.361413 C642.615407,323.751156 657.1225,320.048286 672.778034,317.21614 C688.415192,314.420656 704.723039,313 721.655638,313 C737.044734,313 752.057141,314.539808 766.674484,317.610257 C781.301016,320.680707 794.632107,325.813398 806.713695,332.97167 C818.749346,340.139108 829.287431,349.735408 838.25445,361.778903 C847.239844,373.785735 853.533295,388.762196 857.116428,406.68079 C860.69956,424.617714 863.14344,442.65546 864.438881,460.821522 C865.715946,479.005916 866.359072,497.034496 866.359072,514.953089 L866.359072,614.783944 L866.359072,620.924843 Z M626.969061,618.624297 C626.969061,641.657251 631.709821,658.815106 641.209716,670.070366 C650.700424,681.334791 664.426578,687.98896 682.397367,690.032871 L682.397367,752.230096 C680.339362,752.743365 677.01348,753 672.392158,753 C654.926683,753 638.131897,750.699454 621.97105,746.089197 C605.801016,741.47894 591.569548,734.073199 579.258271,723.816981 C566.92862,713.569929 557.318475,700.014123 550.391085,683.122068 C543.454507,666.220847 540,645.50677 540,620.924843 C540,597.387785 544.988823,577.031163 555.00322,559.873308 C565.017616,542.742949 577.834206,528.655543 593.489739,517.647752 C609.136085,506.639962 626.969061,498.455151 646.988666,493.065825 C666.999084,487.703995 687.266752,485.009332 707.800859,485.009332 L741.666056,485.009332 L741.666056,539.535016 L724.733457,539.535016 C714.46181,539.535016 703.68485,540.552389 692.393388,542.605466 C681.111114,544.649377 670.573029,548.48973 660.843446,554.11736 C651.077112,559.763321 643.001283,567.819814 636.597581,578.296005 C630.175505,588.799692 626.969061,602.245511 626.969061,618.624297 L626.969061,618.624297 Z" id="Fill-11"></path>
        </g>
    </g>
</svg>