<?xml version="1.0" encoding="UTF-8"?>
<svg width="140px" height="43px" viewBox="0 0 140 43" version="1.1" xmlns="http://www.w3.org/2000/svg" xmlns:xlink="http://www.w3.org/1999/xlink">
    <title>aessia-logo-blanco</title>
    <defs>
        <polygon id="path-1" points="0 43 140 43 140 0 0 0"></polygon>
    </defs>
    <g id="🖥-Desktop" stroke="none" stroke-width="1" fill="none" fill-rule="evenodd">
        <g id="aessia-home-buscar" transform="translate(-128.000000, -56.000000)">
            <g id="aessia-logo-blanco" transform="translate(128.000000, 56.000000)">
                <path d="M22.2154839,33.9914616 C22.2154839,34.2715308 22.2317441,34.6816321 22.2680169,35.2217656 C22.3024136,35.7637745 22.3724577,36.3139104 22.4775238,36.8715482 C22.5825899,37.4310615 22.7476939,37.9374366 22.9747118,38.3912987 C23.2017297,38.8451609 23.5069218,39.1421092 23.8921643,39.2815187 L22.2154839,42.7905107 C21.7601973,42.7905107 21.2805203,42.6854848 20.7745769,42.476058 C20.2673826,42.2666313 19.7789501,41.9703081 19.3074033,41.5858381 C18.8358565,41.2019932 18.4337284,40.7743876 18.1022697,40.3030211 C17.7695603,39.8316546 17.5162759,39.3171525 17.3424164,38.7576392 C16.9928214,39.63098 16.3030122,40.4074219 15.2723634,41.0888403 C14.24234,41.7696335 13.0978696,42.2666313 11.8408284,42.5804588 L11.8408284,38.6001003 C12.6788559,38.4256822 13.4393346,38.0862233 14.1203883,37.5785979 C14.8020674,37.0734731 15.3855597,36.4708242 15.8752429,35.7731518 L15.8752429,24.7210459 C15.8752429,23.0106233 15.7883132,21.6490368 15.613203,20.6362866 C15.4380927,19.6235363 15.1416561,18.881478 14.7232678,18.4101115 C14.304254,17.9381199 13.7870535,17.6424218 13.1772946,17.5186412 C12.5650342,17.3979864 11.8408284,17.3360961 11.0028009,17.3360961 C10.2348175,17.3360961 9.5093608,17.4323699 8.8283071,17.6236672 C8.14725341,17.8162148 7.51810738,18.0425207 6.94274521,18.3050856 C6.36488147,18.5670253 5.85956339,18.8545963 5.42241322,19.169049 C4.98463765,19.4828766 4.6638107,19.7285623 4.45430383,19.9017301 L2.09594432,16.2889624 C2.44491399,15.9044924 2.96899388,15.5125205 3.6669332,15.1099211 C4.36549793,14.7098222 5.16850339,14.3509835 6.07782577,14.0365308 C6.98464659,13.7220781 7.97214318,13.4695157 9.03781398,13.276343 C10.1028594,13.0856709 11.2123077,12.9887719 12.3649083,12.9887719 C13.4124427,12.9887719 14.4343359,13.0937979 15.430588,13.3032246 C16.4255893,13.5126514 17.3336609,13.8627379 18.1548028,14.3509835 C18.9753193,14.8398543 19.691395,15.4943911 20.30303,16.315844 C20.9134142,17.1347964 21.3418089,18.1562988 21.5857124,19.3784758 C21.8308668,20.6019031 21.9965961,21.8322071 22.0841512,23.0712632 C22.1717063,24.3115697 22.2154839,25.5412486 22.2154839,26.7634256 L22.2154839,33.5726081 L22.2154839,33.9914616 Z M5.92022657,33.8345478 C5.92022657,35.405561 6.2429297,36.5758501 6.88896136,37.3435398 C7.5362438,38.1118547 8.46995654,38.5657168 9.69260115,38.7051263 L9.69260115,42.9474245 C9.55251297,42.9824332 9.32674585,42.9999375 9.01217284,42.9999375 C7.82329949,42.9999375 6.67945448,42.8430237 5.57938702,42.528571 C4.47994497,42.2141183 3.50995939,41.7089935 2.67193189,41.0094456 C1.83327898,40.3105229 1.17849182,39.3859195 0.706944997,38.2337598 C0.235398175,37.080975 0.000250157465,35.6681258 0.000250157465,33.9914616 C0.000250157465,32.3860649 0.339838916,30.9975968 1.02089262,29.8273076 C1.70194631,28.6588939 2.57562126,27.6980315 3.64129206,26.947221 C4.70571208,26.1964105 5.92022657,25.6381475 7.28233397,25.2705567 C8.64444137,24.9048413 10.0246852,24.7210459 11.4218146,24.7210459 L13.7270157,24.7210459 L13.7270157,28.4400898 L12.5744151,28.4400898 C11.8758504,28.4400898 11.1422637,28.509482 10.3736548,28.6495166 C9.60567143,28.788926 8.88897029,29.0508658 8.22542761,29.4347106 C7.56188494,29.8198058 7.01091312,30.3693165 6.57501374,31.0838681 C6.13723817,31.8002951 5.92022657,32.7173967 5.92022657,33.8345478 L5.92022657,33.8345478 Z" id="Fill-1" fill="#FFFFFF"></path>
                <path d="M41.6436507,12.9367591 C43.5304634,13.1111772 45.2334103,13.6175523 46.7524915,14.4558844 C48.2715727,15.2942166 49.5730169,16.3757338 50.6555734,17.7029368 C51.7381298,19.0301397 52.5680272,20.5486399 53.1452655,22.2590626 C53.7212531,23.9707355 54.0083088,25.7524257 54.0083088,27.6022578 C54.0083088,28.4399648 53.9564011,29.2776718 53.8519604,30.1153788 L35.8806481,30.1153788 L35.8806481,25.50674 L47.9838916,25.50674 C47.9838916,24.5990157 47.835048,23.7256749 47.5386114,22.8873428 C47.2415494,22.0496358 46.8050246,21.2725688 46.2284116,20.5580172 C45.6524241,19.8409651 44.9788751,19.2395665 44.2108917,18.7500705 C43.4422829,18.2611997 42.5873697,17.9642513 41.6436507,17.8598505 L41.6436507,12.9367591 Z M41.4341438,37.8147813 C41.8181355,37.8147813 42.2990632,37.7716456 42.8750508,37.6834988 C43.4516638,37.5972275 44.062048,37.4403137 44.7093304,37.2127575 C45.3547367,36.9852013 46.0007683,36.6976302 46.6480508,36.3481689 C47.293457,35.9999578 47.8606891,35.5811043 48.3509977,35.0909832 L50.6555734,38.5999753 C49.5029729,40.0322042 48.1583765,41.1143466 46.6211589,41.8482779 C45.0845666,42.5803338 43.1277099,42.9472995 40.7530901,42.9472995 C38.8318808,42.9472995 37.0326232,42.5540773 35.3565682,41.7701336 C33.6798878,40.9836893 32.2471109,39.9102991 31.0601137,38.5474623 C29.8724912,37.1858759 28.9293975,35.5986087 28.2308328,33.7819098 C27.5316427,31.9664612 27.182673,30.010978 27.182673,27.9160854 C27.182673,25.9255935 27.5060015,24.0395025 28.1526586,22.2590626 C28.7974395,20.4786226 29.6798699,18.9163616 30.7980738,17.5722795 C31.9156523,16.2281974 33.2158457,15.1360525 34.7011556,14.2983455 C36.1852148,13.4600134 37.783721,12.9886469 39.4954235,12.8842461 L39.4954235,17.9117384 C38.2027348,18.1567989 37.1376893,18.6800532 36.2996618,19.4833767 C35.4616343,20.2879505 34.8055964,21.2038018 34.3340496,22.2334312 C33.8637535,23.2636858 33.5304187,24.3195717 33.3396736,25.4017141 C33.1470524,26.4851068 33.0507418,27.4103354 33.0507418,28.1773999 C33.0507418,29.5396115 33.2158457,30.8055493 33.5491805,31.9752134 C33.8806392,33.1455025 34.3953381,34.1576276 35.0945283,35.0122138 C35.7937184,35.8686754 36.6567616,36.5500938 37.6886612,37.0552186 C38.7180591,37.5622189 39.9669703,37.8147813 41.4341438,37.8147813 L41.4341438,37.8147813 Z" id="Fill-3" fill="#FFFFFF"></path>
                <path d="M60.4952046,36.1383045 C61.1925185,36.6284256 62.0224159,37.0810375 62.983646,37.5011413 C63.9442506,37.9199948 65.1581397,38.1294215 66.6253133,38.1294215 L66.8873532,38.1294215 L66.8873532,43 C66.0136783,43 65.2106728,42.9731184 64.4764606,42.9218557 C63.7428739,42.8687176 63.0180426,42.7468124 62.3025923,42.5542649 C61.5865165,42.3635927 60.8623107,42.0922757 60.1274731,41.7428144 C59.3938863,41.3952285 58.6259029,40.940116 57.8235228,40.3806028 L60.4952046,36.1383045 Z" id="Fill-5" fill="#FFFFFF"></path>
                <path d="M65.8513886,24.0765742 C64.9964755,23.6783508 64.3229265,23.1107105 64.0821499,22.1679776 C63.6887773,20.6263466 64.4567607,18.6133492 66.0909144,18.1351061 C67.3679682,17.7612637 68.7876118,17.8456595 70.092183,17.968815 C71.8614217,18.1363564 73.6394159,18.6133492 75.2185349,19.4316764 L77.1560044,15.310033 C77.3573812,14.8818022 76.8239204,14.808034 76.4624429,14.6061091 C75.617536,14.1341174 74.7269755,13.7415204 73.8026436,13.4526991 C72.7294681,13.1176163 71.6243975,12.8569269 70.5061936,12.7368972 C67.1472043,12.3755579 63.523048,12.9063141 60.8150934,15.0537197 C58.256608,17.0835962 57.1040074,20.6419755 58.0026981,23.7971301 C58.9051412,26.9647878 62.302905,28.7133449 65.1478207,29.8154922 C66.7738443,30.4456479 68.4624071,30.8701278 70.0996877,31.4590233 C71.3098245,31.8941308 72.4324061,32.6768242 72.7000746,34.0327843 C72.9865049,35.4818923 72.2260262,36.7040693 70.94522,37.3329747 C70.7719859,37.4173706 69.0358931,37.9631304 69.0358931,37.9237457 L69.0358931,38.5188927 L69.0358931,42.894974 C71.3098245,42.648038 73.6431682,41.9628687 75.4124069,40.4568716 C77.1560044,38.9727549 78.1541327,36.8753616 78.2479418,34.5960484 C78.3423762,32.3136095 77.5725166,30.3418723 75.8307953,28.8346248 C74.953368,28.0750622 73.9158399,27.5180495 72.8639277,27.0404315 C71.8307774,26.5715656 70.7882462,26.0745678 69.7106929,25.7144789" id="Fill-7" fill="#FFFFFF"></path>
                <mask id="mask-2" fill="white">
                    <use xlink:href="#path-1"></use>
                </mask>
                <g id="Clip-10"></g>
                <path d="M105.901036,42.7380603 L112.29381,42.7380603 L112.29381,13.1982612 L105.901036,13.1982612 L105.901036,42.7380603 Z M112.870423,3.77155693 C112.870423,4.81806551 112.503942,5.70140878 111.769105,6.41596034 C111.035518,7.13238736 110.144957,7.48872541 109.097423,7.48872541 C108.049263,7.48872541 107.166207,7.12301005 106.451382,6.39032901 C105.734681,5.65639766 105.377581,4.78430717 105.377581,3.77155693 C105.377581,2.72317288 105.744062,1.83357806 106.477649,1.09964672 C107.211236,0.36634052 108.08366,0 109.097423,0 C110.144957,0 111.035518,0.36634052 111.769105,1.09964672 C112.503942,1.83357806 112.870423,2.72317288 112.870423,3.77155693 L112.870423,3.77155693 Z" id="Fill-9" fill="#FFFFFF" mask="url(#mask-2)"></path>
                <path d="M138.323132,33.9914616 C138.323132,34.2715308 138.340018,34.6816321 138.375665,35.2217656 C138.410687,35.7637745 138.480106,36.3139104 138.585172,36.8715482 C138.689613,37.4310615 138.855342,37.9374366 139.082985,38.3912987 C139.310003,38.8451609 139.615195,39.1421092 140.000438,39.2815187 L138.323132,42.7905107 C137.868471,42.7905107 137.388794,42.6854848 136.8816,42.476058 C136.375656,42.2666313 135.886598,41.9703081 135.415677,41.5858381 C134.94413,41.2019932 134.541376,40.7743876 134.210543,40.3030211 C133.877834,39.8316546 133.625175,39.3171525 133.45069,38.7576392 C133.101095,39.63098 132.411286,40.4074219 131.380637,41.0888403 C130.349363,41.7696335 129.206143,42.2666313 127.949102,42.5804588 L127.949102,38.6001003 C128.787129,38.4256822 129.547608,38.0862233 130.228662,37.5785979 C130.909715,37.0734731 131.493833,36.4708242 131.983516,35.7731518 L131.983516,24.7210459 C131.983516,23.0106233 131.895961,21.6490368 131.721476,20.6362866 C131.546366,19.6235363 131.249304,18.881478 130.830916,18.4101115 C130.411277,17.9381199 129.895327,17.6424218 129.284317,17.5186412 C128.673308,17.3979864 127.949102,17.3360961 127.109824,17.3360961 C126.34184,17.3360961 125.617634,17.4323699 124.935955,17.6236672 C124.254902,17.8162148 123.626381,18.0425207 123.049768,18.3050856 C122.47378,18.5670253 121.966586,18.8545963 121.530687,19.169049 C121.092911,19.4828766 120.770833,19.7285623 120.561327,19.9017301 L118.202967,16.2889624 C118.552562,15.9044924 119.076642,15.5125205 119.775832,15.1099211 C120.473771,14.7098222 121.277402,14.3509835 122.184848,14.0365308 C123.09292,13.7220781 124.080417,13.4695157 125.146087,13.276343 C126.210508,13.0856709 127.320581,12.9887719 128.473182,12.9887719 C129.520716,12.9887719 130.542609,13.0937979 131.537611,13.3032246 C132.533237,13.5126514 133.440684,13.8627379 134.263076,14.3509835 C135.082342,14.8398543 135.799669,15.4943911 136.410053,16.315844 C137.021688,17.1347964 137.450082,18.1562988 137.693986,19.3784758 C137.937889,20.6019031 138.104244,21.8322071 138.192425,23.0712632 C138.279354,24.3115697 138.323132,25.5412486 138.323132,26.7634256 L138.323132,33.5726081 L138.323132,33.9914616 Z M122.027875,33.8345478 C122.027875,35.405561 122.350578,36.5758501 122.997235,37.3435398 C123.643267,38.1118547 124.577605,38.5657168 125.800875,38.7051263 L125.800875,42.9474245 C125.660786,42.9824332 125.434394,42.9999375 125.119821,42.9999375 C123.930948,42.9999375 122.787728,42.8430237 121.687661,42.528571 C120.586968,42.2141183 119.618233,41.7089935 118.780205,41.0094456 C117.940927,40.3105229 117.286765,39.3859195 116.815219,38.2337598 C116.343046,37.080975 116.107898,35.6681258 116.107898,33.9914616 C116.107898,32.3860649 116.447487,30.9975968 117.129166,29.8273076 C117.810845,28.6588939 118.683269,27.6980315 119.74894,26.947221 C120.813986,26.1964105 122.027875,25.6381475 123.390607,25.2705567 C124.752715,24.9048413 126.132333,24.7210459 127.530088,24.7210459 L129.835289,24.7210459 L129.835289,28.4400898 L128.682689,28.4400898 C127.983499,28.4400898 127.249912,28.509482 126.481303,28.6495166 C125.71332,28.788926 124.995993,29.0508658 124.333701,29.4347106 C123.668908,29.8198058 123.119187,30.3693165 122.683287,31.0838681 C122.246137,31.8002951 122.027875,32.7173967 122.027875,33.8345478 L122.027875,33.8345478 Z" id="Fill-11" fill="#FFFFFF" mask="url(#mask-2)"></path>
                <path d="M93.869525,31.4508338 C94.7238128,31.8490572 95.3979871,32.4166974 95.6387637,33.3594304 C96.0321363,34.9010613 95.2635275,36.9140587 93.6293738,37.3923019 C92.3529454,37.7661443 90.9333018,37.6817484 89.629356,37.558593 C87.8594919,37.3910516 86.0814977,36.9140587 84.5023787,36.0957315 C83.8569725,37.4691959 83.2109408,38.8439106 82.5649092,40.2180001 C82.3635324,40.6456057 82.8969932,40.719374 83.2584707,40.9212989 C84.1033776,41.3939156 84.9939381,41.7858875 85.91827,42.075334 C86.9914455,42.4097917 88.0965161,42.6704811 89.21472,42.7905107 C92.5743347,43.15185 96.198491,42.6210939 98.9058202,40.4730631 C101.464306,38.4438117 102.616906,34.8854324 101.718215,31.7302778 C100.815772,28.5626201 97.4180087,26.8140631 94.5730929,25.7119157 C92.946444,25.08176 91.2585065,24.6572801 89.6212259,24.0683846 C88.4110891,23.6332771 87.2891329,22.8505837 87.020839,21.4946237 C86.7344087,20.0455156 87.4948874,18.8233386 88.7756936,18.1944332 C88.9489277,18.1100374 90.6850205,17.5642775 90.6850205,17.6036622 L90.6850205,17.0085152 L90.6850205,12.6324339 C88.4110891,12.8793699 86.07712,13.5645392 84.3085067,15.0705363 C82.5649092,16.554653 81.5667809,18.6520463 81.4729718,20.9313595 C81.3785374,23.2137985 82.148397,25.1855357 83.8901183,26.6927831 C84.7675456,27.4523458 85.8050737,28.0093584 86.8563605,28.4869764 C87.8901362,28.9558423 88.9326674,29.4528401 90.0102207,29.8129291" id="Fill-12" fill="#FFFFFF" mask="url(#mask-2)"></path>
                <path d="M98.9966273,19.5136967 C98.2993134,19.0235756 97.469416,18.5709638 96.508186,18.15086 C95.5475813,17.7320065 94.3336922,17.5225797 92.8665187,17.5225797 L92.6044787,17.5225797 L92.6044787,12.6520012 C93.4781537,12.6520012 94.2811591,12.6788829 95.0153713,12.7301455 C95.748958,12.7832837 96.4737893,12.9051888 97.1892397,13.0977364 C97.9053154,13.2884085 98.6295213,13.5597255 99.3643588,13.9091869 C100.097946,14.2567727 100.865929,14.7118852 101.668309,15.2713985 L98.9966273,19.5136967 Z" id="Fill-13" fill="#FFFFFF" mask="url(#mask-2)"></path>
            </g>
        </g>
    </g>
</svg>