<?xml version="1.0" encoding="UTF-8"?>
<svg width="170px" height="52px" viewBox="0 0 170 52" version="1.1" xmlns="http://www.w3.org/2000/svg" xmlns:xlink="http://www.w3.org/1999/xlink">
    <title>aessia@3x</title>
    <defs>
        <polygon id="path-1" points="0 52 170 52 170 0 0 0"></polygon>
    </defs>
    <g id="Symbols" stroke="none" stroke-width="1" fill="none" fill-rule="evenodd">
        <g id="organisms-/-header-desktop" transform="translate(-128.000000, -64.000000)">
            <g id="aessia" transform="translate(128.000000, 64.000000)">
                <path d="M26.9759447,41.1059535 C26.9759447,41.4446418 26.9956893,41.9405783 27.0397348,42.593763 C27.0815022,43.2492156 27.1665557,43.9144963 27.294136,44.588849 C27.4217163,45.2654697 27.6221997,45.8778303 27.8978643,46.4266868 C28.1735289,46.9755434 28.5441193,47.3346437 29.0119137,47.5032319 L26.9759447,51.7466641 C26.4230967,51.7466641 25.8406318,51.619656 25.2262719,51.3663958 C24.6103931,51.1131355 24.0172966,50.7547912 23.444704,50.2898507 C22.8721115,49.8256662 22.383813,49.3085617 21.9813275,48.7385371 C21.5773232,48.1685126 21.2697636,47.5463239 21.0586485,46.8697033 C20.6341402,47.9258363 19.7965148,48.8647893 18.5450127,49.6888301 C17.2942701,50.5121149 15.904556,51.1131355 14.3781487,51.4926479 L14.3781487,46.6791911 C15.3957536,46.4682669 16.319192,46.0577585 17.1461858,45.4438858 C17.973939,44.8330372 18.6824653,44.1042525 19.2770807,43.2605557 L19.2770807,29.8952183 C19.2770807,27.8268002 19.1715231,26.1802306 18.9588893,24.9555094 C18.7462555,23.7307881 18.3862967,22.8334152 17.8782537,22.2633907 C17.3694513,21.6926101 16.7414221,21.3350217 16.0010006,21.1853336 C15.2575416,21.0394254 14.3781487,20.9645814 13.3605439,20.9645814 C12.4279926,20.9645814 11.547081,21.0810055 10.7200872,21.3123417 C9.89309342,21.5451899 9.12913039,21.8188622 8.43047633,22.1363825 C7.72878464,22.4531469 7.11518411,22.8009072 6.5843589,23.1811756 C6.05277429,23.560688 5.66319871,23.8577963 5.4087975,24.0672085 L2.54507525,19.6982801 C2.96882413,19.2333396 3.60520685,18.7593272 4.4527046,18.2724627 C5.30096177,17.7886222 6.27603983,17.3546778 7.38021701,16.9744094 C8.48135657,16.594141 9.68045958,16.2887167 10.9744884,16.0551125 C12.2677578,15.8245322 13.6149451,15.7073521 15.0145315,15.7073521 C16.2865375,15.7073521 17.5274079,15.8343602 18.7371426,16.0876205 C19.9453585,16.3408807 21.0480168,16.7642412 22.0451177,17.3546778 C23.0414591,17.9458703 23.9109797,18.7374031 24.6536793,19.7307881 C25.3948602,20.7211491 25.9150537,21.9564544 26.2112222,23.4344358 C26.5089096,24.9139293 26.7101524,26.4017388 26.8164693,27.9001323 C26.9227862,29.4000378 26.9759447,30.8870913 26.9759447,32.3650728 L26.9759447,40.599433 L26.9759447,41.1059535 Z M7.18884655,40.9161973 C7.18884655,42.8160272 7.58070035,44.2312606 8.36516736,45.1596296 C9.15115318,46.0887545 10.2849472,46.637611 11.7695871,46.8061992 L11.7695871,51.9364203 C11.59948,51.9787564 11.3253343,51.9999244 10.9433527,51.9999244 C9.49972081,51.9999244 8.11076615,51.8101682 6.77496996,51.4298998 C5.43993317,51.0496314 4.26209355,50.4387828 3.24448872,49.592818 C2.22612448,48.7476091 1.43102578,47.629484 0.85843321,46.2361746 C0.285840641,44.8421092 0.000303762636,43.1335475 0.000303762636,41.1059535 C0.000303762636,39.1645436 0.412661541,37.4854659 1.23965532,36.0702325 C2.0666491,34.6572671 3.1275401,33.4952939 4.42156893,32.587337 C5.71407895,31.6793801 7.18884655,31.0042714 8.84283411,30.559743 C10.4968217,30.1174825 12.172832,29.8952183 13.8693463,29.8952183 L16.668519,29.8952183 L16.668519,34.3926668 L15.2689327,34.3926668 C14.4206755,34.3926668 13.5298916,34.4765829 12.5965809,34.645927 C11.6640296,34.8145152 10.7937496,35.1312795 9.98801924,35.595464 C9.18228885,36.0611605 8.51325165,36.7256851 7.98394525,37.589794 C7.45236064,38.4561709 7.18884655,39.565224 7.18884655,40.9161973 L7.18884655,40.9161973 Z" id="Fill-1" fill="#555557"></path>
                <path d="M50.5672901,15.6444528 C52.8584198,15.8553771 54.926284,16.4677377 56.7708826,17.4815347 C58.6154812,18.4953317 60.1958063,19.803213 61.5103391,21.4082026 C62.8248719,23.0131922 63.8326045,24.849518 64.5335367,26.9179361 C65.2329502,28.9878662 65.5815178,31.1424683 65.5815178,33.3794746 C65.5815178,34.3925156 65.5184871,35.4055566 65.3916662,36.4185976 L43.5693584,36.4185976 L43.5693584,30.84536 L58.2661541,30.84536 C58.2661541,29.7476469 58.0854154,28.6915139 57.7254566,27.6777169 C57.3647385,26.6646759 56.8346727,25.7249669 56.1344998,24.8608581 C55.4350864,23.9937252 54.6172055,23.2664525 53.6846542,22.6745039 C52.7513435,22.0833113 51.7132347,21.7242109 50.5672901,21.5979588 L50.5672901,15.6444528 Z M50.3128889,45.7295029 C50.7791646,45.7295029 51.3631482,45.6773389 52.0625617,45.5707428 C52.7627346,45.4664147 53.5039154,45.2766585 54.2899012,45.0014742 C55.0736088,44.7262899 55.8580758,44.3785296 56.6440617,43.9559252 C57.4277693,43.5348327 58.116551,43.0283122 58.7119258,42.4356076 L61.5103391,46.6790399 C60.1107528,48.4110376 58.4780286,49.7196749 56.6114072,50.6072198 C54.7455452,51.4924967 52.369362,51.9362691 49.4858951,51.9362691 C47.1529981,51.9362691 44.9681853,51.4607447 42.9329757,50.5127197 C40.8970066,49.5616708 39.1572061,48.2636175 37.7158524,46.6155358 C36.2737393,44.9689662 35.1285541,43.0494802 34.280297,40.8525421 C33.4312804,38.6571159 33.0075315,36.2923455 33.0075315,33.758987 C33.0075315,31.3518806 33.4001447,29.0710263 34.1853711,26.9179361 C34.9683193,24.764846 36.039842,22.8756001 37.397661,21.2501985 C38.7547206,19.6247968 40.3335269,18.3040635 42.1371176,17.2910225 C43.9391894,16.2772255 45.8802326,15.7072009 47.9587285,15.5809488 L47.9587285,21.6607069 C46.3890351,21.9570592 45.0957656,22.5898318 44.0781608,23.5612928 C43.060556,24.5342657 42.2639385,25.6418068 41.6913459,26.8869401 C41.1202721,28.1328293 40.7155084,29.4097146 40.4838894,30.7183519 C40.2499922,32.0285012 40.1330436,33.1473823 40.1330436,34.0749953 C40.1330436,35.7223209 40.3335269,37.2532225 40.7382906,38.6676999 C41.1407761,40.0829333 41.7657677,41.3068985 42.6147843,42.3403515 C43.4638009,43.3760726 44.511782,44.2001134 45.7648028,44.810962 C47.0147861,45.4240786 48.5313211,45.7295029 50.3128889,45.7295029 L50.3128889,45.7295029 Z" id="Fill-3" fill="#555557"></path>
                <path d="M73.4584627,43.7021357 C74.305201,44.2948403 75.3129336,44.8421848 76.4801415,45.3502174 C77.64659,45.8567379 79.1205982,46.1099981 80.9021661,46.1099981 L81.2203575,46.1099981 L81.2203575,52 C80.1594664,52 79.1843884,51.967492 78.292845,51.9054999 C77.4020611,51.8412398 76.5219089,51.6938197 75.6531477,51.4609715 C74.7836272,51.2303912 73.9042344,50.9022869 73.0119316,50.4796825 C72.1211477,50.0593461 71.1885964,49.5089775 70.2142777,48.8323568 L73.4584627,43.7021357 Z" id="Fill-5" fill="#9BC01C"></path>
                <path d="M79.9624004,29.1158571 C78.9242916,28.6342846 78.1064107,27.9478359 77.8140392,26.8077868 C77.3363724,24.9434889 78.2689237,22.5091665 80.2532532,21.9308259 C81.8039614,21.4787375 83.5278144,21.5807976 85.1119365,21.7297297 C87.2602978,21.9323379 89.4192907,22.5091665 91.3367924,23.4987715 L93.689434,18.5144585 C93.9339629,17.996598 93.2861891,17.9073899 92.8472521,17.6632017 C91.8212938,17.0924211 90.7398988,16.6176526 89.6174958,16.2683803 C88.3143541,15.8631639 86.9724827,15.5479115 85.6146637,15.4027594 C81.5358909,14.965791 77.1351297,15.6076356 73.8468992,18.2044982 C70.7401668,20.6592327 69.3405805,24.962389 70.4318477,28.7779248 C71.5276714,32.6085806 75.6535274,34.7231147 79.108068,36.0559441 C81.0825252,36.8179928 83.132923,37.3313173 85.1210494,38.04347 C86.5905012,38.5696466 87.953636,39.5161595 88.278662,41.1559252 C88.6264702,42.9083349 87.7030318,44.3863164 86.1477671,45.1468531 C85.9374115,45.2489132 83.8292988,45.9089019 83.8292988,45.8612739 L83.8292988,46.5809866 L83.8292988,51.8729919 C86.5905012,51.5743716 89.4238472,50.7457947 91.5722084,48.9245889 C93.689434,47.1298431 94.9014469,44.5934606 95.0153579,41.8370818 C95.1300283,39.0769231 94.1951988,36.6924967 92.0802514,34.8697789 C91.014804,33.951238 89.7549484,33.2776413 88.4776265,32.7000567 C87.2230869,32.1330561 85.9571561,31.5320355 84.6486985,31.0965791" id="Fill-7" fill="#555557"></path>
                <mask id="mask-2" fill="white">
                    <use xlink:href="#path-1"></use>
                </mask>
                <g id="Clip-10"></g>
                <path d="M128.594115,51.6832357 L136.356769,51.6832357 L136.356769,15.960688 L128.594115,15.960688 L128.594115,51.6832357 Z M137.056942,4.56095256 C137.056942,5.82649783 136.61193,6.89472689 135.719627,7.75883576 C134.828843,8.62521263 133.747448,9.05613306 132.475442,9.05613306 C131.202677,9.05613306 130.130395,8.61387261 129.262393,7.72783973 C128.392113,6.84029484 127.958492,5.78567379 127.958492,4.56095256 C127.958492,3.29313929 128.403504,2.21735022 129.294288,1.32980533 C130.185072,0.443016443 131.244444,0 132.475442,0 C133.747448,0 134.828843,0.443016443 135.719627,1.32980533 C136.61193,2.21735022 137.056942,3.29313929 137.056942,4.56095256 L137.056942,4.56095256 Z" id="Fill-9" fill="#9BC01C" mask="url(#mask-2)"></path>
                <path d="M167.963803,41.1059535 C167.963803,41.4446418 167.984307,41.9405783 168.027593,42.593763 C168.07012,43.2492156 168.154414,43.9144963 168.281994,44.588849 C168.408815,45.2654697 168.610058,45.8778303 168.886482,46.4266868 C169.162147,46.9755434 169.532737,47.3346437 170.000532,47.5032319 L167.963803,51.7466641 C167.411715,51.7466641 166.82925,51.619656 166.213371,51.3663958 C165.599011,51.1131355 165.005155,50.7547912 164.433322,50.2898507 C163.860729,49.8256662 163.371671,49.3085617 162.969945,48.7385371 C162.565941,48.1685126 162.259141,47.5463239 162.047266,46.8697033 C161.622758,47.9258363 160.785133,48.8647893 159.533631,49.6888301 C158.281369,50.5121149 156.893174,51.1131355 155.366767,51.4926479 L155.366767,46.6791911 C156.384371,46.4682669 157.30781,46.0577585 158.134804,45.4438858 C158.961797,44.8330372 159.671083,44.1042525 160.265698,43.2605557 L160.265698,29.8952183 C160.265698,27.8268002 160.159382,26.1802306 159.947507,24.9555094 C159.734873,23.7307881 159.374155,22.8334152 158.866112,22.2633907 C158.35655,21.6926101 157.73004,21.3350217 156.9881,21.1853336 C156.246159,21.0394254 155.366767,20.9645814 154.347643,20.9645814 C153.415092,20.9645814 152.535699,21.0810055 151.707946,21.3123417 C150.880952,21.5451899 150.117748,21.8188622 149.417575,22.1363825 C148.718162,22.4531469 148.102283,22.8009072 147.572977,23.1811756 C147.041392,23.560688 146.650298,23.8577963 146.395897,24.0672085 L143.532174,19.6982801 C143.956683,19.2333396 144.593065,18.7593272 145.442082,18.2724627 C146.28958,17.7886222 147.265417,17.3546778 148.367316,16.9744094 C149.469974,16.594141 150.669077,16.2887167 151.963106,16.0551125 C153.255616,15.8245322 154.603563,15.7073521 156.003149,15.7073521 C157.275155,15.7073521 158.516026,15.8343602 159.724242,16.0876205 C160.933217,16.3408807 162.035116,16.7642412 163.033736,17.3546778 C164.028558,17.9458703 164.899598,18.7374031 165.640778,19.7307881 C166.383478,20.7211491 166.903672,21.9564544 167.19984,23.4344358 C167.496009,24.9139293 167.698011,26.4017388 167.805087,27.9001323 C167.910645,29.4000378 167.963803,30.8870913 167.963803,32.3650728 L167.963803,40.599433 L167.963803,41.1059535 Z M148.176705,40.9161973 C148.176705,42.8160272 148.568559,44.2312606 149.353785,45.1596296 C150.138252,46.0887545 151.272806,46.637611 152.758205,46.8061992 L152.758205,51.9364203 C152.588098,51.9787564 152.313193,51.9999244 151.931211,51.9999244 C150.487579,51.9999244 149.099384,51.8101682 147.763588,51.4298998 C146.427032,51.0496314 145.250711,50.4387828 144.233107,49.592818 C143.213983,48.7476091 142.419644,47.629484 141.847051,46.2361746 C141.273699,44.8421092 140.988162,43.1335475 140.988162,41.1059535 C140.988162,39.1645436 141.40052,37.4854659 142.228273,36.0702325 C143.056026,34.6572671 144.115399,33.4952939 145.409427,32.587337 C146.702697,31.6793801 148.176705,31.0042714 149.831452,30.559743 C151.485439,30.1174825 153.16069,29.8952183 154.857964,29.8952183 L157.657137,29.8952183 L157.657137,34.3926668 L156.257551,34.3926668 C155.408534,34.3926668 154.51775,34.4765829 153.584439,34.645927 C152.651888,34.8145152 151.780849,35.1312795 150.976637,35.595464 C150.169388,36.0611605 149.501869,36.7256851 148.972563,37.589794 C148.441738,38.4561709 148.176705,39.565224 148.176705,40.9161973 L148.176705,40.9161973 Z" id="Fill-11" fill="#555557" mask="url(#mask-2)"></path>
                <path d="M113.984423,38.0335664 C115.021773,38.5151389 115.840413,39.2015876 116.132784,40.3416367 C116.610451,42.2059346 115.677141,44.640257 113.692811,45.2185976 C112.142862,45.6706861 110.419009,45.568626 108.835647,45.4196938 C106.686526,45.2170856 104.527533,44.640257 102.610031,43.6506521 C101.826324,45.3115857 101.041857,46.9740314 100.25739,48.635721 C100.012861,49.1528256 100.660635,49.2420336 101.099572,49.4862219 C102.12553,50.0577585 103.206925,50.5317709 104.329328,50.8817993 C105.63247,51.2862597 106.974341,51.601512 108.33216,51.7466641 C112.411692,52.1836326 116.812453,51.5417879 120.099925,48.9441693 C123.206657,46.4901909 124.606243,42.1870346 123.514976,38.3714988 C122.419152,34.5408429 118.293296,32.4263088 114.838756,31.0934795 C112.863539,30.3314307 110.813901,29.8181062 108.825774,29.1059535 C107.356323,28.579777 105.993947,27.633264 105.668162,25.9934984 C105.320353,24.2410886 106.243792,22.7631072 107.799057,22.0025704 C108.009412,21.9005103 110.117525,21.2405216 110.117525,21.2881497 L110.117525,20.568437 L110.117525,15.2764317 C107.356323,15.575052 104.522217,16.4036288 102.374615,18.2248346 C100.25739,20.0195804 99.0453768,22.555963 98.9314658,25.3123417 C98.8167954,28.0725005 99.7516249,30.4569269 101.866572,32.2796447 C102.93202,33.1981856 104.191875,33.8717823 105.468438,34.4493668 C106.723737,35.0163674 107.989668,35.617388 109.298125,36.0528445" id="Fill-12" fill="#9BC01C" mask="url(#mask-2)"></path>
                <path d="M120.21019,23.5979588 C119.363452,23.0052542 118.355719,22.4579097 117.188512,21.9498771 C116.022063,21.4433566 114.548055,21.1900964 112.766487,21.1900964 L112.448296,21.1900964 L112.448296,15.3000945 C113.509187,15.3000945 114.484265,15.3326025 115.375808,15.3945946 C116.266592,15.4588547 117.146744,15.6062748 118.015505,15.839123 C118.885026,16.0697033 119.764419,16.3978076 120.656721,16.820412 C121.547505,17.2407484 122.480057,17.791117 123.454375,18.4677377 L120.21019,23.5979588 Z" id="Fill-13" fill="#555557" mask="url(#mask-2)"></path>
            </g>
        </g>
    </g>
</svg>