<?xml version="1.0" encoding="UTF-8"?>
<svg width="204px" height="80px" viewBox="0 0 204 80" version="1.1" xmlns="http://www.w3.org/2000/svg" xmlns:xlink="http://www.w3.org/1999/xlink">
    <title>ascensores-logo@3x</title>
    <g id="Symbols" stroke="none" stroke-width="1" fill="none" fill-rule="evenodd">
        <g id="organisms/footer-desktop" transform="translate(-1056.000000, -489.000000)">
            <g id="ascensores-logo" transform="translate(1056.000000, 489.000000)">
                <rect id="Rectangle-Copy-28" x="0" y="0" width="204" height="80"></rect>
                <path d="M8.85817058,6.21378529 L8.85817058,74 L2.26485497e-13,74 L2.26485497e-13,6.21378529 L8.85817058,6.21378529 Z M31.003597,6.21378529 L31.003597,74 L17.7163412,74 L17.7163412,6.21378529 L31.003597,6.21378529 Z M49,6 L49,73.7862147 L40.1418294,73.7862147 L40.1418294,6 L49,6 Z M39.0345581,64.8962193 L39.0345581,73.7862147 L32.3909302,73.7862147 L32.3909302,64.8962193 L39.0345581,64.8962193 Z M16.6090698,6.21378529 L16.6090698,15.1037807 L9.96544191,15.1037807 L9.96544191,6.21378529 L16.6090698,6.21378529 Z" fill="#787878"></path>
            </g>
        </g>
    </g>
</svg>