<?xml version="1.0" encoding="UTF-8"?>
<svg width="204px" height="80px" viewBox="0 0 204 80" version="1.1" xmlns="http://www.w3.org/2000/svg" xmlns:xlink="http://www.w3.org/1999/xlink">
    <title>bureau-veritas-logo@3x</title>
    <defs>
        <polygon id="path-1" points="0 0 44.6409582 0 44.6409582 55.9376835 0 55.9376835"></polygon>
    </defs>
    <g id="Symbols" stroke="none" stroke-width="1" fill="none" fill-rule="evenodd">
        <g id="organisms/footer-desktop" transform="translate(-1288.000000, -489.000000)">
            <g id="bureau-veritas-logo" transform="translate(1288.000000, 489.000000)">
                <path d="M23.147018,1.32667228 C23.254009,1.2902565 23.0404785,1.36172247 23.147018,1.32667228" id="Fill-1" fill="#231F20"></path>
                <path d="M23.147018,1.32667228 C23.1668813,1.32029952 23.1289605,1.33304504 23.147018,1.32667228" id="Fill-3" fill="#231F20"></path>
                <g id="Group-7" transform="translate(9.867681, 0.000000)">
                    <mask id="mask-2" fill="white">
                        <use xlink:href="#path-1"></use>
                    </mask>
                    <g id="Clip-6"></g>
                    <path d="M22.3195762,55.9376835 L22.3859377,55.9376835 C25.5103443,55.9376835 28.4532726,55.4765687 31.2973358,54.6103284 C34.3540266,53.5378838 37.2563254,51.3852562 39.0101644,48.7068758 C41.9007258,44.4412227 44.52855,36.1925939 44.6409582,27.9812914 L44.6409582,27.9567107 C44.52855,19.7431322 41.9007258,11.4972347 39.0101644,7.22976079 C37.2563254,4.55046999 34.4208395,2.40011835 31.3627944,1.32676332 C28.5173769,0.460978219 25.4430799,-0.000136559164 22.3195762,-0.000136559164 C19.1978782,-0.000136559164 16.122227,0.460978219 13.2795181,1.32676332 C10.221473,2.40011835 7.38688994,4.55046999 5.63530814,7.22976079 C2.74023235,11.4972347 0.114213968,19.7431322 0,27.9567107 L0,27.9812914 C0.114213968,36.1925939 2.74023235,44.4412227 5.63530814,48.7068758 C7.38688994,51.3852562 10.221473,53.529235 13.2795181,54.6012245 C16.122227,55.4670096 19.1315168,55.9376835 22.2550205,55.9376835 L22.3195762,55.9376835 Z" id="Fill-5" fill="#8B8675" mask="url(#mask-2)"></path>
                </g>
                <path d="M52.7836918,27.9683638 C52.884814,34.1540387 51.0154068,41.6634272 49.2132638,45.6591483 C47.2183566,50.223866 44.1684374,53.0019346 39.6924236,54.2364294 C37.28129,54.8577736 34.7523309,55.1777773 32.1511416,55.1777773 C29.5517581,55.1777773 27.0079016,54.8577736 24.5981223,54.2364294 C20.1203027,53.0019346 17.0703835,50.223866 15.0763792,45.6591483 C13.2728819,41.6634272 11.4057319,34.1540387 11.5050484,27.9683638 C11.4057319,21.7835992 13.2728819,14.2764868 15.0763792,10.2789449 C17.0703835,5.71513758 20.1203027,2.93615859 24.5981223,1.70120855 C27.0079016,1.07804356 29.5517581,0.758950315 32.1511416,0.758950315 C34.7523309,0.758950315 37.28129,1.07804356 39.6924236,1.70120855 C44.1684374,2.93615859 47.2183566,5.71513758 49.2132638,10.2789449 C51.0154068,14.2764868 52.884814,21.7835992 52.7836918,27.9683638" id="Fill-8" fill="#FEFEFE"></path>
                <path d="M32.223417,7.36490885 C34.366396,7.36490885 36.5066665,7.66807019 38.4803561,8.20474771 C40.5808999,8.81016 42.3072012,10.2699775 43.1739633,12.2591893 C45.0591709,16.3359355 46.297467,22.2034276 46.297467,27.9685004 C46.297467,33.7344835 45.0591709,39.6010652 43.1739633,43.676901 C42.3072012,45.6670232 40.5808999,47.1277511 38.4803561,47.7317978 C36.5066665,48.2693857 34.366396,48.5711815 32.223417,48.5711815 L32.1543469,48.5711815 C30.0122707,48.5711815 27.8720002,48.2693857 25.8978592,47.7317978 C23.7968639,47.1277511 22.0705627,45.6670232 21.2024462,43.676901 C19.3185929,39.6010652 18.0793939,33.7344835 18.0793939,27.9685004 C18.0793939,22.2034276 19.3185929,16.3359355 21.2024462,12.2591893 C22.0705627,10.2699775 23.7968639,8.81016 25.8978592,8.20474771 C27.8720002,7.66807019 30.0122707,7.36490885 32.1543469,7.36490885 L32.223417,7.36490885 Z" id="Fill-10" fill="#8B8675"></path>
                <path d="M35.2543306,15.2359515 C34.957284,14.7302274 35.2019638,15.1826934 34.8904711,14.5936682 L35.2543306,15.2359515 Z" id="Fill-12" fill="#FEFEFE"></path>
                <polygon id="Fill-14" fill="#FEFEFE" points="28.8838999 26.8635091 28.8838999 28.9373876 21.8071482 28.9396636 21.8071482 26.8671507"></polygon>
                <path d="M27.2835951,44.8199923 C27.1319118,44.4922503 27.0750305,44.376175 27.060133,44.0388738 C28.5408517,44.0388738 29.5389824,44.0388738 31.1072802,44.0397842 C31.0982514,44.6055944 30.7781814,45.1595694 30.2712159,45.5300999 C29.7091748,45.9420534 28.7769541,46.031272 28.1557745,45.6816806 C27.799138,45.511892 27.4781652,45.1595694 27.2835951,44.8199923" id="Fill-16" fill="#FEFEFE"></path>
                <path d="M31.6496385,43.1614812 L29.4800245,43.1651228 L29.4800245,42.1509434 L31.6568615,42.150033 L32.3421453,41.3334092 C32.6771128,41.725334 32.6996847,41.7540114 33.0463895,42.150033 L35.2218722,42.150033 L35.2218722,43.1651228 L33.0423266,43.1614812 L33.0423266,45.681453 L31.6496385,45.681453 L31.6496385,43.1614812 Z" id="Fill-18" fill="#FEFEFE"></path>
                <path d="M31.9075454,40.017343 C32.3513095,39.8671279 32.9797121,39.6099415 33.1083721,39.1743178 C33.0740627,38.5001707 33.5345301,37.9566652 33.8798807,37.4190773 C34.0518788,37.1841956 34.0744507,37.0430844 34.0247924,36.79045 C34.7168478,36.818217 35.4188349,37.399959 35.6856351,38.0549878 C35.9605612,38.717755 35.8558274,39.5862713 35.4283151,40.1420671 C34.8947146,40.7970958 34.157064,41.1394041 33.2952677,40.9841819 C32.7535413,40.8599131 32.219038,40.5298951 31.9075454,40.017343" id="Fill-20" fill="#FEFEFE"></path>
                <path d="M26.6853487,30.9180417 C26.2980144,30.7273141 25.7761513,30.6471994 25.3454789,30.8543141 C24.9974197,30.9503607 24.6308516,31.3655006 24.598348,31.7774541 C24.5748732,33.0124041 24.6191142,33.392949 24.598348,34.7494367 C24.5748732,34.9633794 24.4638193,35.0644332 24.1992763,35.0644332 C23.9749113,35.0521428 23.8083305,34.9397091 23.8105876,34.7444295 L23.8105876,31.7146369 C23.7916272,31.3928124 23.7401632,31.0791816 23.517604,30.8370166 L21.9605922,31.3472927 L21.8188405,31.3982748 C22.2147522,31.6932426 22.395779,31.7018913 22.4305398,32.190318 L22.4260254,36.0676878 L22.4495002,36.2725266 L22.5054786,36.4081753 L22.5497196,36.5310786 L22.6038922,36.631222 C22.8612123,37.0449962 23.2941419,37.2147848 23.5979601,37.2908027 C23.7320373,37.3313153 23.9685912,37.3504336 24.1017655,37.3517992 C24.5039973,37.35362 24.8859144,37.3258529 25.2989807,37.0358923 C25.9382178,36.529713 25.7982718,35.6452648 25.8154265,34.3593327 C25.8185866,33.9983613 25.8429643,33.7944329 26.0664264,33.5886838 C26.2515162,33.4452967 26.510642,33.4006873 26.7503559,33.4539454 C27.021219,33.5276874 27.0641057,33.549992 27.3363232,33.7302501 C27.3426433,32.6204793 27.3765012,31.2521565 26.6853487,30.9180417" id="Fill-22" fill="#FEFEFE"></path>
                <path d="M41.1216782,35.7827344 C39.9867616,34.6565765 38.020295,33.0879669 37.8591314,32.4233789 C37.6898419,31.9750097 37.7453689,31.4369666 37.7354372,30.9171313 C38.0627302,30.6567585 38.3335934,30.4305255 38.729505,30.117805 C38.6997101,30.9130346 38.5900105,31.719644 38.9683161,32.190318 C39.8978282,33.1221067 40.7384068,33.9651319 41.5744711,34.7899492 C41.8877695,35.130892 42.134255,35.6143114 41.9302048,36.0635911 C41.832694,36.2779889 41.6999711,36.5192435 41.5564136,36.7167991 C41.5564136,36.2811753 41.3704209,36.0299065 41.1216782,35.7827344" id="Fill-24" fill="#FEFEFE"></path>
                <path d="M34.6891295,30.0698728 C35.5540859,30.0571273 35.8357836,30.0803423 36.7364036,30.0635 L36.7364036,36.1881785 L34.6819065,36.1881785 L34.6891295,30.0698728 Z" id="Fill-26" fill="#FEFEFE"></path>
                <path d="M39.2837362,30.6377768 C39.5008782,30.3942463 39.5780742,30.3054829 39.833137,30.0546692 L40.3504856,30.6810206 L40.3504856,32.4230603 C41.0800104,32.0643649 40.9034979,31.0219633 40.9034979,30.1156656 C41.3350733,30.4729954 41.5531181,30.675103 41.9670873,31.0665726 C42.2022868,32.1089742 41.5811073,32.7025514 41.1161255,33.4335981 L39.2837362,31.6683433 L39.2837362,30.6377768 Z" id="Fill-28" fill="#FEFEFE"></path>
                <path d="M40.9519825,25.9544348 L41.2282629,24.7868539 L42.1261743,24.6512051 L42.1239171,21.7593372 C41.7763093,21.8103193 41.6350091,21.8485559 41.3533114,21.8817853 L41.3533114,19.6863691 C40.8824609,19.7833261 40.3818155,19.9553907 39.885233,20.0719212 L39.885233,23.7121333 C39.8789129,23.8882946 39.6003753,23.947015 39.543494,23.9447391 L39.4681037,23.9447391 C39.2893341,23.9447391 39.1137244,23.8209254 39.1137244,23.6980222 L39.1137244,20.1902724 L37.6772468,20.3750825 L37.6772468,21.8562942 C37.1716355,22.8955095 36.4208931,23.8373125 35.694077,24.7868539 C36.4687456,24.8410224 36.5233697,24.8410224 37.2953297,24.9129435 L37.7670831,25.9544348 L40.9519825,25.9544348 Z" id="Fill-30" fill="#FEFEFE"></path>
                <path d="M24.6298584,25.2338576 C24.6068351,24.274757 24.5662056,23.6479505 24.5454394,22.7047818 C24.8402288,22.6246671 25.1241837,22.811298 25.353966,22.981997 C25.316948,24.1850832 25.316948,24.1732481 25.2925703,25.4314132 L24.63663,25.4314132 L24.6298584,25.2338576 Z" id="Fill-32" fill="#FEFEFE"></path>
                <path d="M24.5028688,19.7290666 C24.3448652,18.7877188 24.3317735,18.7162528 24.243743,18.026629 L23.6487469,18.026629 L23.6487469,17.3643171 C24.6784784,17.3606755 25.2481939,17.3665931 26.2792797,17.3665931 L26.2801826,18.026629 L25.666226,18.026629 L25.3994258,20.2489018 C25.1317227,20.0062817 24.8310646,19.8369484 24.5028688,19.7290666" id="Fill-34" fill="#FEFEFE"></path>
                <path d="M24.3961938,16.8902747 C23.51634,15.9393677 23.4517842,14.5123245 23.6210737,13.2200196 L23.622428,13.2154676 C23.7849459,13.6961559 24.0869584,14.0398298 24.5591631,14.2628764 C24.5063448,14.0106971 24.2837856,13.7794569 24.2120069,13.5090698 C24.0075052,12.9892346 24.026917,12.2454423 24.3632388,11.7879691 C24.6034041,11.4292737 24.9464975,11.2817898 25.3234487,11.1602522 C25.1812455,11.5913239 25.1370046,12.1088832 25.3126142,12.5445069 C25.5581968,12.3524137 25.5712885,12.339213 25.7613442,12.1539477 C25.8353801,12.0852129 25.869238,12.0601771 25.9306336,12.0160229 C26.2800471,12.7698295 26.678216,13.8081344 26.4475308,14.6884858 L26.3021676,15.0694859 C26.2475435,14.4472313 26.1473242,14.1504427 25.7324521,13.9223889 C25.6796338,14.2851811 25.9085131,14.5423675 25.9613315,15.0148622 C26.1306209,15.7449985 25.9974466,16.4651205 25.5509738,16.8902747 L24.3961938,16.8902747 Z" id="Fill-36" fill="#FEFEFE"></path>
                <path d="M35.2543306,15.2359515 L34.3460362,16.2392061 C34.100905,16.0052348 34.0805903,15.9788333 33.8359105,15.7207365 C34.3031495,15.2273027 34.3496477,15.1740447 34.8904711,14.5936682 L35.2543306,15.2359515 Z" id="Fill-38" fill="#FEFEFE"></path>
                <path d="M36.4433296,12.7950475 C36.6275166,11.9251656 36.7259302,10.9232765 37.6744027,10.5595739 C38.0319421,10.4576098 38.5190444,10.5049503 38.8228625,10.7739718 C39.2291573,11.0716708 39.3447256,11.5719325 39.2458605,12.0385097 C38.9646143,13.0481371 37.8464008,13.234768 36.9417179,13.4792089 L36.4433296,12.7950475 Z" id="Fill-40" fill="#FEFEFE"></path>
                <polygon id="Fill-42" fill="#FEFEFE" points="42.7250979 26.8635091 42.7250979 28.9514987 35.6492491 28.9396636 35.6492491 26.8671507"></polygon>
                <path d="M25.6385529,40.7970503 C25.3536951,39.4787992 26.9296673,39.0044837 27.3025556,37.9106448 C27.5968935,36.0816624 27.6849241,34.1543574 28.9471464,32.7305005 C29.071292,30.0398298 29.9348941,27.6641555 31.8282276,25.7099939 C31.7383913,25.1082231 31.4919058,24.5801944 31.3131362,24.016205 C31.0630392,24.0057355 30.8969098,23.9611262 30.6725448,23.7558322 C30.5086726,23.5232264 30.4418596,23.3502515 30.3962643,23.0643876 C29.7389697,23.8901154 28.920963,24.8137105 28.0221487,25.3685959 C27.8560193,25.4623666 27.6456489,25.264811 27.3467965,24.9830439 C26.2430292,24.1063341 26.0574879,22.1153015 24.3758791,22.2040649 C23.6129478,21.9455129 23.6486115,21.0396704 23.5240144,20.3591506 C23.8084207,20.1520359 24.2666309,20.161595 24.6065642,20.2949678 C25.6575133,20.8594123 26.3554374,22.0524842 27.3467965,22.8509002 C27.6135968,23.0643876 27.850602,23.3447891 28.0952818,23.4453877 C28.743999,22.8818536 29.2672164,22.3975237 29.7064662,21.5230899 C30.0138958,21.0305665 30.5213128,20.8157134 31.082451,20.8070647 L31.4810713,20.3313836 L31.2684437,19.1474156 C30.8585375,18.6189317 30.5213128,18.0645014 30.2450324,17.4704691 C30.387687,16.7908596 30.4766204,16.0010925 31.1605499,15.6246444 C31.6047655,15.3469741 31.9690765,15.9833398 32.3333874,15.5795799 C32.6019934,15.5231354 32.83313,15.5977877 33.0177683,15.750734 C33.2949516,16.2359742 33.623599,16.7193937 33.6403022,17.2838382 C33.4719156,17.8314405 33.2127898,18.3417165 32.9563727,18.852903 C32.8976857,18.9689783 32.7428422,19.0044837 32.6358513,19.0855088 C32.6972469,19.3181146 32.7532253,19.5789426 32.9121317,19.7578351 C33.1175363,19.8028996 33.3084948,19.8370394 33.5513688,19.7928853 C33.748196,19.1933905 34.388336,18.924369 34.9210335,18.7632292 L36.0952253,17.9916699 C35.9078783,17.0953866 36.4780453,16.3065298 36.1584267,15.4111569 C35.4893947,15.0961604 35.2979847,14.3296083 35.1521701,13.7342103 C35.2600639,13.3577623 35.4419937,12.9640167 35.7074396,12.6490202 L35.7467147,12.6949951 C36.388209,13.4460705 36.9755306,14.218085 37.1795809,15.1507841 C37.2956006,16.34158 37.4098146,17.5615085 37.3312642,18.8082937 C36.6992502,19.4451146 35.9354161,19.8201971 35.2140172,20.2949678 L34.6822225,21.3268999 C34.6194725,22.3920614 34.3084313,23.3525275 34.1463649,24.3844596 C34.601415,25.6289688 35.1413356,27.2886178 34.7440696,28.4443635 C34.4398,29.1317113 33.7969514,29.507249 33.3229408,29.8882491 L32.1203084,30.8564536 C33.3270038,32.1956438 33.0358259,33.7141817 33.0868384,35.6569634 C33.0741982,36.1239957 33.9071024,36.5163757 33.4628868,37.0507772 C33.0909014,37.6493616 32.5121571,38.135057 32.6096678,38.9234586 C32.2412939,39.5470788 31.35828,39.6827275 30.9402479,39.6772652 C30.8513145,39.6827275 30.7795357,39.614448 30.7795357,39.5243189 C30.8675663,39.2015841 31.1163089,38.9516808 31.2485804,38.6462435 C31.6778986,37.9825659 31.4810713,37.0676195 32.0146718,36.4508273 C31.575422,35.0078522 30.9127101,33.6709379 30.7330375,32.129185 L30.719043,32.0335936 C30.3624064,32.7400596 30.5578794,33.4346906 30.7465807,33.991852 C29.5629087,35.4976444 28.280823,36.9428955 28.280823,38.9234586 C27.773406,39.8297562 27.0538129,40.655484 26.6791188,41.6123085 C26.5518132,41.772538 26.3170651,41.6323372 26.1730562,41.5522225 C25.8358315,41.3237135 25.755024,41.1065844 25.6385529,40.7970503" id="Fill-44" fill="#FEFEFE"></path>
                <path d="M38.6290599,34.3013406 C39.7639766,35.4270433 41.7313461,36.9974737 41.8911553,37.6620616 C42.0590905,38.1104308 42.0071751,38.6480188 42.0139466,39.1692196 C41.6857508,39.428682 41.4157905,39.654915 41.0185245,39.9653595 C41.0474166,39.1737715 41.1584705,38.3667069 40.7788106,37.8951226 C39.8511043,36.9633339 39.010977,36.121219 38.1735584,35.2959465 C37.8638715,34.9568245 37.6146774,34.4711291 37.8178248,34.0227599 C37.9153355,33.808362 38.0489613,33.5661971 38.1916159,33.3686415 C38.1916159,33.8065412 38.3812202,34.0546237 38.6290599,34.3013406" id="Fill-46" fill="#FEFEFE"></path>
                <path d="M40.4661442,39.4496666 C40.2494537,39.6909211 40.1700005,39.7819605 39.9158406,40.032319 L39.3984919,39.4050572 L39.3984919,37.6621071 C38.66987,38.0217129 38.8459311,39.0632041 38.8459311,39.9685914 C38.4148072,39.6130824 38.1981167,39.41143 37.7809874,39.0185948 C37.5480451,37.9761932 38.169676,37.3835264 38.6351092,36.6524797 L40.4661442,38.4177345 L40.4661442,39.4496666 Z" id="Fill-48" fill="#FEFEFE"></path>
                <path d="M37.4034944,44.8199923 C37.5556292,44.4922503 37.6098019,44.376175 37.627408,44.0388738 C36.1435293,44.0388738 35.1508158,44.0388738 33.5811637,44.0397842 C33.5910954,44.6055944 33.9102625,45.1595694 34.4176795,45.5300999 C34.976109,45.9420534 35.9114898,46.031272 36.5317665,45.6816806 C36.888403,45.511892 37.2080215,45.1595694 37.4034944,44.8199923" id="Fill-50" fill="#FEFEFE"></path>
                <path d="M32.9018841,53.7199172 C32.8824722,52.5887521 33.9812738,52.0147484 34.6724263,51.2664042 C34.8597733,51.0838701 34.928392,50.7265403 34.7947661,50.4288413 C34.7126043,50.2408448 34.5929731,50.1502606 34.4417411,50.1129344 C34.1993186,50.05649 33.993914,50.0924506 33.8404249,50.2280993 C33.626443,50.4292965 33.5654988,50.6901245 33.5767848,50.9732572 L32.8097906,51.0196873 C32.7434291,50.5908915 32.8477114,50.1748412 33.1081915,49.8502856 C33.464828,49.4624576 34.0029428,49.3536655 34.5275145,49.3900813 C34.9496096,49.4597264 35.4353575,49.7155473 35.6078071,50.1566334 C35.8312692,50.635956 35.7549761,51.2495619 35.4037568,51.653777 C34.9509639,52.1403828 34.3573221,52.4048524 33.9812738,52.953365 L35.9220083,52.8404761 C35.9382601,53.0830963 35.9509004,53.3166124 35.9635407,53.5378383 L32.9018841,53.7199172 Z" id="Fill-52" fill="#8B8675"></path>
                <path d="M26.0143755,48.8278672 L26.0017352,48.8651933 L24.7368042,52.774427 L23.9291806,52.5076815 L24.7981999,49.8306666 L24.8099373,49.7851469 C24.4903188,49.6718028 24.1016301,49.5598243 23.7874288,49.4478458 L23.9526554,48.9421217 C24.3607559,49.0486378 24.7801423,49.1191934 25.1367788,48.8210392 C25.2663417,48.7204406 25.2884622,48.6922184 25.3579838,48.6130141 L26.0143755,48.8278672 Z" id="Fill-54" fill="#8B8675"></path>
                <path d="M40.4039811,51.7626602 C40.2992474,51.8837426 40.1155119,51.9775133 39.9168789,52.025309 C39.7168916,52.0753807 39.511487,52.080843 39.364318,52.020757 C39.1647821,51.9451943 39.0266419,51.787696 38.9760808,51.6078931 C38.9006906,51.3425131 38.9760808,51.0584701 39.2049602,50.8973303 C39.3020195,50.8276851 39.4437712,50.7639575 39.5954546,50.7220793 C39.7521038,50.6861188 39.9083015,50.67747 40.0247727,50.6934019 C40.3010531,50.7289073 40.5001375,50.94285 40.5552131,51.2141475 C40.592231,51.3962264 40.5457328,51.6015204 40.4039811,51.7626602 M38.7070234,49.8790541 C38.6095127,49.7078999 38.6077069,49.4234017 38.7833165,49.2522475 C38.8808273,49.1457314 39.0288991,49.0688031 39.1846454,49.0328425 C39.3390374,48.9918747 39.5056183,48.9891435 39.6419528,49.0392152 C39.8726379,49.1084052 40.0035551,49.3624053 39.9976864,49.5576849 C39.9954292,49.7092655 39.9263591,49.8289824 39.8311055,49.9209322 C39.731789,50.0087853 39.5918431,50.0743337 39.4460284,50.1084735 C39.3020195,50.1480757 39.1516904,50.153538 39.0234819,50.1221294 C38.8943704,50.0848032 38.7792536,50.0110613 38.7070234,49.8790541 M41.3750256,50.9942873 C41.2743548,50.6091904 41.0621786,50.3005667 40.6369234,50.1767531 L40.3899865,50.1221294 C40.6418893,49.9418713 40.8748316,49.5799895 40.790864,49.2267565 C40.7330799,48.8234518 40.4428048,48.5667205 40.0812025,48.4274302 C39.7638412,48.3304732 39.3918558,48.3454947 39.0397337,48.4401757 C38.6835486,48.5225664 38.3481297,48.6823406 38.1115759,48.9172224 C37.8551587,49.2112798 37.71747,49.5736168 37.8519987,49.9568928 C37.9395778,50.3105811 38.3147232,50.5213374 38.6194443,50.5641259 L38.42668,50.7266313 C38.1048043,51.0357102 38.0623691,51.4085167 38.1494967,51.7968 C38.2461046,52.2287821 38.5896494,52.5674488 39.0076815,52.6912625 C39.3250429,52.7745636 39.7051542,52.7691012 40.0766881,52.6798826 C40.445062,52.5870223 40.7872525,52.4126818 41.0283207,52.1896352 C41.342522,51.8814666 41.4910453,51.4244486 41.3750256,50.9942873" id="Fill-56" fill="#8B8675"></path>
                <path d="M29.7398275,52.9046589 C29.6057502,52.9870496 29.4021514,53.0234654 29.1981011,53.0084439 C28.9949538,52.9988848 28.7958693,52.9387987 28.6753352,52.8395657 C28.5037886,52.7080137 28.4211753,52.5154653 28.4243354,52.3261033 C28.4311069,52.0511642 28.5873047,51.8035369 28.853202,51.7179598 C28.9651588,51.6824544 29.1209051,51.660605 29.2784572,51.6674329 C29.4364607,51.6797232 29.5908527,51.7193254 29.6969408,51.7693971 C29.9497464,51.8854724 30.0766007,52.1503972 30.0472572,52.4276123 C30.0291996,52.6106015 29.9222087,52.7949564 29.7398275,52.9046589 M28.6784953,50.5972643 C28.6360601,50.407447 28.7200277,50.1306871 28.934461,50.0223502 C29.0595095,49.950429 29.2233817,49.9208412 29.3840938,49.9322211 C29.5430002,49.9417803 29.7028095,49.9900312 29.8170235,50.0765187 C30.0183651,50.2098914 30.0680233,50.4925689 30.0034676,50.677379 C29.9569694,50.8239525 29.8567501,50.9145367 29.7371188,50.975078 C29.6161333,51.0297016 29.4671585,51.0497303 29.3168295,51.0378952 C29.1674033,51.0319776 29.0211372,50.9941962 28.9060204,50.9245511 C28.7958693,50.8512643 28.7060331,50.7456586 28.6784953,50.5972643 M30.8968646,52.4635728 C30.912665,52.0670961 30.8016111,51.7061247 30.4323343,51.4607734 L30.2129351,51.3360493 C30.5050159,51.2386371 30.835469,50.9623324 30.8589438,50.6004506 C30.9212423,50.1971459 30.721255,49.8662175 30.4183397,49.622687 C30.1434136,49.4351458 29.7854228,49.3400096 29.4197575,49.3231673 C29.0572523,49.294945 28.6879755,49.3477479 28.3927347,49.4993286 C28.0613787,49.7032569 27.8234706,50.0082391 27.8392709,50.4147302 C27.8198591,50.778888 28.1123913,51.0916084 28.3927347,51.2240708 L28.1597923,51.321483 C27.7598177,51.5194938 27.6094887,51.8631677 27.5796937,52.2600997 C27.5426758,52.7030066 27.772458,53.1277056 28.1354147,53.3730569 C28.4107922,53.5469422 28.7791661,53.6570999 29.1579231,53.6807702 C29.5366801,53.7039853 29.9158885,53.638892 30.2106779,53.4982361 C30.6007209,53.3015909 30.8779042,52.9083005 30.8968646,52.4635728" id="Fill-58" fill="#8B8675"></path>
                <polygon id="Fill-60" fill="#8B8675" points="49.1519133 12.796413 45.3778866 14.4369438 45.0388562 13.6435351 48.8110772 12.0034595"></polygon>
                <path d="M34.9315972,6.21781187 L33.9623585,1.95397956 L34.8544012,2.0454742 C35.0349766,3.10016615 35.219615,4.29779002 35.4308883,5.18679018 C35.8164168,4.35878644 36.2349004,3.22306939 36.6208804,2.22709789 L37.5016372,2.31586135 L35.7148432,6.29747138 L34.9315972,6.21781187 Z" id="Fill-62" fill="#8B8675"></path>
                <polygon id="Fill-64" fill="#8B8675" points="18.8773117 8.66071876 17.9617942 10.3135398 17.1889313 9.8783713 18.2389775 7.97974372 17.6462386 7.64471857 16.1740973 10.3012495 19.7621314 12.3214148 21.2320155 9.66397342 20.6383737 9.32985866 19.5865217 11.2316726 18.5820708 10.6658625 19.5030056 9.00757903"></polygon>
                <path d="M16.1581164,28.1390627 L15.0141709,28.1408835 L15.0046907,28.1408835 C15.024554,27.2181988 14.8818994,26.6787901 15.425883,26.5722739 C15.6150357,26.5212918 15.8524924,26.5381341 15.9897298,26.6847076 C16.2226721,26.9086647 16.1504419,27.2860232 16.1581164,28.1390627 M14.3866713,28.1408835 L13.377706,28.1408835 C13.4070495,27.190887 13.2508517,26.6847076 13.829596,26.6196144 C14.1704322,26.5945786 14.2647829,26.6715069 14.341076,26.8786217 C14.4065346,27.0934747 14.3866713,27.3160662 14.3866713,28.1408835 M16.7020999,26.2641054 C16.5084327,25.8189225 16.0335193,25.6418508 15.5423541,25.6673419 C15.1261277,25.7142272 14.8128293,25.9991806 14.6381226,26.4307076 C14.5735669,26.1771628 14.341076,25.8594351 13.9478729,25.8148258 C13.5343552,25.7633885 13.1402493,25.875367 12.9416163,26.2276896 C12.671656,26.5786467 12.78903,28.1181237 12.7596865,29.0057582 L16.8406915,29.0021167 L16.8420459,28.7012313 C16.8208282,27.0652525 16.9138246,26.8690625 16.7020999,26.2641054" id="Fill-66" fill="#8B8675"></path>
                <polygon id="Fill-68" fill="#8B8675" points="49.1845523 15.1003937 49.8386869 14.9306052 50.665271 18.1697886 50.0111364 18.3386667 49.7059639 17.1401325 46.4063991 17.9981792 46.1955773 17.1610715 49.4915306 16.3048456"></polygon>
                <path d="M28.4401809,6.45788288 C27.9842279,6.53435601 27.5142803,6.48974668 27.134169,6.25714091 C26.8091332,6.06413729 26.6913077,5.81878599 26.6312664,5.51516945 L26.159513,2.55593236 L26.9955773,2.42028359 L27.4695879,5.37997587 C27.5165375,5.62350638 27.7300679,5.77144548 27.9521757,5.81651 C28.0740641,5.84837381 28.21085,5.84655302 28.3449273,5.82060678 L28.4401809,6.45788288 Z" id="Fill-70" fill="#8B8675"></path>
                <path d="M28.4509702,6.45565241 C28.9082776,6.38509684 29.3398529,6.19436921 29.6278707,5.85160571 C29.8775162,5.56756265 29.9136313,5.2980859 29.8775162,4.99037258 L29.4057629,2.0297699 L28.5683443,2.16541867 L29.0382919,5.12465576 C29.0698926,5.34906798 28.9132434,5.57939777 28.7155133,5.69274188 C28.6076194,5.76329745 28.478508,5.80381 28.3448822,5.8206523 L28.4509702,6.45565241 Z" id="Fill-72" fill="#8B8675"></path>
                <path d="M48.7092778,22.2746205 L48.5666232,21.2517923 L50.3385197,21.5221795 L50.3457427,21.5221795 L50.3425827,21.5230899 L50.3489028,21.5230899 L50.3385197,21.5230899 L48.7092778,22.2746205 Z M51.0824905,20.9691149 L46.8150414,20.106061 L46.9315125,20.9458998 L47.8596703,21.1175092 L48.0637206,22.6000865 L47.2208847,23.0215991 L47.3355501,23.8605276 L51.2052818,21.8517423 L51.0824905,20.9691149 Z" id="Fill-74" fill="#8B8675"></path>
                <path d="M50.4634779,28.086624 L50.5402225,28.0729681 L50.6368303,28.0483875 L50.7022889,28.0260828 C50.9727007,27.8767781 51.0390621,27.5126203 51.0223589,27.2158318 C51.0128787,26.9172224 50.9194309,26.6117851 50.6431505,26.5043585 C50.4991416,26.4633908 50.315406,26.4506452 50.2187982,26.6022259 C49.7565251,27.2927601 50.0770465,28.7598607 48.8820885,29.0161367 C48.3624826,29.1049002 47.9029181,28.8763912 47.6329578,28.4562442 C47.2627782,27.7889251 47.2329832,26.7451578 47.6559812,26.0987778 C47.9128498,25.7623871 48.2595546,25.5552723 48.6753296,25.5511755 L48.7263421,26.3450395 C48.4694736,26.3791793 48.2157651,26.5116417 48.0997454,26.7642761 C47.9263929,27.1798712 47.9674738,27.8412727 48.271292,28.0848032 C48.3814431,28.2086169 48.6365059,28.1945058 48.7764518,28.1198534 C49.2500109,27.7748139 49.1529516,26.9194984 49.3908598,26.3450395 C49.473473,26.1028746 49.6960323,25.8529713 49.9217516,25.7305232 C50.3406866,25.5488996 50.8815101,25.6135376 51.220089,25.9526595 C51.7663297,26.4711291 51.790256,27.4903157 51.5388047,28.1102943 C51.3956986,28.5395453 50.9334255,28.8540865 50.4549006,28.8832192 L50.403888,28.0889 L50.4634779,28.086624 Z" id="Fill-76" fill="#8B8675"></path>
                <path d="M17.3975862,21.8392243 C17.3276132,22.3003391 17.1411691,22.7364181 16.8039444,23.0281995 C16.5226982,23.2808339 16.2536408,23.3177049 15.9493712,23.2817443 L13.0114087,22.8178984 L13.1427773,21.9725971 L16.078934,22.4359879 C16.3245166,22.4651205 16.5294698,22.3089879 16.641878,22.1105219 C16.7109481,22.0003642 16.752029,21.8701778 16.7678294,21.734529 L17.3975862,21.8392243 Z" id="Fill-78" fill="#8B8675"></path>
                <path d="M17.3995725,21.8294376 C17.4740599,21.3692332 17.4275617,20.8944625 17.194168,20.5125521 C17.0045638,20.1861757 16.7594326,20.0673692 16.4587745,20.0077384 L13.5226178,19.5434372 L13.3903463,20.385552 L16.3283087,20.85395 C16.546805,20.8912761 16.7169974,21.1156884 16.7603355,21.3378246 C16.7941934,21.463459 16.7932905,21.6000182 16.7680099,21.7347566 L17.3995725,21.8294376 Z" id="Fill-80" fill="#8B8675"></path>
                <path d="M22.4548724,6.80569907 L21.9998222,5.05865216 L21.9962107,5.05136901 L21.9998222,5.05410019 L21.9984679,5.04909302 L22.0029823,5.05637617 L23.3297604,6.26765596 L22.4548724,6.80569907 Z M21.9551298,4.12595307 L21.2025817,4.58888864 L22.1059103,8.88048797 L22.8227948,8.44167786 L22.6137788,7.51353074 L23.8791612,6.7355987 L24.6010115,7.35330132 L25.317896,6.91130482 L21.9551298,4.12595307 Z" id="Fill-82" fill="#8B8675"></path>
                <polygon id="Fill-84" fill="#8B8675" points="41.8949474 5.47388306 40.1636804 4.74192594 40.5058708 3.91801898 42.4940064 4.75558186 42.758098 4.12376812 39.9727218 2.94981451 38.386818 6.77165032 41.1721942 7.94696952 41.43448 7.31287981 39.4413786 6.47304094 39.886497 5.4019619 41.6249871 6.1375606"></polygon>
                <path d="M16.0659778,16.1356943 L15.034892,15.8284362 C15.2606113,15.1196941 15.3594763,14.4059449 15.854253,14.4505542 C16.0533375,14.4833284 16.1901234,14.5370417 16.3052402,14.6799736 C16.4980045,14.9221385 16.2501647,15.4515329 16.0659778,16.1356943 M16.8835331,14.6544826 C16.8821788,14.3695291 16.8654755,14.131461 16.6320818,13.9052279 C16.4045567,13.6694358 16.0461145,13.561554 15.6953467,13.5870451 C14.7798292,13.7290666 14.6592951,14.7878553 14.1523295,16.4620707 L18.0875198,17.6446731 L18.3321996,16.8175797 L16.777445,16.3514578 L16.7151465,16.3309739 C16.8207831,15.9499738 16.972015,15.4665544 17.0483082,15.361859 C17.3295544,14.7054646 18.3737319,15.3500239 18.7863468,15.2881171 L19.0278665,14.4664861 C18.3236222,14.5056331 17.3828242,13.8729089 16.8835331,14.6544826" id="Fill-86" fill="#8B8675"></path>
                <path d="M46.2096171,8.97881057 C46.066511,9.1208321 45.9428168,9.20094681 45.7572756,9.21005075 C45.4502973,9.22552746 45.173114,8.712065 44.7338642,8.15808999 L45.584826,7.50078522 C46.0218186,8.09936955 46.5346529,8.60190728 46.2096171,8.97881057 M45.5947577,6.4078567 L42.3322109,8.91872454 L42.8513652,9.60516194 L44.1402225,8.615108 L44.195298,8.57277465 C44.4354633,8.88367435 44.7347671,9.29244145 44.7753966,9.41397911 C45.1369989,10.0321369 44.0020823,10.5028108 43.8129295,10.8760726 L44.3284724,11.5561372 C44.709938,10.9593736 45.7730759,10.5638073 45.4385599,9.69938776 C45.6687936,9.86462435 45.8687809,9.99071398 46.1893023,9.93290393 C46.511178,9.8882946 46.8082246,9.660696 46.9937659,9.35662426 C47.4181182,8.52725493 46.6425467,7.80576735 45.5947577,6.4078567" id="Fill-88" fill="#8B8675"></path>
                <polygon id="Fill-90" fill="#8B8675" points="0 69.0215536 64 69.0215536 64 59.5397956 0 59.5397956"></polygon>
                <polygon id="Fill-92" fill="#CD1141" points="0 80 64 80 64 70.5186972 0 70.5186972"></polygon>
                <path d="M17.7764786,66.5272094 C17.9773688,66.5358582 18.1778076,66.5049047 18.35116,66.4288868 C18.6676184,66.3091699 18.9520248,66.0055534 18.9565392,65.672349 L18.9587964,61.1895669 L20.2214701,61.1895669 L20.2214701,65.672349 C20.2034126,66.1320982 20.0891986,66.5194711 19.656269,66.8790769 C19.1538178,67.3128798 18.4707912,67.4894963 17.7841531,67.4863522 L17.7679013,67.4863522 C17.0803603,67.4894963 16.3991394,67.3128798 15.8966883,66.8790769 C15.4637586,66.5194711 15.3472875,66.1320982 15.3292299,65.672349 L15.3292299,61.1895669 L16.5910009,61.1895669 L16.5941609,65.672349 C16.6072526,66.0396932 16.8830816,66.3091699 17.1995401,66.4288868 C17.3742468,66.5049047 17.5755885,66.5358582 17.7764786,66.5272094" id="Fill-93" fill="#FEFEFE"></path>
                <polygon id="Fill-94" fill="#FEFEFE" points="39.1792733 63.5102078 36.3817083 63.5079318 36.3817083 62.1833079 39.589631 62.1801215 39.5941454 61.158659 35.1014284 61.158659 35.1014284 67.3229397 39.5909853 67.3229397 39.589631 66.2996563 36.3753881 66.2996563 36.3785482 64.5785557 39.1824334 64.5785557"></polygon>
                <path d="M55.6422462,66.5196531 C55.8408792,66.5251155 56.0426722,66.4950725 56.2169275,66.4204201 C56.5324831,66.2997929 56.8173409,65.9966315 56.8223067,65.6625168 L56.8245639,61.180645 L58.0872377,61.180645 L58.0872377,65.6625168 C58.066923,66.1227212 57.952709,66.5110044 57.5202308,66.8706102 C57.0173282,67.3053235 56.3365588,67.4814849 55.6485663,67.4769329 L55.632766,67.4769329 C54.9447735,67.4814849 54.2640041,67.3053235 53.7601986,66.8706102 C53.3295262,66.5110044 53.213055,66.1227212 53.1940946,65.6625168 L53.1940946,61.180645 L54.4558655,61.180645 L54.4558655,65.6625168 C54.4703116,66.0307713 54.7497521,66.2997929 55.0644048,66.4204201 C55.2377572,66.4950725 55.4390988,66.5251155 55.6422462,66.5196531" id="Fill-95" fill="#FEFEFE"></path>
                <path d="M5.92206195,61.1790973 C7.14681489,61.1804629 7.86099077,61.1790973 8.87221325,61.1790973 C9.8152685,61.1790973 10.5583364,61.6925598 10.6274066,62.632542 C10.6924137,63.288026 10.4901692,63.8515602 9.71640345,64.0459294 C10.4003329,64.236657 10.8395827,64.8693812 10.8450138,65.686005 C10.84816,66.3842775 10.3104967,67.3319981 8.80946328,67.3319981 L5.92206195,67.3319981 L5.92206195,61.1790973 Z" id="Fill-96" fill="#FEFEFE"></path>
                <path d="M7.19412566,64.5784191 C7.6460157,64.5784191 8.20625101,64.5738671 8.80937299,64.6089173 C9.28338353,64.6389603 9.56733842,65.049093 9.56733842,65.4341899 C9.56733842,65.8183763 9.35967666,66.2066595 8.92584415,66.2590072 C8.49201165,66.3108997 8.44867355,66.2949678 7.19006271,66.3095341 L7.19412566,64.5888886 L7.19412566,64.5784191 Z" id="Fill-97" fill="#8B8675"></path>
                <path d="M7.19326792,62.1290484 L8.67534087,62.1290484 C9.07937843,62.1290484 9.439175,62.3416255 9.439175,62.8145754 C9.439175,63.3093748 9.16831183,63.6157225 8.72048473,63.6157225 L7.1941708,63.6157225 L7.19326792,62.1290484 Z" id="Fill-98" fill="#8B8675"></path>
                <path d="M45.7128089,64.9669299 L46.4743858,62.3896033 L46.4743858,62.3777682 L46.4761916,62.3841409 L46.4770944,62.3777682 L46.4770944,62.3896033 L47.2382199,64.9669299 L45.7128089,64.9669299 Z M47.131229,61.1705852 L45.8166397,61.1705852 L43.6786265,67.3339554 L44.92866,67.3339554 L45.3710698,65.9870269 L47.5790561,65.9870269 L48.0223688,67.3339554 L49.2724023,67.3339554 L47.131229,61.1705852 Z" id="Fill-99" fill="#FEFEFE"></path>
                <path d="M28.4379688,63.7458179 C28.0741093,63.7808681 27.8939853,63.7863304 26.723405,63.783144 L26.723405,62.194961 C27.322464,62.2090721 27.9788557,62.1653731 28.3377494,62.194961 C28.6998032,62.22728 29.0307077,62.4735417 29.0338838,62.9273733 C29.036125,63.3784737 28.8000226,63.7107677 28.4379688,63.7458179 M29.0586969,64.3293807 C29.6870994,64.1249972 30.3583886,63.850058 30.2861585,62.6551654 C30.2229571,61.6177709 29.2817076,61.2344948 28.3395552,61.1866991 C27.2899604,61.1866991 26.6186712,61.1803264 25.4480909,61.1739536 L25.4489938,67.3341375 L26.7202449,67.3341375 L26.716182,64.8191729 C27.3003435,64.8109794 27.6687174,64.7850331 28.2551362,64.8237249 C29.3020223,64.8892733 28.8749614,67.3318615 29.1638821,67.3341375 L30.3647088,67.3341375 C29.9751173,66.3618363 30.5150378,64.6448324 29.0586969,64.3293807" id="Fill-100" fill="#FEFEFE"></path>
                <path d="M7.54331342,78.2956961 L5.47030733,72.1346018 L6.80701705,72.1332362 C7.23136934,73.6681612 7.68416226,75.4120218 8.12882929,76.6947675 C8.57214201,75.4120218 9.02538637,73.6681612 9.44748147,72.1346018 L10.7652308,72.1332362 L8.71299085,78.2956961 L7.54331342,78.2956961 Z" id="Fill-101" fill="#FEFEFE"></path>
                <polygon id="Fill-102" fill="#FEFEFE" points="18.5109693 74.4834194 15.7125013 74.4802331 15.7125013 73.1501468 18.9181669 73.1492364 18.9249385 72.130505 14.43177 72.130505 14.43177 78.2947857 18.9217784 78.2947857 18.9181669 77.2719576 15.7084384 77.2719576 15.7084384 75.5453945 18.5109693 75.5485809"></polygon>
                <polygon id="Fill-103" fill="#FEFEFE" points="32.6430743 78.2957416 33.9197427 78.2957416 33.9197427 72.1332817 32.6430743 72.1332817"></polygon>
                <polygon id="Fill-104" fill="#FEFEFE" points="37.4709393 73.1866991 37.4709393 72.1757061 42.4065176 72.1757061 42.4065176 73.1857887 40.5786427 73.1857887 40.5786427 78.2958327 39.3069402 78.2958327 39.3033287 73.1857887"></polygon>
                <path d="M46.8921019,75.9307645 L47.6536789,73.3511619 L47.6536789,73.3406924 L47.6572904,73.3466099 L47.6581933,73.3406924 L47.6581933,73.3511619 L48.417513,75.9307645 L46.8921019,75.9307645 Z M48.310522,72.1344197 L46.9986415,72.1344197 L44.8565653,78.295514 L46.1093074,78.295514 L46.5512658,76.9517719 L48.759252,76.9517719 L49.2025647,78.295514 L50.4530497,78.295514 L48.310522,72.1344197 Z" id="Fill-105" fill="#FEFEFE"></path>
                <path d="M26.2237979,74.6972256 C25.8608412,74.7322758 25.6798143,74.7377381 24.5105884,74.7331862 L24.5105884,73.1477343 C25.1091959,73.1582038 25.7642334,73.1140497 26.1253843,73.1477343 C26.487438,73.1768669 26.818794,73.4249494 26.8210614,73.8783258 C26.8228569,74.3294262 26.5858516,74.6608098 26.2237979,74.6972256 M26.8440745,75.2794228 C27.4742828,75.0759497 28.1437663,74.8005553 28.0742447,73.6042971 C28.009689,72.5687234 27.0697938,72.1840818 26.1267386,72.1353757 C25.0757895,72.1353757 24.4054032,72.1303685 23.2348228,72.1226301 L23.2348228,78.2819036 L24.5083312,78.2819036 L24.5029139,75.7705806 C25.0861726,75.7632974 25.4531922,75.7387168 26.0409652,75.771491 C27.0887542,75.8379498 26.6621448,78.2819036 26.9488083,78.2819036 L28.1514407,78.2819036 C27.7609463,77.3082368 28.3017698,75.5935089 26.8440745,75.2794228" id="Fill-106" fill="#FEFEFE"></path>
                <path d="M53.3634292,76.3695291 C53.3634292,77.267178 54.0757994,78.4379452 55.9361779,78.4379452 C57.4372112,78.4379452 58.5035092,77.7387623 58.5035092,76.35997 C58.5035092,74.2847259 54.8035184,74.8514464 54.8035184,73.7462276 C54.8035184,73.3160662 55.1542862,72.9200446 56.0485861,72.9200446 C56.8765245,72.9200446 57.1789884,73.382525 57.1789884,73.8846075 L58.3540831,73.844095 C58.3540831,73.4503494 58.1549986,71.914514 55.9127031,71.914514 C54.3010672,71.914514 53.552582,72.8626898 53.552582,73.9692742 C53.552582,76.0458839 57.2309038,75.2793318 57.2309038,76.5889342 C57.2309038,77.3117873 56.4950589,77.4528985 55.8400214,77.4528985 C54.990414,77.4528985 54.5340096,76.8165328 54.5340096,76.327651 L53.3634292,76.3695291 Z" id="Fill-107" fill="#FEFEFE"></path>
                <path d="M64,70.5188338 L64,80.0001366 L0,80.0001366 L0,70.5188338 L64,70.5188338 Z M64,59.5399322 L64,69.0216901 L0,69.0216901 L0,59.5399322 L64,59.5399322 Z M32.1872567,0 C35.3107605,0 38.3850574,0.461114778 41.2304749,1.32689988 C44.2885201,2.40025491 47.124006,4.55060655 48.8778449,7.22989735 C51.7684064,11.4973712 54.3962305,19.7432688 54.5086387,27.9568473 L54.5086387,27.9568473 L54.5086387,27.981428 C54.3962305,36.1927305 51.7684064,44.4413592 48.8778449,48.7070123 C47.124006,51.3853927 44.2217071,53.5380203 41.1650163,54.610465 C38.3209531,55.4767053 35.3780248,55.9378201 32.2536182,55.9378201 L32.2536182,55.9378201 L32.122701,55.9378201 C28.9991973,55.9378201 25.9899075,55.4671461 23.1471986,54.601361 C20.0891535,53.5293716 17.2545705,51.3853927 15.5029887,48.7070123 C12.6079129,44.4413592 9.98189449,36.1927305 9.86768052,27.981428 L9.86768052,27.981428 L9.86768052,27.9568473 C9.98189449,19.7432688 12.6079129,11.4973712 15.5029887,7.22989735 C17.2545705,4.55060655 20.0891535,2.40025491 23.1471986,1.32689988 C25.9899075,0.461114778 29.0655588,0 32.1872567,0 Z" id="Combined-Shape" fill="#787878" style="mix-blend-mode: color;"></path>
                <rect id="Rectangle-Copy-29" x="0" y="1.70530257e-13" width="204" height="80"></rect>
            </g>
        </g>
    </g>
</svg>