<?xml version="1.0" encoding="UTF-8"?>
<svg width="309px" height="401px" viewBox="0 0 309 401" version="1.1" xmlns="http://www.w3.org/2000/svg" xmlns:xlink="http://www.w3.org/1999/xlink">
    <title>Fill 11 Copy 2@3x</title>
    <g id="🖥-Desktop" stroke="none" stroke-width="1" fill="none" fill-rule="evenodd">
        <g id="aessia-home" transform="translate(-1283.000000, -1901.000000)" fill="#FFFFFF">
            <g id="zgz" transform="translate(28.000000, 1502.000000)">
                <path d="M1581.35907,706.924843 C1581.35907,711.030996 1581.60714,717.043578 1582.13082,724.962588 C1582.64533,732.909095 1583.66514,740.974753 1585.20864,749.150398 C1586.74296,757.353539 1589.17765,764.777611 1592.52191,771.431779 C1595.85698,778.085948 1600.34049,782.43957 1606,784.483481 L1581.35907,835.92955 C1574.67975,835.92955 1567.63292,834.389743 1560.18184,831.319293 C1552.74914,828.248844 1545.5645,823.904387 1538.64629,818.267592 C1531.7189,812.639962 1525.80214,806.370745 1520.94194,799.459943 C1516.05418,792.54914 1512.34242,785.005916 1509.77911,776.802775 C1504.64328,789.607007 1494.50945,800.990585 1479.36842,810.981002 C1464.2182,820.962255 1447.42341,828.248844 1428.9565,832.849935 L1428.9565,774.493063 C1441.26777,771.935883 1452.4398,766.959005 1462.44501,759.516602 C1472.45021,752.110861 1481.03136,743.275299 1488.22519,733.046578 L1488.22519,571.009332 C1488.22519,545.932467 1486.93893,525.969962 1484.37562,511.121818 C1481.80311,496.273674 1477.43904,485.394201 1471.29259,478.483398 C1465.12776,471.56343 1457.54806,467.228138 1448.57185,465.413365 C1439.59564,463.644419 1428.9565,462.737033 1416.62685,462.737033 C1405.34457,462.737033 1394.70542,464.148523 1384.69103,466.953173 C1374.68582,469.776153 1365.45236,473.094072 1356.98147,476.94359 C1348.51976,480.783944 1341.06868,485.000083 1334.66498,489.61034 C1328.23372,494.211432 1323.50215,497.813482 1320.42433,500.352331 L1285.77819,447.384785 C1290.91401,441.74799 1298.61316,436.001208 1308.8848,430.098613 C1319.13807,424.232679 1330.94404,418.97167 1344.27513,414.361413 C1357.61541,409.751156 1372.1225,406.048286 1387.77803,403.21614 C1403.41519,400.420656 1419.72304,399 1436.65564,399 C1452.04473,399 1467.05714,400.539808 1481.67448,403.610257 C1496.30102,406.680707 1509.63211,411.813398 1521.71369,418.97167 C1533.74935,426.139108 1544.28743,435.735408 1553.25445,447.778903 C1562.23984,459.785735 1568.53329,474.762196 1572.11643,492.68079 C1575.69956,510.617714 1578.14344,528.65546 1579.43888,546.821522 C1580.71595,565.005916 1581.35907,583.034496 1581.35907,600.953089 L1581.35907,700.783944 L1581.35907,706.924843 Z M1341.96906,704.624297 C1341.96906,727.657251 1346.70982,744.815106 1356.20972,756.070366 C1365.70042,767.334791 1379.42658,773.98896 1397.39737,776.032871 L1397.39737,838.230096 C1395.33936,838.743365 1392.01348,839 1387.39216,839 C1369.92668,839 1353.1319,836.699454 1336.97105,832.089197 C1320.80102,827.47894 1306.56955,820.073199 1294.25827,809.816981 C1281.92862,799.569929 1272.31847,786.014123 1265.39108,769.122068 C1258.45451,752.220847 1255,731.50677 1255,706.924843 C1255,683.387785 1259.98882,663.031163 1270.00322,645.873308 C1280.01762,628.742949 1292.83421,614.655543 1308.48974,603.647752 C1324.13609,592.639962 1341.96906,584.455151 1361.98867,579.065825 C1381.99908,573.703995 1402.26675,571.009332 1422.80086,571.009332 L1456.66606,571.009332 L1456.66606,625.535016 L1439.73346,625.535016 C1429.46181,625.535016 1418.68485,626.552389 1407.39339,628.605466 C1396.11111,630.649377 1385.57303,634.48973 1375.84345,640.11736 C1366.07711,645.763321 1358.00128,653.819814 1351.59758,664.296005 C1345.17551,674.799692 1341.96906,688.245511 1341.96906,704.624297 L1341.96906,704.624297 Z" id="Fill-11-Copy-2"></path>
            </g>
        </g>
    </g>
</svg>