<?xml version="1.0" encoding="UTF-8"?>
<svg width="43px" height="38px" viewBox="0 0 43 38" version="1.1" xmlns="http://www.w3.org/2000/svg" xmlns:xlink="http://www.w3.org/1999/xlink">
    <title>hand-down-icn@3x</title>
    <g id="🖥-Desktop" stroke="none" stroke-width="1" fill="none" fill-rule="evenodd" stroke-linecap="round" stroke-linejoin="round">
        <g id="aessia-nivel-2-pegasso-tarifas-1" transform="translate(-739.000000, -2450.000000)" stroke="#9BC01C" stroke-width="1.60502922">
            <g id="hand-down-icn" transform="translate(740.000000, 2451.000000)">
                <path d="M38.5825424,20.3450294 C39.9177848,20.3450294 41,19.2664498 41,17.9374856 C41,16.6077189 39.9177848,15.5299418 38.5825424,15.5299418" id="Stroke-1"></path>
                <path d="M38.5825424,15.5299418 C39.9177848,15.5299418 41,14.4513621 41,13.1223979 C41,11.7926312 39.9177848,10.7148541 38.5825424,10.7148541" id="Stroke-3"></path>
                <path d="M38.5825424,10.7148541 C39.9177848,10.7148541 41,9.63627446 41,8.30731026 C41,6.97754355 39.9177848,5.89976642 38.5825424,5.89976642 L36.970904,5.89976642 C38.3061464,5.89976642 39.3883616,4.82118678 39.3883616,3.49222259 C39.3883616,2.16245587 38.3061464,1.08467875 36.970904,1.08467875 L33.7476273,1.08467875 L26.751505,1.08467875 L23.2719777,1.08467875 C20.6570945,1.08467875 18.1123174,1.92972664 16.019605,3.49222259 L14.1291532,3.49222259" id="Stroke-5"></path>
                <polyline id="Stroke-7" points="0 21.1350248 9.57877276 21.1350248 9.57877276 0 0 0"></polyline>
                <line x1="33.2423786" y1="20.3450294" x2="38.5825424" y2="20.3450294" id="Stroke-9"></line>
                <path d="M9.57853101,19.5425148 L12.6213043,19.5425148 C12.6213043,19.5425148 22.6964617,22.5864528 22.6964617,31.0714398 L22.6964617,34.2935359 C22.6964617,35.6184875 24.1558002,36.4402625 25.2911995,35.7500999 C26.7287809,34.876964 27.6893174,33.3016279 27.6893174,31.5015876 L27.6893174,26.6399541 L27.6893174,22.9194963 C27.6893174,21.4982429 28.8464738,20.3450294 30.2751912,20.3450294" id="Stroke-11"></path>
                <path d="M4.71686265,3.21246599 C5.62018597,3.21246599 6.3518698,3.94114926 6.3518698,4.84076814 C6.3518698,5.74038702 5.62018597,6.4698728 4.71686265,6.4698728 C3.81434515,6.4698728 3.08185551,5.74038702 3.08185551,4.84076814" id="Stroke-13"></path>
            </g>
        </g>
    </g>
</svg>