<?xml version="1.0" encoding="utf-8"?>
<!-- Generator: Adobe Illustrator 25.2.1, SVG Export Plug-In . SVG Version: 6.00 Build 0)  -->
<svg version="1.1" id="Capa_1" xmlns="http://www.w3.org/2000/svg" xmlns:xlink="http://www.w3.org/1999/xlink" x="0px" y="0px"
	 viewBox="0 0 24 25" style="enable-background:new 0 0 24 25;" xml:space="preserve">
<style type="text/css">
	.st0{fill-rule:evenodd;clip-rule:evenodd;fill:#663399;}
	.st1{fill-rule:evenodd;clip-rule:evenodd;fill:#FFFFFF;filter:url(#Adobe_OpacityMaskFilter);}
	.st2{mask:url(#mask0_111_55701_1_);}
	.st3{fill:#9BC01C;}
</style>
<path class="st0" d="M12,1.6C6.1,1.6,1.3,6.4,1.3,12.3c0,5.9,4.8,10.7,10.7,10.7c5.9,0,10.7-4.8,10.7-10.7C22.7,6.4,17.9,1.6,12,1.6
	z M12,4.3c4.4,0,8,3.6,8,8c0,4.4-3.6,8-8,8c-4.4,0-8-3.6-8-8C4,7.8,7.6,4.3,12,4.3z M10.7,12.9V7h2.7v4.8l0.9,0.9l1,0.9l-1.9,1.9
	l-0.9-1l-1.3-1.3L10.7,12.9z"/>
<defs>
	<filter id="Adobe_OpacityMaskFilter" filterUnits="userSpaceOnUse" x="0" y="0.3" width="24" height="24">
		<feColorMatrix  type="matrix" values="1 0 0 0 0  0 1 0 0 0  0 0 1 0 0  0 0 0 1 0"/>
	</filter>
</defs>
<mask maskUnits="userSpaceOnUse" x="0" y="0.3" width="24" height="24" id="mask0_111_55701_1_">
	<path class="st1" d="M12,1.6C6.1,1.6,1.3,6.4,1.3,12.3c0,5.9,4.8,10.7,10.7,10.7c5.9,0,10.7-4.8,10.7-10.7
		C22.7,6.4,17.9,1.6,12,1.6z M12,4.3c4.4,0,8,3.6,8,8c0,4.4-3.6,8-8,8c-4.4,0-8-3.6-8-8C4,7.8,7.6,4.3,12,4.3z M10.7,12.9V7h2.7v4.8
		l0.9,0.9l1,0.9l-1.9,1.9l-0.9-1l-1.3-1.3L10.7,12.9z"/>
</mask>
<g class="st2">
	<path class="st3" d="M4,0.3h16c2.2,0,4,1.8,4,4v16c0,2.2-1.8,4-4,4H4c-2.2,0-4-1.8-4-4v-16C0,2.1,1.8,0.3,4,0.3z"/>
</g>
</svg>
