<?xml version="1.0" encoding="utf-8"?>
<!-- Generator: Adobe Illustrator 25.2.1, SVG Export Plug-In . SVG Version: 6.00 Build 0)  -->
<svg version="1.1" id="Capa_1" xmlns="http://www.w3.org/2000/svg" xmlns:xlink="http://www.w3.org/1999/xlink" x="0px" y="0px"
	 viewBox="0 0 24 25" style="enable-background:new 0 0 24 25;" xml:space="preserve">
<style type="text/css">
	.st0{fill:#663399;}
	.st1{fill:#FFFFFF;filter:url(#Adobe_OpacityMaskFilter);}
	.st2{mask:url(#mask0_111_55690_1_);}
	.st3{fill:#9BC01C;}
</style>
<path class="st0" d="M17.3,1.6c-5,0-9.1,3.4-10.2,8H2l-0.7,2.7h5.4c0,0.9,0.2,1.8,0.4,2.7H1.9l-0.5,2.7h6.8c1.9,3.2,5.3,5.3,9.2,5.3
	c1.9,0,3.8-0.6,5.3-1.5v-3.3c-1.4,1.3-3.3,2.1-5.3,2.1c-2.4,0-4.5-1-5.9-2.7h5.9l0.4-2.7H9.9c-0.3-0.9-0.5-1.7-0.5-2.7h8.9l0.4-2.7
	H9.9c1.1-3.1,4-5.3,7.5-5.3c1.8,0,3.4,0.6,4.7,1.5l0.4-2.8C20.9,2.1,19.2,1.6,17.3,1.6L17.3,1.6z"/>
<defs>
	<filter id="Adobe_OpacityMaskFilter" filterUnits="userSpaceOnUse" x="0" y="0.3" width="24" height="24">
		<feColorMatrix  type="matrix" values="1 0 0 0 0  0 1 0 0 0  0 0 1 0 0  0 0 0 1 0"/>
	</filter>
</defs>
<mask maskUnits="userSpaceOnUse" x="0" y="0.3" width="24" height="24" id="mask0_111_55690_1_">
	<path class="st1" d="M17.3,1.6c-5,0-9.1,3.4-10.2,8H2l-0.7,2.7h5.4c0,0.9,0.2,1.8,0.4,2.7H1.9l-0.5,2.7h6.8
		c1.9,3.2,5.3,5.3,9.2,5.3c1.9,0,3.8-0.6,5.3-1.5v-3.3c-1.4,1.3-3.3,2.1-5.3,2.1c-2.4,0-4.5-1-5.9-2.7h5.9l0.4-2.7H9.9
		c-0.3-0.9-0.5-1.7-0.5-2.7h8.9l0.4-2.7H9.9c1.1-3.1,4-5.3,7.5-5.3c1.8,0,3.4,0.6,4.7,1.5l0.4-2.8C20.9,2.1,19.2,1.6,17.3,1.6
		L17.3,1.6z"/>
</mask>
<g class="st2">
	<path class="st3" d="M4,0.3h16c2.2,0,4,1.8,4,4v16c0,2.2-1.8,4-4,4H4c-2.2,0-4-1.8-4-4v-16C0,2.1,1.8,0.3,4,0.3z"/>
</g>
</svg>
