<?xml version="1.0" encoding="UTF-8"?>
<svg width="22px" height="22px" viewBox="0 0 22 22" version="1.1" xmlns="http://www.w3.org/2000/svg" xmlns:xlink="http://www.w3.org/1999/xlink">
    <title>linkedin-footer-icn@3x</title>
    <g id="Symbols" stroke="none" stroke-width="1" fill="none" fill-rule="evenodd">
        <g id="organisms/footer-m" transform="translate(-215.000000, -668.000000)" fill="#FFFFFF">
            <g id="Group-3" transform="translate(83.000000, 668.000000)">
                <path d="M148.217536,6.09027061 C145.772675,6.09027061 144.311519,7.51432709 143.71534,8.48420672 L143.625806,8.48420672 L143.416957,6.42378496 L139.481552,6.42378496 C139.541111,7.757245 139.60067,9.3023622 139.60067,11.1507286 L139.60067,21.2413793 L144.132254,21.2413793 L144.132254,12.6964431 C144.132254,12.2719341 144.162621,11.8476242 144.281739,11.5447733 C144.609902,10.6963526 145.354978,9.81766676 146.60709,9.81766676 C148.246924,9.81766676 148.903249,11.1206625 148.903249,13.0295592 L148.903249,21.2413793 L153.435028,21.2413793 L153.435028,12.4839895 C153.435028,8.12082541 151.199212,6.09027061 148.217536,6.09027061 L148.217536,6.09027061 Z M132.356406,21.2413793 L136.888382,21.2413793 L136.888382,6.42378496 L132.356406,6.42378496 L132.356406,21.2413793 Z M134.651978,0 C133.191213,0 132.237288,0.999945696 132.237288,2.30274233 C132.237288,3.57507467 133.161433,4.60548466 134.592418,4.60548466 C136.112938,4.60548466 137.037279,3.57507467 137.037279,2.30274233 C137.0075,0.999945696 136.112938,0 134.651978,0 L134.651978,0 Z" id="linkedin-footer-icn"></path>
            </g>
        </g>
    </g>
</svg>