<?xml version="1.0" encoding="UTF-8"?>
<svg width="196px" height="52px" viewBox="0 0 196 52" version="1.1" xmlns="http://www.w3.org/2000/svg" xmlns:xlink="http://www.w3.org/1999/xlink">
    <title>pegasso-logo@3x</title>
    <defs>
        <polygon id="path-1" points="0 52 196 52 196 0 0 0"></polygon>
    </defs>
    <g id="🖥-Desktop" stroke="none" stroke-width="1" fill="none" fill-rule="evenodd">
        <g id="aessia-home" transform="translate(-824.000000, -2542.000000)">
            <g id="pegasso-logo" transform="translate(824.000000, 2542.000000)">
                <path d="M25.3795644,12.3098974 C25.3795644,20.424237 19.6725674,25.392279 11.3049809,25.392279 L8.70006308,25.392279 L8.70006308,20.6454258 L12.4132362,20.6454258 C15.4609383,20.6454258 19.1177924,18.8236814 19.1177924,12.3098974 C19.1177924,9.66014609 18.0095371,4.91264804 11.3600053,4.91264804 L0.000388407233,4.91264804 L0.000388407233,6.44865258e-05 L11.4713487,6.44865258e-05 C18.2866009,6.44865258e-05 25.3795644,4.58183216 25.3795644,12.3098974" id="Fill-1" fill="#9BC11C"></path>
                <path d="M48.7680238,31.8511205 L51.1515495,35.4939643 C48.7680238,38.4203629 45.8316651,39.9661049 40.9001879,39.9661049 C32.9203613,39.9661049 26.8793342,33.0105882 26.8793342,24.5093295 C26.8793342,16.2286147 32.5876258,9.49428674 39.6255649,8.99774049 L39.6255649,14.1863264 C34.3050331,15.2355222 32.9753857,21.4733038 32.9753857,24.7853318 C32.9753857,30.3060233 35.6353279,34.6666022 41.620036,34.6666022 C43.2267473,34.6666022 46.7185283,33.9488671 48.7680238,31.8511205" id="Fill-3" fill="#555557"></path>
                <path d="M54.5865583,24.1781912 C54.5865583,25.0610117 54.531534,25.8890187 54.4208379,26.7724841 L35.8569142,26.7724841 L35.8569142,22.024986 L48.3804581,22.024986 C48.3804581,18.3821422 45.6654915,14.6277366 41.8422697,14.1318353 L41.8422697,9.05287647 C49.7107529,9.77061151 54.5865583,16.4501259 54.5865583,24.1781912" id="Fill-5" fill="#555557"></path>
                <path d="M58.2430888,24.1227972 C58.2430888,12.9169736 65.1703318,9.05294096 70.8779761,9.05294096 C73.0938393,9.05294096 75.2003012,9.60494562 76.8076598,10.5432246 L76.8076598,16.2290016 C75.6430855,14.9044483 74.0913986,14.0764413 72.2632952,14.0764413 C67.9403227,14.0764413 65.1703318,18.8232945 65.1703318,24.454258 C65.1703318,30.2503069 68.0516661,34.8868882 72.3739912,34.8868882 C74.1470703,34.8868882 75.6430855,34.1143396 76.8076598,32.8445999 L76.8076598,38.4755633 C75.1446295,39.3583839 72.7617511,40.0206605 70.2681767,40.0206605 C62.1219823,40.0206605 58.2430888,32.3480536 58.2430888,24.1227972" id="Fill-7" fill="#555557"></path>
                <path d="M85.6174479,9.32868534 L85.5624236,39.7450451 C84.9532716,48.5771197 79.4113477,52.0000645 72.484752,52.0000645 C68.4394907,52.0000645 64.1728373,50.6748664 61.6242385,47.4176519 L65.3917886,43.6645361 C66.8321321,46.0930987 70.156898,46.7005618 71.8749527,46.7005618 C76.3636456,46.7005618 79.0235878,44.3816263 79.0235878,38.1444895 L79.0235878,12.4201694 L79.7440832,9.32868534 L85.6174479,9.32868534 Z" id="Fill-9" fill="#555557"></path>
                <path d="M100.635343,35.6050746 L100.635343,39.9662983 C100.413304,40.0211119 100.191264,40.0211119 99.9148477,40.0211119 C94.9827231,40.0211119 90.6053736,37.5919045 90.6053736,30.7473046 C90.6053736,24.1780622 96.7007778,21.1974949 102.407775,21.1974949 L104.7913,21.1974949 L104.7913,25.0060692 L103.627373,25.0060692 C100.746039,25.0060692 96.7564495,25.944993 96.7564495,30.5815742 C96.7564495,33.7833302 98.1411213,35.3290723 100.635343,35.6050746" id="Fill-12" fill="#9BC11C"></path>
                <path d="M115.319467,36.2121507 L113.547035,39.8001811 C111.607588,39.8001811 109.168391,37.8681647 108.559239,35.6601461 C107.838744,37.426432 105.400841,38.9167157 102.851595,39.5796371 L102.851595,35.4944157 C104.514625,35.1081414 106.065665,34.0589456 107.007552,32.5693069 L107.007552,21.1977529 C107.007552,14.0765058 105.512184,13.5793147 101.965379,13.5793147 C98.9170295,13.5793147 96.1470386,15.4558726 95.2045037,16.2290661 L92.7659536,12.5301189 C94.3182878,10.9295634 98.6956374,9.10846386 103.405722,9.10846386 C107.728048,9.10846386 111.884005,10.653561 112.936589,15.6770614 C113.435692,18.1610824 113.547035,20.8108337 113.547035,23.2948547 L113.547035,30.3058298 L113.547035,30.7469177 C113.547035,31.961199 113.657731,35.6053325 115.319467,36.2121507" id="Fill-14" fill="#555557"></path>
                <path d="M195.999935,24.6751243 C195.999935,33.0106527 190.791394,39.4135198 183.033607,39.9661694 L183.033607,34.7769386 C186.635437,34.00439 189.129659,29.8643551 189.129659,24.6751243 C189.129659,19.4304352 186.801805,14.9047708 183.033607,14.2418493 L183.033607,9.16289048 C191.013434,9.6600816 195.999935,16.2841376 195.999935,24.6751243 M180.817097,9.2183489 L180.817097,14.2418493 C177.214619,15.0150427 174.832388,19.1544328 174.832388,24.399122 C174.832388,29.6986247 177.048899,34.114662 180.817097,34.7769386 L180.817097,39.9661694 C172.892942,39.4135198 167.905793,32.8449223 167.905793,24.5648524 C167.905793,16.1738656 173.113686,9.88127038 180.817097,9.2183489" id="Fill-16" fill="#555557"></path>
                <path d="M121.452158,33.0677877 C122.174596,33.5733621 123.032976,34.0402446 124.027946,34.473594 C125.022268,34.9056537 126.278765,35.1216836 127.797438,35.1216836 L128.068675,35.1216836 L128.068675,40.1464737 C127.164334,40.1464737 126.333142,40.1187445 125.573159,40.0658655 C124.813823,40.011052 124.06355,39.8846584 123.322986,39.6866848 C122.581776,39.489356 121.83215,39.2094845 121.071519,38.8496497 C120.312183,38.4904597 119.51789,38.0216427 118.686699,37.4438434 L121.452158,33.0677877 Z" id="Fill-18" fill="#9BC11C"></path>
                <path d="M126.996348,20.6260798 C126.112074,20.2153007 125.414883,19.629763 125.165008,18.6573062 C124.757827,17.0670685 125.553415,14.9899575 127.244928,14.4972804 C128.56616,14.1110061 130.035634,14.1987078 131.385997,14.3257462 C133.217337,14.4985701 135.05774,14.9899575 136.692287,15.834731 C137.360995,14.4173171 138.029055,12.9999033 138.697763,11.5831343 C138.906208,11.1414016 138.35467,11.0653075 137.980504,10.857016 C137.105293,10.3701427 136.183474,9.96516735 135.226697,9.6672396 C134.115852,9.32159183 132.971993,9.05268301 131.81454,8.92822402 C128.337647,8.55613676 124.586281,9.10362737 121.783275,11.3187395 C119.134985,13.412617 117.941928,17.0831901 118.872163,20.3378251 C119.80693,23.6053573 123.323957,25.4090455 126.268084,26.5459429 C127.95183,27.1953222 129.699662,27.6338306 131.393765,28.2412937 C132.647026,28.6901199 133.808363,29.4974912 134.086074,30.8955591 C134.381911,32.3910016 133.594739,33.6517132 132.268976,34.3004477 C132.089661,34.3875045 130.292631,34.949827 130.292631,34.9098454 L130.292631,35.5237571 L130.292631,40.0378139 C132.647026,39.7830921 135.062271,39.0763198 136.892964,37.5228394 C138.69841,35.9919293 139.731574,33.8284063 139.828028,31.4772276 C139.925777,29.1228245 139.128895,27.0889195 137.326038,25.5335045 C136.41846,24.750638 135.344514,24.1760631 134.255679,23.683386 C133.185617,23.1997371 132.10714,22.6870692 130.991116,22.3156268" id="Fill-20" fill="#555557"></path>
                <path d="M155.998522,28.232588 C156.882148,28.6440121 157.579986,29.2289048 157.829214,30.2020065 C158.236395,31.7922443 157.441455,33.8680655 155.749294,34.3620323 C154.428709,34.7476617 152.958588,34.6606049 151.608873,34.5335665 C149.776885,34.3607426 147.936482,33.8680655 146.301935,33.0245818 C145.633875,34.4413507 144.965167,35.8587646 144.297106,37.2761784 C144.088661,37.7179111 144.640199,37.7933604 145.014365,38.0016518 C145.889576,38.48917 146.810749,38.8935005 147.767525,39.1920731 C148.87837,39.537076 150.022229,39.8059848 151.179683,39.9304438 C154.657222,40.303176 158.408589,39.7550405 161.210947,37.5399283 C163.859237,35.4466957 165.052294,31.7754778 164.122059,28.5208428 C163.18794,25.2533105 159.670912,23.4496224 156.726785,22.3133698 C155.042393,21.6633456 153.295855,21.2248372 151.600457,20.6173742 C150.347844,20.1685479 149.186506,19.3611766 148.908795,17.9631087 C148.612311,16.4676662 149.399483,15.2075995 150.725246,14.558865 C150.904561,14.4711634 152.701592,13.9088409 152.701592,13.9494674 L152.701592,13.3349108 L152.701592,8.82085395 C150.347844,9.07622059 147.931951,9.78299292 146.101258,11.3364733 C144.296459,12.8673835 143.263296,15.0302615 143.166194,17.3814403 C143.068445,19.7358433 143.865974,21.7703932 145.668184,23.3251634 C146.57641,24.1086747 147.650356,24.6832496 148.738543,25.1752818 C149.808605,25.6595756 150.88773,26.1722435 152.003106,26.5436859" id="Fill-22" fill="#9BC11C"></path>
                <path d="M161.305006,15.9193373 C160.583216,15.4137629 159.724189,14.9468805 158.729219,14.513531 C157.735544,14.0814713 156.478399,13.8654414 154.959727,13.8654414 L154.688489,13.8654414 L154.688489,8.84129618 C155.59283,8.84129618 156.424022,8.86902539 157.184005,8.92190434 C157.943341,8.97671788 158.693615,9.10246661 159.434825,9.30108511 C160.175388,9.49776901 160.925014,9.77764054 161.685645,10.1374754 C162.444981,10.4966653 163.240569,10.9661272 164.070466,11.5432816 L161.305006,15.9193373 Z" id="Fill-24" fill="#555557"></path>
                <polygon id="Fill-26" fill="#555557" points="0 39.7449806 6.48316407 39.7449806 6.48316407 7.22636011 0 7.22636011"></polygon>
                <mask id="mask-2" fill="white">
                    <use xlink:href="#path-1"></use>
                </mask>
                <g id="Clip-27"></g>
            </g>
        </g>
    </g>
</svg>