<?xml version="1.0" encoding="UTF-8"?>
<svg width="320px" height="85px" viewBox="0 0 320 85" version="1.1" xmlns="http://www.w3.org/2000/svg" xmlns:xlink="http://www.w3.org/1999/xlink">
    <title>pegasso-neg-logo@3x</title>
    <defs>
        <polygon id="path-1" points="0 84.9998946 320 84.9998946 320 0 0 0"></polygon>
    </defs>
    <g id="🖥-Desktop" stroke="none" stroke-width="1" fill="none" fill-rule="evenodd">
        <g id="aessia-nivel-1-pegasso" transform="translate(-128.000000, -388.000000)">
            <g id="pegasso-neg-logo" transform="translate(128.000000, 388.000000)">
                <path d="M41.4360234,20.1219228 C41.4360234,33.3857306 32.1184774,41.5065584 18.4571117,41.5065584 L14.2041846,41.5065584 L14.2041846,33.7472888 L20.2665081,33.7472888 C25.2423483,33.7472888 31.2127223,30.7694411 31.2127223,20.1219228 C31.2127223,15.7906038 29.4033259,8.03028011 18.5469474,8.03028011 L0.000634134258,8.03028011 L0.000634134258,0.000105410537 L18.7287326,0.000105410537 C29.855675,0.000105410537 41.4360234,7.48952405 41.4360234,20.1219228" id="Fill-1" fill="#9BC11C"></path>
                <path d="M79.6212633,52.0642669 L83.5127339,58.0189082 C79.6212633,62.8024383 74.8272083,65.3291289 66.775817,65.3291289 C53.7475287,65.3291289 43.8846272,53.9595484 43.8846272,40.0632773 C43.8846272,26.5275103 53.204287,15.5194879 64.6947998,14.7078268 L64.6947998,23.1891586 C56.0082173,24.904188 53.8373644,35.1005493 53.8373644,40.5144344 C53.8373644,49.5386305 58.1801272,56.666491 67.9510792,56.666491 C70.5742812,56.666491 76.2751482,55.4932717 79.6212633,52.0642669" id="Fill-3" fill="#FFFFFF"></path>
                <path d="M89.1209116,39.5219942 C89.1209116,40.9650645 89.0310759,42.3185358 88.8503476,43.7626601 L58.5419008,43.7626601 L58.5419008,36.0023364 L78.988503,36.0023364 C78.988503,30.0476952 74.5559045,23.9106937 68.3139097,23.1000867 L68.3139097,14.7979528 C81.1604128,15.9711721 89.1209116,26.8895955 89.1209116,39.5219942" id="Fill-5" fill="#FFFFFF"></path>
                <path d="M95.0907572,39.4314466 C95.0907572,21.1142576 106.400542,14.7980582 115.719145,14.7980582 C119.336881,14.7980582 122.776002,15.7003724 125.400261,17.2340957 L125.400261,26.5281428 C123.498915,24.3630103 120.965549,23.009539 117.98089,23.009539 C110.922976,23.009539 106.400542,30.7688087 106.400542,39.9732567 C106.400542,49.4475558 111.104761,57.0265734 118.161618,57.0265734 C121.056441,57.0265734 123.498915,55.7637551 125.400261,53.6882217 L125.400261,62.8926698 C122.685109,64.33574 118.794696,65.4183062 114.723554,65.4183062 C101.423645,65.4183062 95.0907572,52.8765605 95.0907572,39.4314466" id="Fill-7" fill="#FFFFFF"></path>
                <path d="M139.783588,15.2487937 L139.693753,64.9677816 C138.699219,79.4048087 129.65118,85 118.342452,85 C111.737944,85 104.771979,82.8338135 100.611002,77.5095273 L106.762104,71.374634 C109.113685,75.3443948 114.541874,76.3373621 117.346862,76.3373621 C124.67534,76.3373621 129.018103,72.5467992 129.018103,62.3514921 L129.018103,20.3021748 L130.194422,15.2487937 L139.783588,15.2487937 Z" id="Fill-9" fill="#FFFFFF"></path>
                <path d="M164.302601,58.2005305 L164.302601,65.3294451 C163.940088,65.4190441 163.577574,65.4190441 163.126282,65.4190441 C155.073834,65.4190441 147.927141,61.4482292 147.927141,50.2599548 C147.927141,39.5217834 157.878821,34.6497084 167.196367,34.6497084 L171.087838,34.6497084 L171.087838,40.8752547 L169.187549,40.8752547 C164.483329,40.8752547 157.969713,42.4100321 157.969713,49.9890497 C157.969713,55.2226829 160.230402,57.7493734 164.302601,58.2005305" id="Fill-12" fill="#9BC11C"></path>
                <path d="M188.276681,59.1928653 L185.382915,65.0579076 C182.216471,65.0579076 178.234108,61.8998079 177.239574,58.2905511 C176.063255,61.1777457 172.083006,63.6137832 167.920971,64.6974036 L167.920971,58.019646 C170.636123,57.3882369 173.168432,55.6732075 174.706208,53.2382241 L174.706208,34.65013 C174.706208,23.0096444 172.264791,22.1969292 166.474088,22.1969292 C161.497191,22.1969292 156.974757,25.2643758 155.435924,26.5282482 L151.454618,20.4818998 C153.989041,17.8656102 161.135734,14.8888167 168.825669,14.8888167 C175.882527,14.8888167 182.667763,17.4144531 184.386267,25.625934 C185.20113,29.6863478 185.382915,34.0176668 185.382915,38.0780807 L185.382915,49.5383142 L185.382915,50.2593223 C185.382915,52.2442027 185.563643,58.2009522 188.276681,59.1928653" id="Fill-14" fill="#FFFFFF"></path>
                <path d="M319.999894,40.3342878 C319.999894,53.9596538 311.496154,64.425866 298.830379,65.3292343 L298.830379,56.8468484 C304.710917,55.5840302 308.783116,48.8166737 308.783116,40.3342878 C308.783116,31.7612489 304.982538,24.3635374 298.830379,23.2799171 L298.830379,14.9777832 C311.858667,15.7904984 319.999894,26.6182688 319.999894,40.3342878 M295.211586,15.0684362 L295.211586,23.2799171 C289.329991,24.5437894 285.440634,31.3100918 285.440634,39.8831307 C285.440634,48.5457686 289.059427,55.7642822 295.211586,56.8468484 L295.211586,65.3292343 C282.27419,64.425866 274.131907,53.6887487 274.131907,40.1540358 C274.131907,26.4380167 282.63459,16.1520566 295.211586,15.0684362" id="Fill-16" fill="#FFFFFF"></path>
                <path d="M198.289238,54.0530475 C199.468728,54.8794662 200.870164,55.6426384 202.494605,56.3509972 C204.117989,57.0572478 206.169413,57.4103731 208.648878,57.4103731 L209.091715,57.4103731 L209.091715,65.6239622 C207.615239,65.6239622 206.258192,65.5786356 205.017402,65.492199 C203.77767,65.4026 202.552734,65.1959954 201.343651,64.872385 C200.133512,64.5498288 198.909633,64.0923471 197.667786,63.5041563 C196.428054,62.9170196 195.131249,62.150685 193.774202,61.2062066 L198.289238,54.0530475 Z" id="Fill-18" fill="#9BC11C"></path>
                <path d="M207.340976,33.7156656 C205.897264,33.0442005 204.758993,32.0870728 204.351033,30.4974819 C203.686249,27.8980581 204.985167,24.5027847 207.746822,23.6974482 C209.903935,23.0660391 212.303077,23.2093974 214.50775,23.4170562 C217.497693,23.6995564 220.502432,24.5027847 223.171081,25.8836627 C224.262849,23.5667391 225.35356,21.2498155 226.445327,18.933946 C226.785646,18.2118839 225.885175,18.0874994 225.274293,17.7470234 C223.845377,16.9511738 222.340365,16.2891957 220.778281,15.802199 C218.964657,15.2371985 217.097132,14.7976366 215.207411,14.5941942 C209.530853,13.9859754 203.406173,14.8809109 198.829837,18.5017628 C194.506099,21.924443 192.55825,27.9244107 194.077001,33.2444805 C195.603151,38.5856324 201.345237,41.5339651 206.151974,43.3923529 C208.900946,44.453837 211.75455,45.1706287 214.520433,46.1635959 C216.566573,46.8972532 218.462634,48.2169932 218.91604,50.5022936 C219.399039,52.946764 218.11386,55.00754 215.949349,56.06797 C215.65659,56.2102742 212.722662,57.1294541 212.722662,57.0640995 L212.722662,58.0676078 L212.722662,65.4463454 C216.566573,65.0299738 220.509831,63.8746743 223.498717,61.3353345 C226.446384,58.8328883 228.133181,55.2963648 228.290658,51.4530967 C228.450249,47.604558 227.149216,44.2799096 224.205777,41.7374075 C222.724016,40.4577236 220.970635,39.5185157 219.192945,38.7131792 C217.445905,37.9226001 215.685126,37.0845864 213.863047,36.4774217" id="Fill-20" fill="#FFFFFF"></path>
                <path d="M254.691464,46.1493655 C256.134119,46.8218847 257.273447,47.7779583 257.68035,49.3686033 C258.345134,51.9680271 257.047273,55.3611923 254.284561,56.168637 C252.128505,56.798992 249.728306,56.6566878 247.52469,56.449029 C244.53369,56.1665288 241.528951,55.3611923 238.860302,53.9824225 C237.769591,56.298292 236.677823,58.6152156 235.587113,60.9321392 C235.246794,61.6542014 236.147264,61.7775317 236.758147,62.1180077 C238.187063,62.9149114 239.691018,63.5758354 241.253102,64.0638862 C243.066726,64.6278326 244.934252,65.0673945 246.823972,65.2708369 C252.501587,65.8801098 258.626267,64.9841202 263.201546,61.3632683 C267.525284,57.9416422 269.473134,51.9406204 267.954382,46.6205506 C266.429289,41.2793987 260.687203,38.331066 255.880466,36.4737323 C253.130437,35.4111941 250.278946,34.6944025 247.51095,33.7014352 C245.465867,32.9677779 243.569806,31.6480379 243.1164,29.3627375 C242.632344,26.9182671 243.917523,24.8585453 246.082035,23.7981153 C246.374793,23.6547569 249.308721,22.735577 249.308721,22.8019857 L249.308721,21.7974233 L249.308721,14.4186857 C245.465867,14.8361114 241.521552,15.9914109 238.532666,18.5307507 C235.586056,21.0331969 233.899259,24.5686663 233.740725,28.4119345 C233.581135,32.2604732 234.883224,35.5861756 237.825606,38.1276236 C239.308424,39.4083617 241.061805,40.3475695 242.838438,41.1518519 C244.585478,41.9434851 246.347314,42.7814988 248.168336,43.3886635" id="Fill-22" fill="#9BC11C"></path>
                <path d="M263.355112,26.0219614 C262.176679,25.1955427 260.774185,24.4323705 259.149745,23.7240117 C257.527418,23.0177611 255.474937,22.6646358 252.995472,22.6646358 L252.552635,22.6646358 L252.552635,14.4521008 C254.029111,14.4521008 255.386158,14.4974274 256.626947,14.583864 C257.86668,14.673463 259.091616,14.8790135 260.301755,15.203678 C261.510838,15.5251801 262.734717,15.9826618 263.976563,16.5708526 C265.216296,17.1579893 266.515214,17.925378 267.870148,18.8688023 L263.355112,26.0219614 Z" id="Fill-24" fill="#FFFFFF"></path>
                <polygon id="Fill-26" fill="#FFFFFF" points="0 64.9676762 10.5847577 64.9676762 10.5847577 11.8123048 0 11.8123048"></polygon>
                <mask id="mask-2" fill="white">
                    <use xlink:href="#path-1"></use>
                </mask>
                <g id="Clip-27"></g>
            </g>
        </g>
    </g>
</svg>