<?xml version="1.0" encoding="UTF-8"?>
<svg width="26px" height="22px" viewBox="0 0 26 22" version="1.1" xmlns="http://www.w3.org/2000/svg" xmlns:xlink="http://www.w3.org/1999/xlink">
    <title>twitter-footer-icn@3x</title>
    <g id="Symbols" stroke="none" stroke-width="1" fill="none" fill-rule="evenodd">
        <g id="organisms/footer-m" transform="translate(-150.000000, -668.000000)" fill="#FFFFFF">
            <g id="Group-3" transform="translate(83.000000, 668.000000)">
                <path d="M75.1112473,22 C84.5392128,22 89.6949704,13.8285875 89.6949704,6.74301167 C89.6949704,6.51078523 89.690399,6.27967098 89.6802995,6.04978014 C90.6810035,5.29293102 91.5509453,4.34856572 92.2372881,3.27329499 C91.3188687,3.70004445 90.330603,3.98776946 89.2937532,4.11745147 C90.3519714,3.45369312 91.164399,2.40322436 91.5476496,1.15111452 C90.5570451,1.76538017 89.4605549,2.21214915 88.2930491,2.45271706 C87.3577262,1.41047854 86.0256512,0.75862069 84.5515449,0.75862069 C81.7206995,0.75862069 79.4252355,3.16007348 79.4252355,6.12051578 C79.4252355,6.54137061 79.470205,6.95054738 79.5582304,7.34315243 C75.2983544,7.11915623 71.5208108,4.98518649 68.9931639,1.74068942 C68.5525054,2.53290637 68.2989541,3.45369312 68.2989541,4.43576186 C68.2989541,6.29624269 69.2038721,7.93851075 70.5798534,8.89922533 C69.7391472,8.87219897 68.9491512,8.63051886 68.2583433,8.22846015 C68.2571739,8.25081528 68.2571739,8.27339285 68.2571739,8.29686018 C68.2571739,10.8941706 70.0242729,13.0622848 72.3693841,13.5539864 C71.9389314,13.6764392 71.4858345,13.7426148 71.0182794,13.7426148 C70.6880779,13.7426148 70.3669128,13.7083592 70.0546778,13.6458538 C70.7072138,15.7762645 72.5993344,17.326554 74.843025,17.3702633 C73.0884707,18.8086659 70.8784806,19.6657238 68.4770247,19.6657238 C68.0633692,19.6657238 67.6554545,19.6409219 67.2542373,19.5914292 C69.5228046,21.1123567 72.2161901,22 75.1112473,22" id="twitter-footer-icn"></path>
            </g>
        </g>
    </g>
</svg>