<?xml version="1.0" encoding="UTF-8"?>
<svg width="28px" height="20px" viewBox="0 0 28 20" version="1.1" xmlns="http://www.w3.org/2000/svg" xmlns:xlink="http://www.w3.org/1999/xlink">
    <title>youtube-icn-footer@3x</title>
    <g id="Symbols" stroke="none" stroke-width="1" fill="none" fill-rule="evenodd">
        <g id="organisms/footer-m" transform="translate(-83.000000, -670.000000)" fill="#FFFFFF">
            <g id="Group-3" transform="translate(83.000000, 668.000000)">
                <path d="M10.9016949,15.8226282 L10.9016949,7.69461314 L17.98239,11.7585092 L10.9016949,15.8226282 Z M26.6848563,5.23714028 C26.3712256,4.07163042 25.4478322,3.1534513 24.2749701,2.84189039 C22.1497745,2.27586207 13.6270065,2.27586207 13.6270065,2.27586207 C13.6270065,2.27586207 5.10446278,2.27586207 2.97926716,2.84189039 C1.80640506,3.1534513 0.883011713,4.07163042 0.569381028,5.23714028 C0,7.35026809 0,11.7585092 0,11.7585092 C0,11.7585092 0,16.1669733 0.569381028,18.2798781 C0.883011713,19.4453879 1.80640506,20.3635671 2.97926716,20.675128 C5.10446278,21.2413793 13.6270065,21.2413793 13.6270065,21.2413793 C13.6270065,21.2413793 22.1497745,21.2413793 24.2749701,20.675128 C25.4478322,20.3635671 26.3712256,19.4453879 26.6848563,18.2798781 C27.2542373,16.1669733 27.2542373,11.7585092 27.2542373,11.7585092 C27.2542373,11.7585092 27.2542373,7.35026809 26.6848563,5.23714028 L26.6848563,5.23714028 Z" id="youtube-icn-footer"></path>
            </g>
        </g>
    </g>
</svg>